<svg xmlns="http://www.w3.org/2000/svg" viewBox="0 0 722.21 371.33"><defs><style>.cls-1{fill:#231f20;}.cls-2{fill:#008e9d;}</style></defs><title>Asset 1</title><g id="Layer_2" data-name="Layer 2"><g id="Layer_1-2" data-name="Layer 1"><path class="cls-1" d="M361.83 24.23a127.05 127.05 0 1 0 127.06 127.06A127.2 127.2 0 0 0 361.83 24.23zm0 223a96 96 0 1 1 96-96 96 96 0 0 1-96 96.04z"/><path class="cls-2" d="M542.24 364.86l-88.16-88.13v-16.6l-11.85-12.07 15.58-13.78 10.84 11.28h16.61l88.24 88.27a21.94 21.94 0 0 1 0 31 22.1 22.1 0 0 1-31.26.03zM350.57 181.16q0-12.5 3.1-19.93t12.25-16.31q9.16-8.88 11.6-12.64a22.12 22.12 0 0 0 3.76-12.38q0-8.81-4.37-13.45t-12.82-4.64q-8.08 0-13 4.54t-4.93 12.3h-22.82q.19-16.64 11.32-26.32t29.44-9.68q18.87 0 29.44 9.59T404.1 119q0 15.32-14.27 30.17l-11.55 11.37q-6.2 7.05-6.39 20.59zM349 210.32a12 12 0 0 1 3.47-8.93q3.47-3.41 9.39-3.41t9.48 3.51a12 12 0 0 1 3.47 8.84 11.83 11.83 0 0 1-3.38 8.61q-3.38 3.46-9.58 3.46t-9.53-3.46a11.92 11.92 0 0 1-3.32-8.62z"/><path class="cls-1" d="M151.55 196.8v82.39h-35.43V196.8H0v-22.63L126.79 0h24.76v169.9h44.82v26.9zm-35.43-152L26 169.9h90.08zM677.39 208.6V291H642v-82.4H525.84V186L652.63 11.8h24.76v169.9h44.82v26.9zM648 56.63L557.88 181.7H648z"/></g></g></svg>