<?xml version="1.0" encoding="UTF-8"?>
<svg width="483px" height="66px" viewBox="0 0 483 66" version="1.1" xmlns="http://www.w3.org/2000/svg" xmlns:xlink="http://www.w3.org/1999/xlink">
    <!-- Generator: Sketch 60.1 (88133) - https://sketch.com -->
    <title>d360_logo_main_darkbg</title>
    <desc>Created with Sketch.</desc>
    <g id="d360" stroke="none" stroke-width="1" fill="none" fill-rule="evenodd">
        <g id="D360" transform="translate(-136.000000, -436.000000)" fill-rule="nonzero">
            <g id="logo_main_darkbg" transform="translate(136.000000, 436.000000)">
                <path d="M469.84,25.1 C462.908826,25.1 457.29,19.4811736 457.29,12.55 C457.29,5.61882639 462.908826,0 469.84,0 C476.771174,0 482.39,5.61882639 482.39,12.55 C482.384486,19.4788882 476.768888,25.0944856 469.84,25.1 L469.84,25.1 Z M469.84,6 C466.222535,6 463.29,8.93253489 463.29,12.55 C463.29,16.1674651 466.222535,19.1 469.84,19.1 C473.457465,19.1 476.39,16.1674651 476.39,12.55 C476.384493,8.93481832 473.455182,6.00550676 469.84,6 L469.84,6 Z" id="Shape" fill="#63C5B8"></path>
                <path d="M0,64.92 L0,9.68 L20.07,9.68 C24.1333315,9.5970416 28.1713113,10.3386419 31.94,11.86 C38.4178729,14.5111051 43.4072623,19.8696729 45.59,26.52 C46.7456762,29.9680817 47.3234636,33.5834763 47.3,37.22 C47.3554373,41.1031928 46.7118546,44.9646891 45.4,48.62 C44.21146,51.8813184 42.3396584,54.850971 39.91,57.33 C37.467203,59.7784128 34.5372528,61.6862873 31.31,62.93 C27.7234535,64.3012191 23.9094101,64.9798745 20.07,64.93 L0,64.92 Z M36.49,37.22 C36.5121698,34.741256 36.1443422,32.2744488 35.4,29.91 C34.7354593,27.7947473 33.6504207,25.8355553 32.21,24.15 C30.7801982,22.5259632 28.9981679,21.2501526 27,20.42 C24.7833908,19.498553 22.400096,19.0457269 20,19.09 L10.73,19.09 L10.73,55.5 L20.07,55.5 C22.4769666,55.5433239 24.8648477,55.0657477 27.07,54.1 C29.0521825,53.2214498 30.8095177,51.9051578 32.21,50.25 C33.6232385,48.5409785 34.6928526,46.5749259 35.36,44.46 C36.112599,42.120523 36.4938921,39.6775481 36.49,37.22 L36.49,37.22 Z" id="Shape" fill="#63C5B8"></path>
                <polygon id="Path" fill="#63C5B8" points="94.06 55.5 94.06 64.92 55.7 64.92 55.7 9.68 93.36 9.68 93.36 19.09 66.44 19.09 66.44 32.4 89.7 32.4 89.7 41.11 66.44 41.11 66.44 55.5"></polygon>
                <polygon id="Path" fill="#63C5B8" points="102.46 64.92 102.46 9.68 139.57 9.68 139.57 19.09 113.2 19.09 113.2 33.33 135.14 33.33 135.14 42 113.2 42 113.2 64.92"></polygon>
                <polygon id="Path" fill="#63C5B8" points="185.47 55.5 185.47 64.92 147.12 64.92 147.12 9.68 184.77 9.68 184.77 19.09 157.85 19.09 157.85 32.4 181.11 32.4 181.11 41.11 157.85 41.11 157.85 55.5"></polygon>
                <polygon id="Path" fill="#63C5B8" points="204.61 29.52 204.61 64.92 193.87 64.92 193.87 9.68 202.2 9.68 231 45.93 231 9.76 241.74 9.76 241.74 64.92 233 64.92"></polygon>
                <path d="M286.14,24.15 C285.522184,23.5938584 284.852451,23.0982558 284.14,22.67 C283.023419,21.9686543 281.853101,21.3567453 280.64,20.84 C279.189357,20.2242271 277.695312,19.7161849 276.17,19.32 C274.565625,18.9092141 272.916129,18.7009274 271.26,18.7 C268.31,18.7 266.1,19.25 264.65,20.34 C263.203895,21.411161 262.386434,23.1323287 262.47,24.93 C262.429334,25.9403952 262.717024,26.9367832 263.29,27.77 C263.920535,28.6054743 264.730406,29.2889102 265.66,29.77 C266.912156,30.4253182 268.229292,30.9481508 269.59,31.33 C271.17,31.79 273,32.33 275.07,32.8 C277.77,33.5266667 280.223333,34.3066667 282.43,35.14 C284.450985,35.8704891 286.34168,36.9204998 288.03,38.25 C289.529826,39.460161 290.739453,40.9909889 291.57,42.73 C292.459742,44.7466288 292.886848,46.9368288 292.82,49.14 C292.895374,51.7699145 292.318189,54.3775538 291.14,56.73 C290.077864,58.7715559 288.528831,60.5197986 286.63,61.82 C284.647316,63.1616599 282.433322,64.1245607 280.1,64.66 C277.561842,65.2682156 274.959993,65.5703657 272.35,65.5602579 C268.182587,65.5584863 264.039266,64.9280542 260.06,63.69 C256.168974,62.5241964 252.491668,60.7378833 249.17,58.4 L253.91,49.14 C254.69127,49.849123 255.54613,50.472668 256.46,51 C257.851134,51.8432653 259.293989,52.5980923 260.78,53.26 C262.560257,54.0551612 264.407483,54.6909818 266.3,55.16 C268.335636,55.6807759 270.428806,55.9428421 272.53,55.94 C278.443333,55.94 281.4,54.0466667 281.4,50.26 C281.425685,49.1741366 281.072066,48.1132794 280.4,47.26 C279.609125,46.3089156 278.623681,45.5382917 277.51,45 C276.05828,44.3022007 274.549426,43.7301072 273,43.29 L267.08,41.58 C264.731975,40.9545927 262.43257,40.1591591 260.2,39.2 C258.426355,38.4675059 256.782033,37.4545767 255.33,36.2 C254.069984,35.0840188 253.075687,33.7002027 252.42,32.15 C251.721372,30.4092163 251.381249,28.545342 251.42,26.67 C251.374123,24.0828178 251.914278,21.5187921 253,19.17 C253.999784,17.0440875 255.478432,15.178664 257.32,13.72 C259.236232,12.23044 261.413452,11.1113082 263.74,10.42 C266.28844,9.65099524 268.938136,9.27005926 271.6,9.29 C275.257497,9.25124068 278.892109,9.87112324 282.33,11.12 C285.346226,12.2115704 288.220202,13.6619882 290.89,15.44 L286.14,24.15 Z" id="Path" fill="#63C5B8"></path>
                <polygon id="Path" fill="#63C5B8" points="339.28 55.5 339.28 64.92 300.93 64.92 300.93 9.68 338.58 9.68 338.58 19.09 311.66 19.09 311.66 32.4 334.92 32.4 334.92 41.11 311.66 41.11 311.66 55.5"></polygon>
                <path d="M349.78,50.77 C349.78,50.77 354.99,56.36 362.3,56.36 C368.05,56.36 372.25,52.86 372.25,48.12 C372.25,42.29 366.89,39.57 360.43,39.57 L356.62,39.57 L354.37,34.44 L364.48,22.44 C365.729007,20.9620434 367.064692,19.5595741 368.48,18.24 L368.48,18.09 C366.853048,18.268601 365.216529,18.3454172 363.58,18.32 L347.06,18.32 L347.06,9.71 L380.8,9.71 L380.8,16 L367.27,31.64 C374.9,32.72 382.36,38.17 382.36,47.73 C382.36,57.29 375.21,65.85 362.92,65.85 C356.086147,65.9324287 349.504784,63.2703446 344.65,58.46 L349.78,50.77 Z" id="Path" fill="#FFFFFF"></path>
                <path d="M387.59,39.64 C387.59,25.18 395.91,8.78 413.02,8.78 C416.905519,8.68347174 420.7613,9.48062972 424.29,11.11 L421.29,19.74 C418.857857,18.6422003 416.227951,18.0502164 413.56,18 C404.85,18 400.27,25.23 398.86,32.77 L399,32.77 C401,30.52 405.38,28.89 409.34,28.89 C420.23,28.89 427.07,37.36 427.07,47.31 C427.07,57.58 419.84,65.8200704 408.88,65.8200704 C397.39,65.85 387.59,56.29 387.59,39.64 Z M417.14,47.34 C417.14,41.74 413.64,37.16 407.03,37.16 C402.03,37.16 398.03,39.72 398.03,43.16 C398.03,50.09 403.09,56.69 408.92,56.69 C414,56.67 417.14,52.55 417.14,47.34 Z" id="Shape" fill="#FFFFFF"></path>
                <path d="M467,28.19 C465.311695,28.1691389 463.64249,27.8298696 462.08,27.19 C462.743856,30.4809055 463.055611,33.8331141 463.01,37.19 C463.01,48.07 460.83,56.62 453.29,56.62 C445.75,56.62 443.57,48.07 443.57,37.19 C443.57,26.31 445.78,18 453.32,18 C453.514822,18.0194631 453.708441,18.0495074 453.9,18.09 C453.55769,16.9200161 453.376026,15.7089264 453.36,14.49 C453.365154,12.5300418 453.798601,10.5948909 454.63,8.82 C454.19,8.82 453.77,8.75 453.32,8.75 C438.24,8.75 433.32,21.34 433.32,37.21 C433.32,53.08 438.22,65.82 453.32,65.82 C468.42,65.82 473.38,53.07 473.38,37.21 C473.404538,33.7880205 473.12005,30.370814 472.53,27 C470.79035,27.7795797 468.906332,28.1850015 467,28.19 Z" id="Path" fill="#FFFFFF"></path>
            </g>
        </g>
    </g>
</svg>