<?xml version="1.0" encoding="UTF-8"?>
<svg id="Layer_1" xmlns="http://www.w3.org/2000/svg" width="4.8884in" height=".4025in" version="1.1" viewBox="0 0 351.9649 28.98">
  <!-- Generator: Adobe Illustrator 29.4.0, SVG Export Plug-In . SVG Version: 2.1.0 Build 152)  -->
  <g>
    <path d="M238.0841,8.1733c0,.4287-.0645.8311-.1953,1.2051-.1309.375-.3203.7051-.5684.9912s-.5488.5117-.9023.6758-.7529.2461-1.1992.2461c-.2949,0-.5303-.0049-.707-.0127-.1768-.0088-.3193-.0176-.4287-.0254s-.1963-.0166-.2588-.0254c-.0635-.0078-.1201-.0127-.1709-.0127-.0674,0-.1201.002-.1572.0068-.0381.0039-.0742.0107-.1074.0186-.0342.0088-.0693.0146-.1074.0186-.0381.0049-.0908.0068-.1582.0068-.042,0-.082-.0088-.1191-.0254-.0381-.0166-.0576-.0547-.0576-.1133l.0127-2.9033-.0127-2.8789c0-.1006.0596-.1514.1768-.1514h2.1719c.4375,0,.8281.0762,1.1738.2275.3447.1514.6377.3594.877.625.2402.2646.4229.5801.5498.9463.126.3662.1885.7598.1885,1.1807ZM236.9737,8.1099c0-.3027-.0273-.5996-.082-.8896s-.1494-.5488-.2842-.7764-.3174-.4121-.5488-.5557c-.2314-.1426-.5244-.2139-.8779-.2139h-.9463c-.0674,0-.1309.0186-.1895.0566-.0586.0371-.0889.082-.0889.1318l-.0117,2.374.0117,2.082c0,.1016.0361.1875.1074.2588.0713.0723.1602.1289.2656.1709.1045.042.2168.0713.334.0879.1182.0176.2236.0254.3164.0254.3867,0,.708-.082.9648-.2461s.4609-.3789.6123-.6436.2588-.5615.3223-.8896.0947-.6523.0947-.9727Z" fill="#1d2856"/>
    <path d="M244.1798,11.2534h-3.9355c-.1201,0-.1797-.0508-.1797-.1514l.0127-2.8779-.0127-2.8789c0-.1006.0596-.1514.1797-.1514h3.8096c.0586,0,.1094.0107.1514.0322.042.0205.0635.0566.0635.1074v.4668c0,.0498-.0215.0859-.0635.1074-.042.0205-.0928.0273-.1514.0186-.2275-.0254-.4502-.0508-.6689-.0762-.1855-.0166-.377-.0332-.5742-.0498-.1982-.0166-.3682-.0254-.5117-.0254h-.9971c-.0674,0-.1221.0186-.1641.0566s-.0635.082-.0635.1328l-.0117,1.8174c0,.0254.0117.0381.0371.0381l2.1084-.0508c.0332,0,.0674.0068.1006.0195.0342.0127.0508.04.0508.082v.4668c0,.042-.0166.0713-.0508.0879-.0332.0176-.0674.0254-.1006.0254l-2.1084-.0498c-.0254,0-.0371.0127-.0371.0371l.0117,2.0332c0,.0586.0215.1064.0635.1445s.0967.0566.1641.0566h.9971c.1436,0,.3203-.0078.5303-.0244.2109-.0176.417-.0381.6191-.0635.2354-.0332.4795-.0674.7314-.1016.042-.0078.0869-.0059.1328.0068s.0693.0527.0693.1201v.5049c0,.0928-.0674.1387-.2021.1387Z" fill="#1d2856"/>
    <path d="M250.1505,5.9077c-.042.0205-.0928.0273-.1514.0186-.2607-.0254-.501-.0508-.7197-.0762-.1934-.0166-.3867-.0332-.5811-.0498-.1934-.0166-.3408-.0254-.4414-.0254h-.8965c-.0674,0-.1221.0186-.1641.0566s-.0625.082-.0625.1328l-.0127,1.8047c0,.0254.0127.0381.0371.0381l2.0205-.0508c.0332,0,.0645.0088.0947.0254.0293.0176.0439.0469.0439.0889v.4668c0,.042-.0146.0693-.0439.082-.0303.0127-.0615.0186-.0947.0186l-2.0205-.0498c-.0244,0-.0371.0127-.0371.0371l.0244,2.6768c0,.1006-.0625.1514-.1885.1514h-.6445c-.1172,0-.1768-.0508-.1768-.1514l.0127-2.8779-.0127-2.8789c0-.1006.0596-.1514.1768-.1514h3.6992c.1348,0,.2021.0469.2021.1396v.4668c0,.0498-.0215.0859-.0635.1074Z" fill="#1d2856"/>
    <path d="M255.9728,11.2534h-3.9355c-.1201,0-.1797-.0508-.1797-.1514l.0127-2.8779-.0127-2.8789c0-.1006.0596-.1514.1797-.1514h3.8096c.0586,0,.1094.0107.1514.0322.042.0205.0635.0566.0635.1074v.4668c0,.0498-.0215.0859-.0635.1074-.042.0205-.0928.0273-.1514.0186-.2275-.0254-.4502-.0508-.6689-.0762-.1855-.0166-.377-.0332-.5742-.0498-.1982-.0166-.3682-.0254-.5117-.0254h-.9971c-.0674,0-.1221.0186-.1641.0566s-.0635.082-.0635.1328l-.0117,1.8174c0,.0254.0117.0381.0371.0381l2.1084-.0508c.0332,0,.0674.0068.1006.0195.0342.0127.0508.04.0508.082v.4668c0,.042-.0166.0713-.0508.0879-.0332.0176-.0674.0254-.1006.0254l-2.1084-.0498c-.0254,0-.0371.0127-.0371.0371l.0117,2.0332c0,.0586.0215.1064.0635.1445s.0967.0566.1641.0566h.9971c.1436,0,.3203-.0078.5303-.0244.2109-.0176.417-.0381.6191-.0635.2354-.0332.4795-.0674.7314-.1016.042-.0078.0869-.0059.1328.0068s.0693.0527.0693.1201v.5049c0,.0928-.0674.1387-.2021.1387Z" fill="#1d2856"/>
    <path d="M262.9659,9.6245l.0127,1.6035c0,.0508-.0146.0889-.0439.1133-.0303.0254-.0635.043-.1016.0508-.0371.0088-.0732.0068-.1074-.0059-.0332-.0127-.0586-.0273-.0752-.0449l-3.9131-4.6201c-.0176-.0166-.0322-.0225-.0449-.0186s-.0186.0107-.0186.0186l.1387,4.3428c0,.042-.0107.084-.0312.126-.0215.043-.0654.0635-.1328.0635h-.5684c-.0674,0-.1094-.0205-.126-.0635-.0166-.042-.0254-.084-.0254-.126l.127-4.2412-.0254-1.4775c0-.1006.0625-.1514.1895-.1514h.2773c.042,0,.084.0088.126.0254.042.0176.0762.042.1016.0762l3.459,4.0898c.0332.042.0645.0527.0947.0312.0293-.0205.0439-.04.0439-.0566l-.1143-3.9766c0-.042.0088-.084.0254-.126s.0586-.0635.127-.0635h.5293c.0674,0,.1094.0215.127.0635.0166.042.0254.084.0254.126l-.0762,4.2412Z" fill="#1d2856"/>
    <path d="M269.6144,9.6372c0,.3203-.0654.5898-.1953.8086-.1309.2188-.3037.3975-.5176.5361-.2148.1387-.4658.2402-.752.3027-.2861.0635-.585.0947-.8955.0947-.5225,0-.9531-.0439-1.2939-.1318-.3408-.0889-.6465-.1836-.915-.2842-.0508-.0166-.082-.0488-.0947-.0947-.0127-.0469-.0107-.0869.0059-.1201l.1895-.6182c.0166-.0674.0547-.0996.1133-.0947.0586.0039.1055.0225.1387.0566.2188.2188.4902.3955.8145.5303s.6963.2021,1.1172.2021c.1855,0,.3623-.0254.5303-.0762s.3154-.1182.4424-.2021c.126-.084.2266-.1846.3027-.3027.0752-.1182.1133-.248.1133-.3916,0-.21-.0654-.3887-.1953-.5361-.1309-.1475-.291-.2734-.4795-.3789-.1895-.1055-.3916-.1953-.6064-.2715-.2148-.0752-.4023-.1426-.5615-.2021-.2275-.084-.4541-.1768-.6816-.2773-.2275-.1016-.4316-.2207-.6123-.3604-.1807-.1387-.3262-.3008-.4355-.4854-.1094-.1855-.1641-.4043-.1641-.6562,0-.5225.1826-.9219.5488-1.1992.3662-.2783.8311-.417,1.3955-.417.5049,0,.9316.0254,1.2812.0762.3486.0498.6494.084.9023.1006.0586.0088.0967.0293.1133.0635.0166.0332.0215.0713.0127.1133l-.1387.6055c-.0166.0596-.0488.0928-.0947.1016s-.0908,0-.1328-.0254c-.2266-.1182-.4961-.2314-.8076-.3408s-.6943-.1641-1.1484-.1641c-.3115,0-.5645.0674-.7578.2021s-.29.3115-.29.5303c0,.1602.0352.2988.1074.416.0713.1182.1641.2207.2773.3096.1133.0879.2402.1641.3789.2275.1387.0625.2715.1191.3975.1699.2607.1016.543.2041.8457.3096s.583.2373.8398.3975c.2559.1602.4707.3555.6436.5869.1719.2314.2588.5283.2588.8896Z" fill="#1d2856"/>
    <path d="M275.6065,11.2534h-3.9355c-.1201,0-.1797-.0508-.1797-.1514l.0127-2.8779-.0127-2.8789c0-.1006.0596-.1514.1797-.1514h3.8096c.0586,0,.1094.0107.1514.0322.042.0205.0635.0566.0635.1074v.4668c0,.0498-.0215.0859-.0635.1074-.042.0205-.0928.0273-.1514.0186-.2275-.0254-.4502-.0508-.6689-.0762-.1855-.0166-.377-.0332-.5742-.0498-.1982-.0166-.3682-.0254-.5117-.0254h-.9971c-.0674,0-.1221.0186-.1641.0566s-.0635.082-.0635.1328l-.0117,1.8174c0,.0254.0117.0381.0371.0381l2.1084-.0508c.0332,0,.0674.0068.1006.0195.0342.0127.0508.04.0508.082v.4668c0,.042-.0166.0713-.0508.0879-.0332.0176-.0674.0254-.1006.0254l-2.1084-.0498c-.0254,0-.0371.0127-.0371.0371l.0117,2.0332c0,.0586.0215.1064.0635.1445s.0967.0566.1641.0566h.9971c.1436,0,.3203-.0078.5303-.0244.2109-.0176.417-.0381.6191-.0635.2354-.0332.4795-.0674.7314-.1016.042-.0078.0869-.0059.1328.0068s.0693.0527.0693.1201v.5049c0,.0928-.0674.1387-.2021.1387Z" fill="#1d2856"/>
    <path d="M285.2765,11.0767c.0332.0586.0361.1035.0068.1328-.0303.0293-.0742.0439-.1328.0439h-.8584c-.1094,0-.1855-.0459-.2275-.1387l-.2773-.6816-.3408-.8457c-.0254-.042-.0596-.0635-.1016-.0635h-2.4111c-.042,0-.0713.0215-.0879.0635l-.5557,1.5273c-.0332.0928-.1006.1387-.2021.1387h-.5547c-.0674,0-.1094-.0205-.127-.0635-.0166-.042-.0166-.0879,0-.1387l2.4873-5.7939c.0166-.042.0586-.0713.126-.0889.0674-.0166.1387-.0244.2148-.0244.0752,0,.1494.0107.2207.0312.0713.0215.1152.0488.1328.082l2.3223,5.1504c.0254.0674.0586.1387.1016.2148.042.0752.084.1475.126.2139.042.085.0879.1641.1387.2402ZM282.1212,6.356c-.0176-.0254-.0303-.0254-.0381,0l-1.0098,2.6377c-.0176.0342-.0088.0508.0244.0508h2.0957c.0254,0,.0342-.0127.0254-.0381l-1.0977-2.6504Z" fill="#1d2856"/>
    <path d="M292.0069,9.6245l.0127,1.6035c0,.0508-.0146.0889-.0439.1133-.0303.0254-.0635.043-.1016.0508-.0371.0088-.0732.0068-.1074-.0059-.0332-.0127-.0586-.0273-.0752-.0449l-3.9131-4.6201c-.0176-.0166-.0322-.0225-.0449-.0186s-.0186.0107-.0186.0186l.1387,4.3428c0,.042-.0107.084-.0312.126-.0215.043-.0654.0635-.1328.0635h-.5684c-.0674,0-.1094-.0205-.126-.0635-.0166-.042-.0254-.084-.0254-.126l.127-4.2412-.0254-1.4775c0-.1006.0625-.1514.1895-.1514h.2773c.042,0,.084.0088.126.0254.042.0176.0762.042.1016.0762l3.459,4.0898c.0332.042.0645.0527.0947.0312.0293-.0205.0439-.04.0439-.0566l-.1143-3.9766c0-.042.0088-.084.0254-.126s.0586-.0635.127-.0635h.5293c.0674,0,.1094.0215.127.0635.0166.042.0254.084.0254.126l-.0762,4.2412Z" fill="#1d2856"/>
    <path d="M299.4718,8.1733c0,.4287-.0645.8311-.1953,1.2051-.1309.375-.3203.7051-.5684.9912s-.5488.5117-.9023.6758-.7529.2461-1.1992.2461c-.2949,0-.5303-.0049-.707-.0127-.1768-.0088-.3193-.0176-.4287-.0254s-.1963-.0166-.2588-.0254c-.0635-.0078-.1201-.0127-.1709-.0127-.0674,0-.1201.002-.1572.0068-.0381.0039-.0742.0107-.1074.0186-.0342.0088-.0693.0146-.1074.0186-.0381.0049-.0908.0068-.1582.0068-.042,0-.082-.0088-.1191-.0254-.0381-.0166-.0576-.0547-.0576-.1133l.0127-2.9033-.0127-2.8789c0-.1006.0596-.1514.1768-.1514h2.1719c.4375,0,.8281.0762,1.1738.2275.3447.1514.6377.3594.877.625.2402.2646.4229.5801.5498.9463.126.3662.1885.7598.1885,1.1807ZM298.3614,8.1099c0-.3027-.0273-.5996-.082-.8896s-.1494-.5488-.2842-.7764-.3174-.4121-.5488-.5557c-.2314-.1426-.5244-.2139-.8779-.2139h-.9463c-.0674,0-.1309.0186-.1895.0566-.0586.0371-.0889.082-.0889.1318l-.0117,2.374.0117,2.082c0,.1016.0361.1875.1074.2588.0713.0723.1602.1289.2656.1709.1045.042.2168.0713.334.0879.1182.0176.2236.0254.3164.0254.3867,0,.708-.082.9648-.2461s.4609-.3789.6123-.6436.2588-.5615.3223-.8896.0947-.6523.0947-.9727Z" fill="#1d2856"/>
    <path d="M308.3839,9.6372c0,.3203-.0654.5898-.1953.8086-.1309.2188-.3037.3975-.5176.5361-.2148.1387-.4658.2402-.752.3027-.2861.0635-.585.0947-.8955.0947-.5225,0-.9531-.0439-1.2939-.1318-.3408-.0889-.6465-.1836-.915-.2842-.0508-.0166-.082-.0488-.0947-.0947-.0127-.0469-.0107-.0869.0059-.1201l.1895-.6182c.0166-.0674.0547-.0996.1133-.0947.0586.0039.1055.0225.1387.0566.2188.2188.4902.3955.8145.5303s.6963.2021,1.1172.2021c.1855,0,.3623-.0254.5303-.0762s.3154-.1182.4424-.2021c.126-.084.2266-.1846.3027-.3027.0752-.1182.1133-.248.1133-.3916,0-.21-.0654-.3887-.1953-.5361-.1309-.1475-.291-.2734-.4795-.3789-.1895-.1055-.3916-.1953-.6064-.2715-.2148-.0752-.4023-.1426-.5615-.2021-.2275-.084-.4541-.1768-.6816-.2773-.2275-.1016-.4316-.2207-.6123-.3604-.1807-.1387-.3262-.3008-.4355-.4854-.1094-.1855-.1641-.4043-.1641-.6562,0-.5225.1826-.9219.5488-1.1992.3662-.2783.8311-.417,1.3955-.417.5049,0,.9316.0254,1.2812.0762.3486.0498.6494.084.9023.1006.0586.0088.0967.0293.1133.0635.0166.0332.0215.0713.0127.1133l-.1387.6055c-.0166.0596-.0488.0928-.0947.1016s-.0908,0-.1328-.0254c-.2266-.1182-.4961-.2314-.8076-.3408s-.6943-.1641-1.1484-.1641c-.3115,0-.5645.0674-.7578.2021s-.29.3115-.29.5303c0,.1602.0352.2988.1074.416.0713.1182.1641.2207.2773.3096.1133.0879.2402.1641.3789.2275.1387.0625.2715.1191.3975.1699.2607.1016.543.2041.8457.3096s.583.2373.8398.3975c.2559.1602.4707.3555.6436.5869.1719.2314.2588.5283.2588.8896Z" fill="#1d2856"/>
    <path d="M314.3761,11.2534h-3.9355c-.1201,0-.1797-.0508-.1797-.1514l.0127-2.8779-.0127-2.8789c0-.1006.0596-.1514.1797-.1514h3.8096c.0586,0,.1094.0107.1514.0322.042.0205.0635.0566.0635.1074v.4668c0,.0498-.0215.0859-.0635.1074-.042.0205-.0928.0273-.1514.0186-.2275-.0254-.4502-.0508-.6689-.0762-.1855-.0166-.377-.0332-.5742-.0498-.1982-.0166-.3682-.0254-.5117-.0254h-.9971c-.0674,0-.1221.0186-.1641.0566s-.0635.082-.0635.1328l-.0117,1.8174c0,.0254.0117.0381.0371.0381l2.1084-.0508c.0332,0,.0674.0068.1006.0195.0342.0127.0508.04.0508.082v.4668c0,.042-.0166.0713-.0508.0879-.0332.0176-.0674.0254-.1006.0254l-2.1084-.0498c-.0254,0-.0371.0127-.0371.0371l.0117,2.0332c0,.0586.0215.1064.0635.1445s.0967.0566.1641.0566h.9971c.1436,0,.3203-.0078.5303-.0244.2109-.0176.417-.0381.6191-.0635.2354-.0332.4795-.0674.7314-.1016.042-.0078.0869-.0059.1328.0068s.0693.0527.0693.1201v.5049c0,.0928-.0674.1387-.2021.1387Z" fill="#1d2856"/>
    <path d="M320.88,10.6226c-.2441.2324-.5449.417-.9023.5537-.3584.1357-.7432.2031-1.1553.2031-.3623,0-.7158-.0547-1.0605-.1641s-.6543-.2861-.9277-.5303-.4941-.5674-.6631-.9717c-.168-.4043-.252-.8965-.252-1.4766,0-.4717.0771-.8965.2334-1.2754.1553-.3789.3662-.6982.6309-.959.2656-.2607.5723-.4609.9219-.5996.3486-.1396.7129-.209,1.0918-.209h1.8057c.042,0,.082.0068.1191.0195.0381.0127.0527.0537.0449.123l-.0762.5771c-.0088.0596-.0342.1016-.0762.126-.042.0254-.0879.0303-.1387.0127-.2939-.0918-.5615-.1621-.8018-.208-.2393-.0459-.5361-.0693-.8896-.0693-.5557,0-.9805.208-1.2744.625-.2949.416-.4424,1.0332-.4424,1.8496,0,.4873.0547.8936.1641,1.2178s.2588.585.4482.7822c.1895.1982.4102.3389.6631.4229.252.085.5254.127.8203.127.2188,0,.4541-.0596.707-.1768.252-.1182.4668-.248.6436-.3916.0166-.0166.042-.0293.0762-.0381.0332-.0078.0625.0049.0879.0381l.2021.252c.042.0508.042.0977,0,.1396Z" fill="#1d2856"/>
    <path d="M327.5421,5.396c0,.0762-.0049.1562-.0127.2402-.0088.0674-.0156.1426-.0195.2266-.0039.085-.0059.1641-.0059.2402l-.0889,3.333c-.0166.6562-.2227,1.1504-.6182,1.4824-.3955.333-.9473.499-1.6533.499-.792,0-1.4141-.1641-1.8691-.4922-.4541-.3281-.6855-.8252-.6943-1.4893l-.0371-3.4209-.0127-.6699c0-.1006.0625-.1514.1865-.1514h.6738c.125,0,.1875.0508.1875.1514l-.0254.6699-.0127,3.3447c0,.2275.042.4316.127.6123.084.1807.2021.332.3545.4541s.3271.2168.5264.2842c.1982.0674.4111.1016.6396.1016.2031,0,.3926-.0254.5703-.0762s.334-.1299.4697-.2402c.1348-.1084.2402-.248.3164-.416s.1143-.375.1143-.6191l-.0381-3.3447c0-.0762-.002-.1553-.0068-.2402-.0039-.084-.0098-.1592-.0186-.2266-.0088-.084-.0166-.1689-.0254-.2529-.0078-.042-.002-.0859.0195-.1328.0205-.0459.0645-.0693.1318-.0693h.6689c.0674,0,.1094.0234.127.0693.0166.0469.0254.0908.0254.1328Z" fill="#1d2856"/>
    <path d="M334.922,11.0767c.042.042.0459.082.0127.1201-.0342.0381-.084.0566-.1514.0566h-.8457c-.0674,0-.126-.0293-.1768-.0879l-.0254-.0508-1.5654-2.2852c-.1768-.252-.3535-.3789-.5303-.3789h-.7441c-.043,0-.082.0127-.1201.0381s-.0566.0547-.0566.0889l.0117,2.5244c0,.1006-.0625.1514-.1885.1514h-.6445c-.1172,0-.1768-.0508-.1768-.1514l.0127-2.8779-.0127-2.8789c0-.042.0068-.0771.0195-.1064.0127-.0303.0518-.0449.1201-.0449h2.6758c.2441,0,.4756.0361.6943.1074s.4102.1729.5742.3027c.1641.1309.2949.2842.3916.46.0967.1768.1445.3701.1445.5801,0,.4297-.1494.793-.4473,1.0908-.2988.2988-.6846.4941-1.1553.5869-.0088,0-.0146.002-.0195.0059-.0039.0049-.002.0068.0068.0068.084.0586.2275.2188.4287.4805l1.4521,1.8828.3154.3789ZM333.2687,6.7163c0-.3018-.1035-.5508-.3096-.7471-.2061-.1973-.4775-.2949-.8145-.2949h-1.1611c-.0674,0-.126.0186-.1768.0557-.0508.0381-.0762.082-.0762.1318l-.0117,1.9717c0,.0332.0186.0645.0566.0938s.0771.0439.1201.0439h.7949c.4883,0,.873-.0918,1.1553-.2764.2812-.1836.4229-.5107.4229-.9785Z" fill="#1d2856"/>
    <path d="M337.4933,11.2534h-.6445c-.1172,0-.1768-.0508-.1768-.1514l.0127-2.8779-.0127-2.8789c0-.1006.0596-.1514.1768-.1514h.6445c.126,0,.1885.0508.1885.1514l-.0117,2.8789.0117,2.8779c0,.1006-.0625.1514-.1885.1514Z" fill="#1d2856"/>
    <path d="M344.4835,5.7749c-.0088.1006-.0684.1436-.1768.126-.2275-.0166-.4512-.0381-.6699-.0625-.1846-.0176-.374-.0322-.5674-.0449-.1943-.0127-.3623-.0186-.5049-.0186-.0254,0-.0527.0146-.082.0439-.0303.0293-.0449.0654-.0449.1074v5.1758c0,.1006-.0586.1514-.1768.1514h-.6436c-.1182,0-.1768-.0508-.1768-.1514v-5.1885c0-.042-.0146-.0752-.0439-.1006s-.0566-.0381-.082-.0381c-.1436,0-.3135.0059-.5117.0186-.1973.0127-.3887.0273-.5742.0449-.2188.0244-.4375.0459-.6562.0625-.1094.0176-.168-.0254-.1768-.126l-.0381-.4414c-.0078-.0508.0107-.0869.0576-.1074.0459-.0215.0986-.0322.1572-.0322h4.7344c.0586,0,.1113.0107.1572.0322.0459.0205.0654.0566.0566.1074l-.0371.4414Z" fill="#1d2856"/>
    <path d="M349.4024,8.5142c-.0508.0674-.0762.1309-.0762.1895l.0127,2.3984c0,.1006-.0586.1514-.1768.1514h-.6436c-.126,0-.1895-.0508-.1895-.1514l.0127-2.209c0-.0674-.0205-.1309-.0625-.1895l-2.4365-3.333c-.042-.0498-.0547-.0918-.0381-.126.0166-.0332.0586-.0508.126-.0508h.8457c.1094,0,.1982.0469.2656.1396l1.8809,2.751c.0078.0176.0205.0254.0381.0254.0166,0,.0293-.0078.0371-.0254l1.7168-2.7891c.0342-.042.0674-.0693.1016-.082.0332-.0127.0752-.0195.126-.0195h.5557c.0674,0,.1074.0215.1201.0635s.002.084-.0322.126l-2.1836,3.1309Z" fill="#1d2856"/>
    <path d="M238.0841,20.688c0,.4287-.0645.8311-.1953,1.2051-.1309.375-.3203.7051-.5684.9912s-.5488.5117-.9023.6758-.7529.2461-1.1992.2461c-.2949,0-.5303-.0049-.707-.0127-.1768-.0088-.3193-.0176-.4287-.0254s-.1963-.0166-.2588-.0254c-.0635-.0078-.1201-.0127-.1709-.0127-.0674,0-.1201.002-.1572.0068-.0381.0039-.0742.0107-.1074.0186-.0342.0088-.0693.0146-.1074.0186-.0381.0049-.0908.0068-.1582.0068-.042,0-.082-.0088-.1191-.0254-.0381-.0166-.0576-.0547-.0576-.1133l.0127-2.9033-.0127-2.8789c0-.1006.0596-.1514.1768-.1514h2.1719c.4375,0,.8281.0762,1.1738.2275.3447.1514.6377.3594.877.625.2402.2646.4229.5801.5498.9463.126.3662.1885.7598.1885,1.1807ZM236.9737,20.6245c0-.3027-.0273-.5996-.082-.8896s-.1494-.5488-.2842-.7764-.3174-.4121-.5488-.5557c-.2314-.1426-.5244-.2139-.8779-.2139h-.9463c-.0674,0-.1309.0186-.1895.0566-.0586.0371-.0889.082-.0889.1318l-.0117,2.374.0117,2.082c0,.1016.0361.1875.1074.2588.0713.0723.1602.1289.2656.1709.1045.042.2168.0713.334.0879.1182.0176.2236.0254.3164.0254.3867,0,.708-.082.9648-.2461s.4609-.3789.6123-.6436.2588-.5615.3223-.8896.0947-.6523.0947-.9727Z" fill="#1d2856"/>
    <path d="M244.1798,23.7681h-3.9355c-.1201,0-.1797-.0508-.1797-.1514l.0127-2.8779-.0127-2.8789c0-.1006.0596-.1514.1797-.1514h3.8096c.0586,0,.1094.0107.1514.0322.042.0205.0635.0566.0635.1074v.4668c0,.0498-.0215.0859-.0635.1074-.042.0205-.0928.0273-.1514.0186-.2275-.0254-.4502-.0508-.6689-.0762-.1855-.0166-.377-.0332-.5742-.0498-.1982-.0166-.3682-.0254-.5117-.0254h-.9971c-.0674,0-.1221.0186-.1641.0566s-.0635.082-.0635.1328l-.0117,1.8174c0,.0254.0117.0381.0371.0381l2.1084-.0508c.0332,0,.0674.0068.1006.0195.0342.0127.0508.04.0508.082v.4668c0,.042-.0166.0713-.0508.0879-.0332.0176-.0674.0254-.1006.0254l-2.1084-.0498c-.0254,0-.0371.0127-.0371.0371l.0117,2.0332c0,.0586.0215.1064.0635.1445s.0967.0566.1641.0566h.9971c.1436,0,.3203-.0078.5303-.0244.2109-.0176.417-.0381.6191-.0635.2354-.0332.4795-.0674.7314-.1016.042-.0078.0869-.0059.1328.0068s.0693.0527.0693.1201v.5049c0,.0928-.0674.1387-.2021.1387Z" fill="#1d2856"/>
    <path d="M250.7813,19.4126c0,.2529-.0566.4902-.1699.7139-.1143.2227-.2861.4141-.5176.5742s-.5195.2861-.8652.3789c-.3447.0928-.749.1387-1.2119.1387h-.7061c-.043,0-.082.0127-.1201.0381-.0381.0244-.0566.0547-.0566.0879l.0117,2.2725c0,.1006-.0625.1514-.1885.1514h-.6445c-.1172,0-.1768-.0508-.1768-.1514l.0127-2.8779-.0127-2.8789c0-.1006.0596-.1514.1768-.1514h2.1846c.2773,0,.5527.0303.8262.0889s.5176.1553.7324.29.3896.3115.5234.5303c.1348.2188.2021.4844.2021.7949ZM249.7091,19.3882c0-.4131-.1309-.7158-.3916-.9092s-.707-.29-1.3379-.29h-.6064c-.0674,0-.124.0186-.1699.0566-.0469.0371-.0693.082-.0693.1318v2.2471c0,.0342.0186.0654.0566.0947.0381.0303.0771.0449.1201.0449h.5674c.2607,0,.5029-.0195.7256-.0576.2236-.0371.417-.1094.5811-.2139.1641-.1055.292-.2461.3848-.4229s.1396-.4043.1396-.6816Z" fill="#1d2856"/>
    <path d="M257.3722,23.5913c.0332.0586.0361.1035.0068.1328-.0303.0293-.0742.0439-.1328.0439h-.8584c-.1094,0-.1855-.0459-.2275-.1387l-.2773-.6816-.3408-.8457c-.0254-.042-.0596-.0635-.1016-.0635h-2.4111c-.042,0-.0713.0215-.0879.0635l-.5557,1.5273c-.0332.0928-.1006.1387-.2021.1387h-.5547c-.0674,0-.1094-.0205-.127-.0635-.0166-.042-.0166-.0879,0-.1387l2.4873-5.7939c.0166-.042.0586-.0713.126-.0889.0674-.0166.1387-.0244.2148-.0244.0752,0,.1494.0107.2207.0312.0713.0215.1152.0488.1328.082l2.3223,5.1504c.0254.0674.0586.1387.1016.2148.042.0752.084.1475.126.2139.042.085.0879.1641.1387.2402ZM254.2169,18.8706c-.0176-.0254-.0303-.0254-.0381,0l-1.0098,2.6377c-.0176.0342-.0088.0508.0244.0508h2.0957c.0254,0,.0342-.0127.0254-.0381l-1.0977-2.6504Z" fill="#1d2856"/>
    <path d="M264.2677,23.5913c.042.042.0459.082.0127.1201-.0342.0381-.084.0566-.1514.0566h-.8457c-.0674,0-.126-.0293-.1768-.0879l-.0254-.0508-1.5654-2.2852c-.1768-.252-.3535-.3789-.5303-.3789h-.7441c-.043,0-.082.0127-.1201.0381s-.0566.0547-.0566.0889l.0117,2.5244c0,.1006-.0625.1514-.1885.1514h-.6445c-.1172,0-.1768-.0508-.1768-.1514l.0127-2.8779-.0127-2.8789c0-.042.0068-.0771.0195-.1064.0127-.0303.0518-.0449.1201-.0449h2.6758c.2441,0,.4756.0361.6943.1074s.4102.1729.5742.3027c.1641.1309.2949.2842.3916.46.0967.1768.1445.3701.1445.5801,0,.4297-.1494.793-.4473,1.0908-.2988.2988-.6846.4941-1.1553.5869-.0088,0-.0146.002-.0195.0059-.0039.0049-.002.0068.0068.0068.084.0586.2275.2188.4287.4805l1.4521,1.8828.3154.3789ZM262.6144,19.231c0-.3018-.1035-.5508-.3096-.7471-.2061-.1973-.4775-.2949-.8145-.2949h-1.1611c-.0674,0-.126.0186-.1768.0557-.0508.0381-.0762.082-.0762.1318l-.0117,1.9717c0,.0332.0186.0645.0566.0938s.0771.0439.1201.0439h.7949c.4883,0,.873-.0918,1.1553-.2764.2812-.1836.4229-.5107.4229-.9785Z" fill="#1d2856"/>
    <path d="M270.4024,18.2895c-.0088.1006-.0684.1436-.1768.126-.2275-.0166-.4512-.0381-.6699-.0625-.1846-.0176-.374-.0322-.5674-.0449-.1943-.0127-.3623-.0186-.5049-.0186-.0254,0-.0527.0146-.082.0439-.0303.0293-.0449.0654-.0449.1074v5.1758c0,.1006-.0586.1514-.1768.1514h-.6436c-.1182,0-.1768-.0508-.1768-.1514v-5.1885c0-.042-.0146-.0752-.0439-.1006s-.0566-.0381-.082-.0381c-.1436,0-.3135.0059-.5117.0186-.1973.0127-.3887.0273-.5742.0449-.2188.0244-.4375.0459-.6562.0625-.1094.0176-.168-.0254-.1768-.126l-.0381-.4414c-.0078-.0508.0107-.0869.0576-.1074.0459-.0215.0986-.0322.1572-.0322h4.7344c.0586,0,.1113.0107.1572.0322.0459.0205.0654.0566.0566.1074l-.0371.4414Z" fill="#1d2856"/>
    <path d="M278.8185,20.7261v2.8906c0,.1006-.0596.1514-.1787.1514h-.627c-.1279,0-.1914-.0508-.1914-.1514l.0127-2.8906v-1.3379c0-.0176-.0127-.0342-.0381-.0508s-.0508-.0039-.0762.0381l-2.3604,4.1279c-.0332.0498-.0752.0732-.126.0693-.0508-.0049-.0928-.0322-.126-.082l-2.2217-4.1406c-.0088-.0166-.0215-.0215-.0381-.0127-.0176.0088-.0254.0205-.0254.0381l.1133,4.2412c0,.1006-.0586.1514-.1768.1514h-.5176c-.1172,0-.1768-.0508-.1768-.1514l.127-4.1914-.0254-1.5654c0-.1006.0586-.1514.1768-.1514h.6436c.042,0,.082.0068.1201.0195s.0645.04.082.082l2.1582,4.2285c.0166.0254.04.0381.0693.0381s.0527-.0127.0693-.0381l2.2852-4.1533c.0254-.042.0576-.082.0957-.1201.0381-.0371.0918-.0566.1602-.0566h.6133c.0762,0,.127.0195.1533.0566.0254.0381.0381.083.0381.1328l-.0127,2.8281Z" fill="#1d2856"/>
    <path d="M285.2052,23.7681h-3.9355c-.1201,0-.1797-.0508-.1797-.1514l.0127-2.8779-.0127-2.8789c0-.1006.0596-.1514.1797-.1514h3.8096c.0586,0,.1094.0107.1514.0322.042.0205.0635.0566.0635.1074v.4668c0,.0498-.0215.0859-.0635.1074-.042.0205-.0928.0273-.1514.0186-.2275-.0254-.4502-.0508-.6689-.0762-.1855-.0166-.377-.0332-.5742-.0498-.1982-.0166-.3682-.0254-.5117-.0254h-.9971c-.0674,0-.1221.0186-.1641.0566s-.0635.082-.0635.1328l-.0117,1.8174c0,.0254.0117.0381.0371.0381l2.1084-.0508c.0332,0,.0674.0068.1006.0195.0342.0127.0508.04.0508.082v.4668c0,.042-.0166.0713-.0508.0879-.0332.0176-.0674.0254-.1006.0254l-2.1084-.0498c-.0254,0-.0371.0127-.0371.0371l.0117,2.0332c0,.0586.0215.1064.0635.1445s.0967.0566.1641.0566h.9971c.1436,0,.3203-.0078.5303-.0244.2109-.0176.417-.0381.6191-.0635.2354-.0332.4795-.0674.7314-.1016.042-.0078.0869-.0059.1328.0068s.0693.0527.0693.1201v.5049c0,.0928-.0674.1387-.2021.1387Z" fill="#1d2856"/>
    <path d="M292.1993,22.1392l.0127,1.6035c0,.0508-.0146.0889-.0439.1133-.0303.0254-.0635.043-.1016.0508-.0371.0088-.0732.0068-.1074-.0059-.0332-.0127-.0586-.0273-.0752-.0449l-3.9131-4.6201c-.0176-.0166-.0322-.0225-.0449-.0186s-.0186.0107-.0186.0186l.1387,4.3428c0,.042-.0107.084-.0312.126-.0215.043-.0654.0635-.1328.0635h-.5684c-.0674,0-.1094-.0205-.126-.0635-.0166-.042-.0254-.084-.0254-.126l.127-4.2412-.0254-1.4775c0-.1006.0625-.1514.1895-.1514h.2773c.042,0,.084.0088.126.0254.042.0176.0762.042.1016.0762l3.459,4.0898c.0332.042.0645.0527.0947.0312.0293-.0205.0439-.04.0439-.0566l-.1143-3.9766c0-.042.0088-.084.0254-.126s.0586-.0635.127-.0635h.5293c.0674,0,.1094.0215.127.0635.0166.042.0254.084.0254.126l-.0762,4.2412Z" fill="#1d2856"/>
    <path d="M299.0812,18.2895c-.0088.1006-.0684.1436-.1768.126-.2275-.0166-.4512-.0381-.6699-.0625-.1846-.0176-.374-.0322-.5674-.0449-.1943-.0127-.3623-.0186-.5049-.0186-.0254,0-.0527.0146-.082.0439-.0303.0293-.0449.0654-.0449.1074v5.1758c0,.1006-.0586.1514-.1768.1514h-.6436c-.1182,0-.1768-.0508-.1768-.1514v-5.1885c0-.042-.0146-.0752-.0439-.1006s-.0566-.0381-.082-.0381c-.1436,0-.3135.0059-.5117.0186-.1973.0127-.3887.0273-.5742.0449-.2188.0244-.4375.0459-.6562.0625-.1094.0176-.168-.0254-.1768-.126l-.0381-.4414c-.0078-.0508.0107-.0869.0576-.1074.0459-.0215.0986-.0322.1572-.0322h4.7344c.0586,0,.1113.0107.1572.0322.0459.0205.0654.0566.0566.1074l-.0371.4414Z" fill="#1d2856"/>
  </g>
  <g>
    <path d="M15.9269,4.1645c.8297.1274,1.947.5428,2.426.6065.1595,0,.4786.2233.4786.9577,0,.6702.1595,2.0744.2233,2.7766.0321.6703-.2233,1.053-.4787,1.053-.1595,0-.3511-.3507-.5107-.8297-.2875-1.1172-.8939-2.0744-1.3088-2.3939-1.7553-1.3083-3.3832-1.6595-5.1068-1.6595-5.1384,0-8.4263,4.245-8.4263,9.0644,0,2.1385.4154,3.8622,1.1172,5.2668,1.7874,3.6701,5.4901,5.1068,8.0751,5.1068.6065,0,2.1706-.0963,3.4794-.8618,1.4041-.7344,2.2022-1.7558,2.9683-3.0962.4149-.6703.5423-.8297.6703-.8297.319,0,.3511.7022.2869,1.0534-.0958.7977-.8297,2.4892-1.2767,3.2237-.1274.287-.6702.6702-.9892.8297-.5107.2237-3.0962.8939-5.8092.8939-4.5003,0-7.7876-2.2343-9.0643-3.7343-1.213-1.4046-2.6813-3.7032-2.6813-7.3416s2.1706-6.5431,3.511-7.6602c2.745-2.2339,5.7133-2.9362,8.6495-2.9362,1.1172,0,2.5534.2232,3.7664.5107Z" fill="#1d2856"/>
    <path d="M33.5097,4.2282c.1911.0637.3827.5428.3827.6066.0638.6065.3191,2.4575.3191,2.5855,0,.5423,0,.8618-.2232.8618-.2554,0-.6382-.2238-.766-.6707-.3828-1.1488-1.2446-2.1064-1.5642-2.298-.5744-.4465-1.3404-.734-2.2659-.734-2.1385,0-3.6706,1.5958-3.6706,3.7343,0,2.2659,1.6279,3.2557,4.4367,5.1389,2.4575,1.6595,4.4045,3.3195,4.4045,6.1918,0,1.5963-.8934,3.3832-2.6171,4.5009-1.0214.6703-2.9046,1.1488-4.3408,1.1488-1.0214,0-3.1921-.3512-4.1813-.8297-.3191-.1917-.734-.8939-.734-1.0214-.1595-1.0855-.4791-2.4901-.4791-3.0009,0-.1274.3196-.606.447-.606.2554,0,.734.8297,1.1809,1.819.8302,1.7558,2.9367,2.5534,4.1492,2.5534,2.2027,0,3.8622-1.5641,3.8622-3.8617,0-1.3404-.6382-2.7771-3.9897-4.9151-2.7129-1.7559-4.6283-3.6069-4.6283-6.3198,0-1.5005.6703-2.9367,1.7558-3.8939.9893-.8939,2.4892-1.5641,4.7237-1.5641,1.5641,0,3.2236.4786,3.7985.5744Z" fill="#1d2856"/>
    <path d="M40.3364,7.356c-.0959-1.4679-.0959-1.947-1.8833-2.266-.7023-.1279-.8934-.3512-.8934-.5744,0-.2554.3512-.3833.7977-.3833.8302,0,2.426.0958,3.4789.0958,1.5642,0,2.2985-.0958,3.4152-.0958.5107,0,.7981.1279.7981.3833s-.3191.4465-.8297.5423c-1.8516.3833-1.8195,1.1814-1.947,2.0427-.1595,1.0534-.1916,3.1283-.1916,9.3844,0,1.7548.0321,3.7343.0958,4.7557.0958,1.7227.2554,2.3297,2.3297,2.7441.5748.0963.8302.3199.8302.5428,0,.2559-.4791.4154-.8618.4154-1.6279,0-3.8939-.1916-4.7557-.1916-.9576,0-1.245.0642-2.4259.0642-.6066,0-.8297-.2238-.8297-.4474,0-.2228.3191-.4144.9576-.5429,1.5958-.3502,1.7232-.8297,1.8511-2.3296.0959-1.1167.1596-4.4367.1596-7.1496,0-1.9786-.0321-5.9366-.0958-6.99Z" fill="#1d2856"/>
    <path d="M59.9948,4.2282c.1911.0637.3828.5428.3828.6066.0637.6065.319,2.4575.319,2.5855,0,.5423,0,.8618-.2232.8618-.2554,0-.6386-.2238-.766-.6707-.3833-1.1488-1.2446-2.1064-1.5642-2.298-.5744-.4465-1.3404-.734-2.2659-.734-2.1385,0-3.6706,1.5958-3.6706,3.7343,0,2.2659,1.6279,3.2557,4.4367,5.1389,2.4575,1.6595,4.4045,3.3195,4.4045,6.1918,0,1.5963-.8934,3.3832-2.6171,4.5009-1.0214.6703-2.9046,1.1488-4.3408,1.1488-1.0214,0-3.1916-.3512-4.1813-.8297-.3191-.1917-.734-.8939-.734-1.0214-.1595-1.0855-.4791-2.4901-.4791-3.0009,0-.1274.3196-.606.447-.606.2554,0,.7344.8297,1.1809,1.819.8297,1.7558,2.9367,2.5534,4.1497,2.5534,2.2022,0,3.8617-1.5641,3.8617-3.8617,0-1.3404-.6382-2.7771-3.9897-4.9151-2.7129-1.7559-4.6283-3.6069-4.6283-6.3198,0-1.5005.6707-2.9367,1.7558-3.8939.9893-.8939,2.4897-1.5641,4.7237-1.5641,1.5641,0,3.2236.4786,3.7985.5744Z" fill="#1d2856"/>
  </g>
  <path d="M72.6566,28.4957V.4838c0-.2672.2147-.4838.4833-.4838h0c.2667,0,.4819.2166.4819.4838h0v28.0139c0,.2652-.2171.4823-.4838.4823h0c-.2667,0-.4838-.2171-.4814-.4843h0Z" fill="#1d2856"/>
  <g>
    <path d="M88.1588,11.5816c-1.5061,0-2.8512-.8646-2.8512-3.3209,0-1.9969,1.2384-3.2142,2.8295-3.2142h1.837c.0854,0,.1279.0213.1279.1067l-.0745.6301c-.0109.0854-.0746.1284-.16.1066-.5447-.1812-.801-.2988-1.7407-.2988-.9506,0-1.474.9185-1.474,2.6804,0,2.0927.833,2.7337,1.826,2.7337.4489,0,.9827-.3096,1.3456-.641.0321-.0213.0746-.0424.1067-.0103l.2671.2987c.0321.0322.0321.0643,0,.0964-.4701.5338-1.2281.8325-2.0394.8325Z" fill="#1d2856"/>
    <path d="M95.8459,11.4538h-3.9835c-.0958,0-.1387-.043-.1387-.128l.0108-3.0754-.0108-3.0754c0-.0859.0429-.1285.1387-.1285h3.866c.0854,0,.1601.0213.1601.1067v.5022c0,.0854-.0746.1067-.1601.0958,0,0-1.1426-.16-1.6873-.16h-.8543c-.1387,0-.2562.1067-.2562.2454l-.0108,1.9437c0,.0424.0321.0745.075.0745l1.9219-.0534c.0534,0,.1066.0213.1066.0751v.5017c0,.0534-.0533.0746-.1066.0746l-1.9219-.0534c-.0429,0-.075.0321-.075.075l.0108,2.1782c0,.1388.1175.2563.2562.2563h.8543c.5447,0,1.8049-.203,1.8049-.203.085-.0103.16.0109.16.0963v.5447c0,.0854-.075.1067-.16.1067Z" fill="#1d2856"/>
    <path d="M102.5353,9.7452v1.7194c0,.1709-.5447.16-.5871.0958l-3.4172-4.6769c-.0533-.0642-.1284-.0321-.1284.0317l.1284,4.3677c.0104.0963-.0108.1709-.1071.1709h-.758c-.0963,0-.1175-.0746-.1175-.1709l.1175-4.5277-.0213-1.5801c0-.0859.0425-.1285.1388-.1285h.598c.0745,0,.1495.0321.1816.0854l3.0113,4.1114c.0745.0959.1921.0534.1921-.0429l-.0854-3.983c0-.0963.0213-.1709.1067-.1709h.7051c.0855,0,.1066.0746.1066.1709l-.0642,4.5277Z" fill="#1d2856"/>
    <path d="M109.1331,5.6233c-.0103.0854-.0538.1067-.1388.0958,0,0-1.0893-.1279-1.6235-.1279-.0746,0-.1492.0854-.1492.1922l-.0104,2.467.0104,3.0754c0,.085-.0425.128-.1388.128h-.9401c-.0964,0-.1378-.043-.1378-.128l.0094-3.0754-.0094-2.467c0-.1067-.0755-.1922-.1501-.1922-.5334,0-1.6231.1279-1.6231.1279-.0854.0109-.1284-.0103-.1388-.0958l-.0321-.4701c-.0108-.0854.0855-.1067.1709-.1067h4.7627c.085,0,.1812.0213.1709.1067l-.0321.4701Z" fill="#1d2856"/>
    <path d="M114.7535,11.4538h-3.9835c-.0963,0-.1388-.043-.1388-.128l.0104-3.0754-.0104-3.0754c0-.0859.0425-.1285.1388-.1285h3.8655c.0859,0,.1605.0213.1605.1067v.5022c0,.0854-.0745.1067-.1605.0958,0,0-1.1422-.16-1.6868-.16h-.8543c-.1388,0-.2567.1067-.2567.2454l-.0104,1.9437c0,.0424.0321.0745.0746.0745l1.9228-.0534c.0529,0,.1067.0213.1067.0751v.5017c0,.0534-.0538.0746-.1067.0746l-1.9228-.0534c-.0425,0-.0746.0321-.0746.075l.0104,2.1782c0,.1388.1179.2563.2567.2563h.8543c.5446,0,1.8049-.203,1.8049-.203.0849-.0103.1595.0109.1595.0963v.5447c0,.0854-.0746.1067-.1595.1067Z" fill="#1d2856"/>
    <path d="M121.5066,11.4538h-1.1857c-.0963,0-.1284-.0642-.1812-.128l-1.3347-2.4457c-.1491-.288-.3418-.4271-.5447-.4271h-.3955c-.0953,0-.203.075-.203.1708l.0114,2.7021c0,.085-.0425.128-.1388.128h-.9401c-.0964,0-.1388-.043-.1388-.128l.0103-3.0754-.0103-3.0754c0-.0859.0103-.1285.0963-.1285h2.7875c.9393,0,1.6973.641,1.6973,1.5165,0,.8864-.6297,1.559-1.516,1.7618-.0642.0104-.0642.0534-.0217.0854.0859.0642.1926.203.3955.5018l1.4093,2.0078.2993.4059c.0529.0746-.0113.128-.0963.128ZM118.6444,5.4737h-.6937c-.1388,0-.2775.1067-.2775.2454l-.0114,2.1254c0,.0958.1077.1921.203.1921h.3634c.9506,0,1.5273-.3738,1.5273-1.399,0-.6726-.4484-1.1639-1.1111-1.1639Z" fill="#1d2856"/>
    <path d="M130.1437,5.7512s-1.3026-.16-1.6868-.16h-.7476c-.1388,0-.2567.1067-.2567.2454l-.0104,1.9327c0,.043.0321.0751.0746.0751l1.8265-.0534c.0529,0,.1067.0213.1067.0745v.5018c0,.0538-.0538.075-.1067.075l-1.8265-.0533c-.0425,0-.0746.0321-.0746.0745l.0217,2.8621c0,.085-.0425.128-.1388.128h-.9401c-.0963,0-.1388-.043-.1388-.128l.0103-3.0754-.0103-3.0754c0-.0859.0425-.1285.1388-.1285h3.7588c.0859,0,.1605.0213.1605.1067v.5022c0,.0854-.0745.1067-.1605.0958Z" fill="#1d2856"/>
    <path d="M134.0914,11.6458c-2.1569,0-2.7762-1.6019-2.7762-3.353,0-1.6977.6835-3.4171,2.8083-3.4171,2.1673,0,2.7875,1.6019,2.7875,3.3529,0,1.6982-.6834,3.4172-2.8196,3.4172ZM134.0706,5.335c-1.2923,0-1.4631,1.5485-1.4631,2.787,0,1.196.0745,3.0646,1.548,3.0646,1.2819,0,1.4632-1.559,1.4632-2.787,0-1.196-.0746-3.0646-1.5481-3.0646Z" fill="#1d2856"/>
    <path d="M143.733,11.4538h-1.1856c-.0963,0-.1284-.0642-.1812-.128l-1.3348-2.4457c-.1491-.288-.3417-.4271-.5447-.4271h-.3955c-.0953,0-.2029.075-.2029.1708l.0113,2.7021c0,.085-.0424.128-.1387.128h-.9402c-.0963,0-.1388-.043-.1388-.128l.0104-3.0754-.0104-3.0754c0-.0859.0104-.1285.0963-.1285h2.7875c.9393,0,1.6973.641,1.6973,1.5165,0,.8864-.6297,1.559-1.516,1.7618-.0642.0104-.0642.0534-.0216.0854.0858.0642.1925.203.3955.5018l1.4093,2.0078.2992.4059c.0529.0746-.0113.128-.0963.128ZM140.8709,5.4737h-.6938c-.1387,0-.2775.1067-.2775.2454l-.0113,2.1254c0,.0958.1076.1921.2029.1921h.3634c.9506,0,1.5273-.3738,1.5273-1.399,0-.6726-.4484-1.1639-1.111-1.1639Z" fill="#1d2856"/>
    <path d="M150.4805,11.5816c-.993,0-1.6661-.2242-2.1891-.4375-.0745-.0322-.0858-.1175-.0642-.1817l.1926-.7156c.0207-.0854.1171-.0854.1812-.0103.438.4592,1.1535.8222,1.9644.8222.5881,0,1.2498-.4484,1.2498-1.0785,0-1.6764-3.5776-.9827-3.5776-3.3958,0-1.0573.7372-1.6978,1.9332-1.6978.9609,0,1.7189.16,2.2107.1921.0745,0,.0953.0746.0745.1388l-.15.7155c-.0104.0746-.0963.0963-.1709.0534-.437-.2562-1.0034-.5979-1.9757-.5979-.4692,0-.9393.3096-.9393.8221,0,1.7086,3.588.9077,3.588,3.5455,0,1.3027-.993,1.8256-2.3278,1.8256Z" fill="#1d2856"/>
    <path d="M159.0488,5.6233c-.0104.0854-.0529.1067-.1388.0958,0,0-1.0894-.1279-1.6227-.1279-.0746,0-.1501.0854-.1501.1922l-.0103,2.467.0103,3.0754c0,.085-.0424.128-.1387.128h-.9393c-.0963,0-.1388-.043-.1388-.128l.0104-3.0754-.0104-2.467c0-.1067-.0745-.1922-.15-.1922-.5334,0-1.6228.1279-1.6228.1279-.0858.0109-.1284-.0103-.1387-.0958l-.0321-.4701c-.0104-.0854.085-.1067.1708-.1067h4.7623c.0859,0,.1822.0213.1709.1067l-.0321.4701Z" fill="#1d2856"/>
    <path d="M165.5989,11.4538h-1.1856c-.0964,0-.1285-.0642-.1812-.128l-1.3348-2.4457c-.1491-.288-.3417-.4271-.5447-.4271h-.3955c-.0953,0-.2029.075-.2029.1708l.0113,2.7021c0,.085-.0424.128-.1388.128h-.9401c-.0963,0-.1388-.043-.1388-.128l.0104-3.0754-.0104-3.0754c0-.0859.0104-.1285.0963-.1285h2.7875c.9393,0,1.6973.641,1.6973,1.5165,0,.8864-.6297,1.559-1.516,1.7618-.0642.0104-.0642.0534-.0217.0854.0858.0642.1925.203.3955.5018l1.4093,2.0078.2992.4059c.0529.0746-.0113.128-.0963.128ZM162.7369,5.4737h-.6938c-.1387,0-.2775.1067-.2775.2454l-.0113,2.1254c0,.0958.1076.1921.2029.1921h.3634c.9506,0,1.5273-.3738,1.5273-1.399,0-.6726-.4484-1.1639-1.111-1.1639Z" fill="#1d2856"/>
    <path d="M172.6352,11.4538h-1.1422c-.0963,0-.1605-.043-.1925-.128,0,0-.1606-.4592-.2559-.7263l-.3417-.9077c-.0113-.0534-.0755-.0854-.1284-.0854h-1.9861c-.0642,0-.1067.0321-.1284.0854l-.5229,1.6444c-.0321.0854-.0756.1175-.1709.1175h-.7476c-.0963,0-.118-.0746-.0859-.1601l2.392-6.2046c.0425-.1388.758-.1388.8119,0l2.2314,5.5212c.1067.2667.3531.7155.3531.7155.0424.085.0103.128-.0859.128ZM169.6022,6.6806c-.0208-.0538-.085-.0538-.1066,0l-.8222,2.3702c-.0104.0538.0217.1072.0745.1072h1.6878c.0529,0,.085-.0534.0642-.1072l-.8977-2.3702Z" fill="#1d2856"/>
    <path d="M178.0148,5.6233c-.0103.0854-.0528.1067-.1387.0958,0,0-1.0894-.1279-1.6227-.1279-.0746,0-.1501.0854-.1501.1922l-.0103,2.467.0103,3.0754c0,.085-.0424.128-.1387.128h-.9393c-.0963,0-.1388-.043-.1388-.128l.0104-3.0754-.0104-2.467c0-.1067-.0745-.1922-.1501-.1922-.5333,0-1.6227.1279-1.6227.1279-.0858.0109-.1284-.0103-.1387-.0958l-.0321-.4701c-.0104-.0854.085-.1067.1708-.1067h4.7623c.0859,0,.1822.0213.1708.1067l-.0321.4701Z" fill="#1d2856"/>
    <path d="M183.6371,11.4538h-3.9835c-.0964,0-.1388-.043-.1388-.128l.0103-3.0754-.0103-3.0754c0-.0859.0424-.1285.1388-.1285h3.8655c.0858,0,.1605.0213.1605.1067v.5022c0,.0854-.0746.1067-.1605.0958,0,0-1.1422-.16-1.6868-.16h-.8543c-.1388,0-.2567.1067-.2567.2454l-.0104,1.9437c0,.0424.0321.0745.0746.0745l1.9228-.0534c.0529,0,.1067.0213.1067.0751v.5017c0,.0534-.0538.0746-.1067.0746l-1.9228-.0534c-.0425,0-.0746.0321-.0746.075l.0104,2.1782c0,.1388.1179.2563.2567.2563h.8543c.5446,0,1.8049-.203,1.8049-.203.0849-.0103.1595.0109.1595.0963v.5447c0,.0854-.0746.1067-.1595.1067Z" fill="#1d2856"/>
    <path d="M190.0087,11.4859c-.1179,0-.4059-.2884-.4059-.2884-.0642-.0424-.1387-.0212-.1925.0109-.4049.2133-.993.3841-1.6444.3841-1.5056,0-2.8507-.8651-2.8507-3.3208,0-1.9969,1.2385-3.2251,2.8301-3.2251h1.836c.0858,0,.1284.0213.1284.1067l-.0746.6301c-.0103.0854-.0745.1284-.1605.1066-.5447-.1812-.8005-.2988-1.7407-.2988-.9496,0-1.4943.9185-1.4943,2.6804,0,2.0927.8543,2.755,1.8474,2.755.352,0,.9817-.3205.9817-.6835,0-.0854-.1067-1.7618-.1067-1.7618,0,0-.0207-.2243-.0207-.2563,0-.0854.0642-.1495.1387-.1495h1.0138c.0435,0,.0859.0321.0859.075v3.0858c0,.0854-.0963.1496-.1709.1496Z" fill="#1d2856"/>
    <path d="M193.104,11.4538h-.9402c-.0963,0-.1387-.043-.1387-.128l.0103-3.0754-.0103-3.0754c0-.0859.0424-.1285.1387-.1285h.9402c.0963,0,.1388.0425.1388.1285l-.0114,3.0754.0114,3.0754c0,.085-.0425.128-.1388.128Z" fill="#1d2856"/>
    <path d="M197.8484,11.5816c-1.5056,0-2.8507-.8646-2.8507-3.3209,0-1.9969,1.2384-3.2142,2.83-3.2142h1.836c.0859,0,.1284.0213.1284.1067l-.0745.6301c-.0103.0854-.0746.1284-.1605.1066-.5447-.1812-.8004-.2988-1.7407-.2988-.9496,0-1.4735.9185-1.4735,2.6804,0,2.0927.8335,2.7337,1.8265,2.7337.4484,0,.9818-.3096,1.3451-.641.0321-.0213.0746-.0424.1067-.0103l.2672.2987c.0321.0322.0321.0643,0,.0964-.4702.5338-1.2282.8325-2.0399.8325Z" fill="#1d2856"/>
    <path d="M208.2593,8.8909l-.7788-.0108v2.4562c0,.0642-.0642.1175-.1284.1175h-2.4023c-1.1752,0-1.6982-.7477-1.6982-1.4844,0-.6405.523-1.2923,1.2282-1.4522-.5126-.2243-.7693-.6835-.7693-1.1748,0-.918.6409-1.3347,1.6122-1.3347h.9185c.0963,0,.1605.0321.1501.1175l-.0434.4059c-.0104.0958-.0529.1279-.1388.0958,0,0-.3417-.2346-.6079-.2346-.5239,0-.8222.2667-.8335.9718,0,.598.3417,1.0573.9506,1.0573h.7476v-.6835c0-.0858.0538-.1284.1388-.1175l.7476.0854c.0642,0,.1284.0425.1284.1067v.6089h.7477c.0953,0,.1171.0424.1171.1066v.2562c0,.0638,0,.1067-.0859.1067ZM206.4658,8.8801l-1.0148-.0104c-.6296,0-1.0138.5229-1.0138,1.0355-.0113.598.3625,1.1639.9175,1.1639.5126,0,.7911-.0316,1.111-.1171v-2.0719Z" fill="#1d2856"/>
    <path d="M86.5994,23.9116h-.9397c-.0958,0-.1387-.0424-.1387-.1284l.0108-3.0754-.0108-3.0754c0-.085.0429-.1285.1387-.1285h.9397c.0963,0,.1392.0435.1392.1285l-.0108,3.0754.0108,3.0754c0,.0859-.0429.1284-.1392.1284Z" fill="#1d2856"/>
    <path d="M93.7055,22.2031v1.7189c0,.1708-.5447.1605-.5872.0963l-3.4171-4.6774c-.0534-.0642-.1284-.0321-.1284.0321l.1284,4.3677c.0103.0963-.0109.1708-.1072.1708h-.7579c-.0964,0-.1175-.0745-.1175-.1708l.1175-4.5282-.0213-1.5801c0-.085.0424-.1285.1387-.1285h.598c.0745,0,.1496.0321.1817.0859l3.0112,4.1109c.0746.0963.1921.0538.1921-.0424l-.0853-3.9826c0-.0963.0212-.1719.1066-.1719h.7051c.0854,0,.1067.0756.1067.1719l-.0642,4.5272Z" fill="#1d2856"/>
    <path d="M100.3037,18.0808c-.0108.0859-.0533.1067-.1387.0963,0,0-1.0894-.1284-1.6231-.1284-.0751,0-.1496.0859-.1496.1925l-.0108,2.4666.0108,3.0754c0,.0859-.0429.1284-.1388.1284h-.9396c-.0963,0-.1388-.0424-.1388-.1284l.0104-3.0754-.0104-2.4666c0-.1066-.075-.1925-.1496-.1925-.5338,0-1.6231.1284-1.6231.1284-.0854.0104-.1284-.0103-.1387-.0963l-.0321-.4691c-.0109-.0859.0854-.1077.1708-.1077h4.7628c.0854,0,.1812.0217.1708.1077l-.0321.4691Z" fill="#1d2856"/>
    <path d="M105.9236,23.9116h-3.983c-.0958,0-.1388-.0424-.1388-.1284l.0109-3.0754-.0109-3.0754c0-.085.043-.1285.1388-.1285h3.866c.085,0,.1605.0217.1605.1077v.5012c0,.0859-.0755.1067-.1605.0963,0,0-1.1426-.1605-1.6873-.1605h-.8543c-.1388,0-.2562.1076-.2562.2464l-.0109,1.9427c0,.0434.0321.0755.0751.0755l1.9219-.0538c.0528,0,.1066.0217.1066.0746v.5022c0,.0538-.0538.0746-.1066.0746l-1.9219-.0529c-.043,0-.0751.0321-.0751.0745l.0109,2.1787c0,.1388.1174.2559.2562.2559h.8543c.5447,0,1.8044-.203,1.8044-.203.0859-.0103.1605.0104.1605.0963v.5447c0,.085-.0745.1066-.1605.1066Z" fill="#1d2856"/>
    <path d="M112.6777,23.9116h-1.1857c-.0963,0-.1274-.0642-.1812-.1284l-1.3347-2.4449c-.1501-.2888-.3417-.4275-.5447-.4275h-.3955c-.0953,0-.2029.0745-.2029.1708l.0113,2.7016c0,.0859-.0434.1284-.1388.1284h-.9401c-.0963,0-.1388-.0424-.1388-.1284l.0104-3.0754-.0104-3.0754c0-.085.0104-.1285.0963-.1285h2.7866c.9402,0,1.6982.641,1.6982,1.517,0,.8864-.6297,1.5585-1.516,1.7614-.0642.0114-.0642.0538-.0217.0859.0859.0642.1926.203.3955.5022l1.4093,2.0069.2993.4059c.0529.0746-.0113.1284-.0963.1284ZM109.8156,17.9316h-.6938c-.1388,0-.2775.1067-.2775.2454l-.0113,2.1249c0,.0963.1076.1925.2029.1925h.3634c.9506,0,1.5273-.3738,1.5273-1.399,0-.6731-.4484-1.1639-1.111-1.1639Z" fill="#1d2856"/>
    <path d="M119.2854,22.2031v1.7189c0,.1708-.5446.1605-.5871.0963l-3.4171-4.6774c-.0538-.0642-.1285-.0321-.1285.0321l.1285,4.3677c.0103.0963-.0104.1708-.1067.1708h-.758c-.0963,0-.1179-.0745-.1179-.1708l.1179-4.5282-.0217-1.5801c0-.085.0424-.1285.1387-.1285h.5976c.0755,0,.1501.0321.1822.0859l3.0112,4.1109c.0745.0963.1925.0538.1925-.0424l-.0859-3.9826c0-.0963.0217-.1719.1067-.1719h.7051c.085,0,.1066.0756.1066.1719l-.0642,4.5272Z" fill="#1d2856"/>
    <path d="M126.4935,23.9116h-1.1422c-.0963,0-.1605-.0424-.1925-.1284,0,0-.1605-.4588-.2558-.7258l-.3418-.9081c-.0113-.0529-.0755-.085-.1284-.085h-1.9861c-.0642,0-.1066.0321-.1284.085l-.5229,1.6454c-.0321.0849-.0755.117-.1708.117h-.7477c-.0963,0-.118-.0745-.0858-.1605l2.392-6.2036c.0434-.1388.7579-.1388.8118,0l2.2315,5.5202c.1066.2672.353.7155.353.7155.0425.0859.0104.1284-.0858.1284ZM123.4606,19.1381c-.0208-.0529-.085-.0529-.1067,0l-.8222,2.3712c-.0103.0529.0218.1066.0746.1066h1.6878c.0529,0,.085-.0537.0642-.1066l-.8977-2.3712Z" fill="#1d2856"/>
    <path d="M131.8731,18.0808c-.0103.0859-.0529.1067-.1388.0963,0,0-1.0893-.1284-1.6227-.1284-.0745,0-.15.0859-.15.1925l-.0104,2.4666.0104,3.0754c0,.0859-.0425.1284-.1388.1284h-.9393c-.0963,0-.1387-.0424-.1387-.1284l.0103-3.0754-.0103-2.4666c0-.1066-.0746-.1925-.1501-.1925-.5334,0-1.6227.1284-1.6227.1284-.0859.0104-.1284-.0103-.1388-.0963l-.0321-.4691c-.0103-.0859.085-.1077.1709-.1077h4.7622c.0859,0,.1822.0217.1709.1077l-.0321.4691Z" fill="#1d2856"/>
    <path d="M134.452,23.9116h-.9402c-.0963,0-.1387-.0424-.1387-.1284l.0103-3.0754-.0103-3.0754c0-.085.0424-.1285.1387-.1285h.9402c.0963,0,.1387.0435.1387.1285l-.0113,3.0754.0113,3.0754c0,.0859-.0424.1284-.1387.1284Z" fill="#1d2856"/>
    <path d="M139.1378,24.1042c-2.1569,0-2.7762-1.602-2.7762-3.353,0-1.6981.6835-3.4171,2.8083-3.4171,2.1673,0,2.7875,1.6009,2.7875,3.3529,0,1.6973-.6834,3.4172-2.8196,3.4172ZM139.117,17.7929c-1.2923,0-1.4631,1.548-1.4631,2.7866,0,1.197.0745,3.065,1.548,3.065,1.2819,0,1.4632-1.5585,1.4632-2.7866,0-1.196-.0746-3.065-1.5481-3.065Z" fill="#1d2856"/>
    <path d="M148.6803,22.2031v1.7189c0,.1708-.5447.1605-.5871.0963l-3.4172-4.6774c-.0538-.0642-.1284-.0321-.1284.0321l.1284,4.3677c.0104.0963-.0103.1708-.1066.1708h-.758c-.0963,0-.118-.0745-.118-.1708l.118-4.5282-.0217-1.5801c0-.085.0425-.1285.1388-.1285h.5975c.0756,0,.1501.0321.1822.0859l3.0112,4.1109c.0746.0963.1926.0538.1926-.0424l-.0859-3.9826c0-.0963.0218-.1719.1067-.1719h.705c.085,0,.1067.0756.1067.1719l-.0642,4.5272Z" fill="#1d2856"/>
    <path d="M155.8884,23.9116h-1.1422c-.0963,0-.1605-.0424-.1925-.1284,0,0-.1606-.4588-.2559-.7258l-.3417-.9081c-.0113-.0529-.0755-.085-.1284-.085h-1.9861c-.0642,0-.1067.0321-.1284.085l-.5229,1.6454c-.0321.0849-.0756.117-.1709.117h-.7476c-.0963,0-.118-.0745-.0859-.1605l2.392-6.2036c.0434-.1388.758-.1388.8119,0l2.2315,5.5202c.1066.2672.353.7155.353.7155.0424.0859.0103.1284-.0859.1284ZM152.8554,19.1381c-.0208-.0529-.085-.0529-.1066,0l-.8222,2.3712c-.0104.0529.0217.1066.0745.1066h1.6878c.0529,0,.085-.0537.0642-.1066l-.8977-2.3712Z" fill="#1d2856"/>
    <path d="M161.2841,23.9116h-3.6947c-.0963,0-.1388-.0424-.1388-.1284l.0104-3.0754-.0104-3.0754c0-.085.0425-.1285.1388-.1285h.9401c.0954,0,.1388.0435.1388.1285l-.0113,3.0754.0113,2.4033c0,.1388.1171.2559.2558.2559h.7477c.5342,0,1.6123-.203,1.6123-.203.0858-.0103.1605.0104.1605.0963v.5447c0,.085-.0746.1066-.1605.1066Z" fill="#1d2856"/>
    <path d="M168.0966,24.0401c-.993,0-1.6661-.2247-2.189-.4381-.0746-.0321-.0859-.1171-.0643-.1812l.1926-.7155c.0208-.0859.1171-.0859.1812-.0113.438.4597,1.1535.8222,1.9644.8222.5881,0,1.2498-.4484,1.2498-1.0781,0-1.6764-3.5776-.9827-3.5776-3.3954,0-1.0572.7372-1.6981,1.9332-1.6981.9609,0,1.7189.1595,2.2108.1916.0745,0,.0953.0756.0745.1398l-.15.7145c-.0104.0756-.0963.0963-.1709.0538-.437-.2567-1.0034-.5984-1.9757-.5984-.4692,0-.9393.3105-.9393.8231,0,1.7086,3.588.9072,3.588,3.5446,0,1.3027-.993,1.8266-2.3278,1.8266Z" fill="#1d2856"/>
    <path d="M176.665,18.0808c-.0104.0859-.0529.1067-.1388.0963,0,0-1.0893-.1284-1.6227-.1284-.0746,0-.1501.0859-.1501.1925l-.0103,2.4666.0103,3.0754c0,.0859-.0424.1284-.1387.1284h-.9393c-.0963,0-.1388-.0424-.1388-.1284l.0104-3.0754-.0104-2.4666c0-.1066-.0745-.1925-.15-.1925-.5334,0-1.6228.1284-1.6228.1284-.0858.0104-.1284-.0103-.1387-.0963l-.0321-.4691c-.0104-.0859.085-.1077.1708-.1077h4.7623c.0859,0,.1822.0217.1709.1077l-.0321.4691Z" fill="#1d2856"/>
    <path d="M183.0481,18.4339l-.085,3.5662c-.0321,1.3565-.7798,2.0824-2.2533,2.0824-1.634,0-2.4986-.7155-2.5204-2.0824l-.0424-3.6522-.0104-.7155c0-.085.0425-.1285.1388-.1285h.9714c.0963,0,.1387.0435.1387.1285l-.0217.7155v3.5776c0,1.0148.6409,1.5698,1.3885,1.5698.6305,0,1.3564-.4059,1.3451-1.4632l-.0425-3.5662c0-.3314-.0424-.7901-.0424-.7901-.0104-.0963.0103-.1719.1066-.1719h.8439c.0963,0,.1171.0756.1171.1719,0,0-.0321.4267-.0321.758Z" fill="#1d2856"/>
    <path d="M187.1505,23.9541c-1.1214,0-1.2923-.085-1.5056-.085-.2775,0-.2567.0529-.5022.0529-.0642,0-.1388-.0104-.1388-.1067l.0104-3.1075-.0104-3.0754c0-.085.0425-.1285.1388-.1285h2.2749c1.3772,0,2.6478,1.0252,2.6478,3.0868,0,1.7407-1.0354,3.3633-2.9149,3.3633ZM187.108,17.9534h-.7051c-.1284,0-.1925.0953-.1925.2341l-.0104,2.5317.0104,2.2212c.0113.4049.2888.5333.7693.5333,1.5159,0,1.7727-1.8256,1.7727-2.9574,0-1.9654-.8542-2.5629-1.6443-2.5629Z" fill="#1d2856"/>
    <path d="M192.8804,23.9116h-.9402c-.0963,0-.1388-.0424-.1388-.1284l.0104-3.0754-.0104-3.0754c0-.085.0425-.1285.1388-.1285h.9402c.0953,0,.1387.0435.1387.1285l-.0113,3.0754.0113,3.0754c0,.0859-.0434.1284-.1387.1284Z" fill="#1d2856"/>
    <path d="M199.1501,23.9116h-3.9835c-.0963,0-.1388-.0424-.1388-.1284l.0104-3.0754-.0104-3.0754c0-.085.0425-.1285.1388-.1285h3.8655c.0859,0,.1605.0217.1605.1077v.5012c0,.0859-.0745.1067-.1605.0963,0,0-1.1422-.1605-1.6868-.1605h-.8543c-.1388,0-.2567.1076-.2567.2464l-.0104,1.9427c0,.0434.0321.0755.0746.0755l1.9228-.0538c.0529,0,.1067.0217.1067.0746v.5022c0,.0538-.0538.0746-.1067.0746l-1.9228-.0529c-.0425,0-.0746.0321-.0746.0745l.0104,2.1787c0,.1388.1179.2559.2567.2559h.8543c.5447,0,1.8049-.203,1.8049-.203.085-.0103.1595.0104.1595.0963v.5447c0,.085-.0745.1066-.1595.1066Z" fill="#1d2856"/>
    <path d="M202.9807,24.0401c-.9931,0-1.6662-.2247-2.1891-.4381-.0745-.0321-.0858-.1171-.0642-.1812l.1925-.7155c.0208-.0859.1171-.0859.1812-.0113.4381.4597,1.1536.8222,1.9645.8222.5881,0,1.2497-.4484,1.2497-1.0781,0-1.6764-3.5775-.9827-3.5775-3.3954,0-1.0572.7372-1.6981,1.9332-1.6981.9609,0,1.7189.1595,2.2098.1916.0755,0,.0963.0756.0755.1398l-.1501.7145c-.0103.0756-.0953.0963-.1708.0538-.438-.2567-1.0034-.5984-1.9748-.5984-.4701,0-.9401.3105-.9401.8231,0,1.7086,3.588.9072,3.588,3.5446,0,1.3027-.9931,1.8266-2.3278,1.8266Z" fill="#1d2856"/>
  </g>
  <path d="M219.8911,28.4957V.4838c0-.2672.2147-.4838.4833-.4838h0c.2667,0,.4819.2166.4819.4838h0v28.0139c0,.2652-.2171.4823-.4838.4823h0c-.2667,0-.4838-.2171-.4814-.4843h0Z" fill="#1d2856"/>
</svg>