<?xml version="1.0" encoding="UTF-8"?><svg id="a" xmlns="http://www.w3.org/2000/svg" width="4.9375in" height=".4025in" viewBox="0 0 355.5021 28.98"><path d="M238.2716,8.0689c0,.4414-.0674.8555-.2012,1.2412-.1348.3857-.3301.7266-.585,1.0205-.2559.2949-.5654.5264-.9297.6953s-.7754.2539-1.2354.2539c-.3037,0-.5459-.0049-.7275-.0127-.1826-.0088-.3301-.0176-.4424-.0264s-.2012-.0176-.2666-.0264c-.0645-.0078-.123-.0127-.1748-.0127-.0703,0-.124.002-.1631.0068-.0391.0039-.0762.0107-.1104.0195-.0352.0088-.0713.0146-.1104.0195-.0391.0039-.0938.0059-.1631.0059-.043,0-.084-.0088-.123-.0254-.0391-.0176-.0586-.0566-.0586-.1172l.0127-2.9902-.0127-2.9639c0-.1045.0605-.1562.1816-.1562h2.2363c.4502,0,.8535.0781,1.209.2344s.6562.3701.9033.6436c.2471.2725.4355.5977.5654.9746.1309.377.1953.7822.1953,1.2158ZM237.128,8.0035c0-.3115-.0283-.6172-.085-.916s-.1543-.5654-.292-.7998c-.1396-.2334-.3281-.4248-.5664-.5723-.2383-.1465-.5391-.2207-.9033-.2207h-.9746c-.0693,0-.1348.0195-.1953.0586s-.0908.085-.0908.1367l-.0127,2.4434.0127,2.1455c0,.1035.0371.1934.1104.2666s.165.1318.2734.1758c.1084.043.2227.0732.3447.0908.1211.0176.2295.0254.3242.0254.3984,0,.7305-.084.9951-.2529.2637-.1689.4746-.3906.6299-.6631.1562-.2734.2666-.5791.332-.917.0645-.3379.0977-.6709.0977-1.001Z" fill="#fff"/><path d="M244.545,11.2408h-4.0537c-.123,0-.1846-.0518-.1846-.1562l.0127-2.9639-.0127-2.9639c0-.1045.0615-.1562.1846-.1562h3.9238c.0605,0,.1123.0107.1553.0332.0439.0215.0654.0576.0654.1104v.4805c0,.0518-.0215.0889-.0654.1104-.043.0225-.0947.0283-.1553.0195-.2344-.0254-.4639-.0518-.6895-.0781-.1904-.0166-.3877-.0342-.5918-.0518-.2031-.0166-.3789-.0254-.5264-.0254h-1.0264c-.0693,0-.126.0195-.1689.0576-.0439.0391-.0654.085-.0654.1367l-.0127,1.8721c0,.0264.0127.0391.0391.0391l2.1709-.0518c.0342,0,.0693.0068.1035.0195.0352.0127.0527.041.0527.084v.4814c0,.043-.0176.0732-.0527.0908-.0342.0176-.0693.0264-.1035.0264l-2.1709-.0527c-.0264,0-.0391.0137-.0391.0391l.0127,2.0938c0,.0605.0215.1104.0654.1494.043.0391.0996.0586.1689.0586h1.0264c.1475,0,.3291-.0088.5459-.0264s.4297-.0391.6377-.0654c.2422-.0342.4941-.0684.7539-.1035.043-.0088.0889-.0068.1367.0068.0469.0127.0713.0537.0713.123v.5205c0,.0947-.0693.1426-.208.1426Z" fill="#fff"/><path d="M250.6935,5.735c-.043.0225-.0947.0283-.1553.0195-.2695-.0254-.5166-.0518-.7412-.0781-.1992-.0166-.3994-.0342-.5986-.0518-.1992-.0166-.3506-.0254-.4551-.0254h-.9229c-.0693,0-.125.0195-.1689.0576-.043.0391-.0645.085-.0645.1367l-.0137,1.8594c0,.0264.0137.0391.0391.0391l2.0801-.0518c.0352,0,.0674.0088.0977.0254.0303.0176.0459.0479.0459.0908v.4814c0,.043-.0156.0713-.0459.084-.0303.0137-.0625.0195-.0977.0195l-2.0801-.0518c-.0254,0-.0391.0127-.0391.0391l.0264,2.7559c0,.1045-.0654.1562-.1953.1562h-.6631c-.1211,0-.1816-.0518-.1816-.1562l.0127-2.9639-.0127-2.9639c0-.1045.0605-.1562.1816-.1562h3.8096c.1387,0,.208.0479.208.1436v.4805c0,.0518-.0215.0889-.0654.1104Z" fill="#fff"/><path d="M256.6876,11.2408h-4.0537c-.123,0-.1846-.0518-.1846-.1562l.0127-2.9639-.0127-2.9639c0-.1045.0615-.1562.1846-.1562h3.9238c.0605,0,.1123.0107.1553.0332.0439.0215.0654.0576.0654.1104v.4805c0,.0518-.0215.0889-.0654.1104-.043.0225-.0947.0283-.1553.0195-.2344-.0254-.4639-.0518-.6895-.0781-.1904-.0166-.3877-.0342-.5918-.0518-.2031-.0166-.3789-.0254-.5264-.0254h-1.0264c-.0693,0-.126.0195-.1689.0576-.0439.0391-.0654.085-.0654.1367l-.0127,1.8721c0,.0264.0127.0391.0391.0391l2.1709-.0518c.0342,0,.0693.0068.1035.0195.0352.0127.0527.041.0527.084v.4814c0,.043-.0176.0732-.0527.0908-.0342.0176-.0693.0264-.1035.0264l-2.1709-.0527c-.0264,0-.0391.0137-.0391.0391l.0127,2.0938c0,.0605.0215.1104.0654.1494.043.0391.0996.0586.1689.0586h1.0264c.1475,0,.3291-.0088.5459-.0264s.4297-.0391.6377-.0654c.2422-.0342.4941-.0684.7539-.1035.043-.0088.0889-.0068.1367.0068.0469.0127.0713.0537.0713.123v.5205c0,.0947-.0693.1426-.208.1426Z" fill="#fff"/><path d="M263.8897,9.5641l.0127,1.6504c0,.0527-.0156.0918-.0459.1172-.0303.0264-.0645.043-.1035.0518s-.0762.0068-.1104-.0059c-.0352-.0137-.0615-.0283-.0781-.0459l-4.0303-4.7578c-.0176-.0176-.0322-.0234-.0459-.0195-.0127.0049-.0195.0107-.0195.0195l.1436,4.4717c0,.0439-.0107.0869-.0322.1299-.0225.0439-.0674.0654-.1367.0654h-.585c-.0693,0-.1133-.0215-.1299-.0654-.0176-.043-.0264-.0859-.0264-.1299l.1299-4.3682-.0254-1.5205c0-.1045.0645-.1562.1943-.1562h.2861c.043,0,.0869.0088.1299.0264.0439.0176.0781.043.1045.0781l3.5615,4.2119c.0352.043.0674.0537.0977.0322s.0459-.041.0459-.0586l-.1172-4.0947c0-.043.0088-.0869.0254-.1299.0176-.0439.0605-.0654.1309-.0654h.5459c.0693,0,.1123.0215.1299.0654.0166.043.0254.0869.0254.1299l-.0771,4.3682Z" fill="#fff"/><path d="M270.7315,9.5768c0,.3291-.0674.6064-.2012.832-.1348.2256-.3125.4092-.5332.5527-.2207.1426-.4795.2471-.7734.3115-.2949.0654-.6025.0977-.9229.0977-.5381,0-.9814-.0449-1.333-.1367-.3506-.0908-.665-.1885-.9424-.292-.0518-.0176-.084-.0498-.0977-.0977-.0127-.0479-.0107-.0889.0068-.123l.1953-.6377c.0166-.0693.0557-.1016.1162-.0977.0605.0049.1084.0244.1436.0586.2246.2256.5049.4082.8379.5459.334.1387.7178.208,1.1514.208.1904,0,.3721-.0254.5459-.0771.1729-.0527.3242-.1221.4551-.208.1299-.0869.2334-.1914.3115-.3125s.1172-.2559.1172-.4033c0-.2158-.0674-.4004-.2012-.5518-.1348-.1523-.2998-.2822-.4941-.3906-.1953-.1084-.4033-.2012-.624-.2793-.2217-.0781-.4141-.1475-.5791-.208-.2334-.0869-.4678-.1816-.7021-.2861-.2334-.1035-.4434-.2275-.6299-.3701-.1865-.1436-.3359-.3096-.4482-.501-.1133-.1904-.1689-.416-.1689-.6758,0-.5371.1885-.9492.5654-1.2354.377-.2852.8555-.4287,1.4365-.4287.5195,0,.959.0264,1.3193.0781.3594.0518.6689.0869.9297.1035.0605.0088.0986.0312.1162.0654.0176.0352.0215.0742.0137.1172l-.1436.624c-.0176.0605-.0498.0957-.0977.1035-.0469.0088-.0928,0-.1357-.0254-.2344-.1211-.5117-.2383-.832-.3516-.3213-.1123-.7158-.1689-1.1836-.1689-.3203,0-.5801.0693-.7793.208-.2002.1387-.2998.3213-.2998.5459,0,.165.0371.3076.1113.4297.0732.1211.1689.2275.2852.3184.1172.0908.2471.1689.3906.2334.1426.0654.2793.124.4092.1758.2686.1045.5586.21.8711.3184.3115.1084.5996.2451.8643.4102.2646.1641.4854.3662.6631.6045s.2666.5439.2666.916Z" fill="#fff"/><path d="M276.8995,11.2408h-4.0537c-.123,0-.1846-.0518-.1846-.1562l.0127-2.9639-.0127-2.9639c0-.1045.0615-.1562.1846-.1562h3.9238c.0605,0,.1123.0107.1553.0332.0439.0215.0654.0576.0654.1104v.4805c0,.0518-.0215.0889-.0654.1104-.043.0225-.0947.0283-.1553.0195-.2344-.0254-.4639-.0518-.6895-.0781-.1904-.0166-.3877-.0342-.5918-.0518-.2031-.0166-.3789-.0254-.5264-.0254h-1.0264c-.0693,0-.126.0195-.1689.0576-.0439.0391-.0654.085-.0654.1367l-.0127,1.8721c0,.0264.0127.0391.0391.0391l2.1709-.0518c.0342,0,.0693.0068.1035.0195.0352.0127.0527.041.0527.084v.4814c0,.043-.0176.0732-.0527.0908-.0342.0176-.0693.0264-.1035.0264l-2.1709-.0527c-.0264,0-.0391.0137-.0391.0391l.0127,2.0938c0,.0605.0215.1104.0654.1494.043.0391.0996.0586.1689.0586h1.0264c.1475,0,.3291-.0088.5459-.0264s.4297-.0391.6377-.0654c.2422-.0342.4941-.0684.7539-.1035.043-.0088.0889-.0068.1367.0068.0469.0127.0713.0537.0713.123v.5205c0,.0947-.0693.1426-.208.1426Z" fill="#fff"/><path d="M286.8565,11.0592c.0352.0605.0371.1055.0068.1357-.0303.0312-.0762.0459-.1367.0459h-.8838c-.1123,0-.1904-.0479-.2344-.1426l-.2861-.7021-.3506-.8711c-.0264-.043-.0605-.0654-.1035-.0654h-2.4834c-.0439,0-.0742.0225-.0908.0654l-.5723,1.5732c-.0342.0947-.1035.1426-.208.1426h-.5723c-.0693,0-.1123-.0215-.1299-.0654-.0176-.043-.0176-.0908,0-.1426l2.5615-5.9668c.0166-.0439.0605-.0732.1299-.0908s.1426-.0264.2207-.0264.1543.0107.2275.0322c.0732.0225.1191.0498.1367.085l2.3916,5.3037c.0264.0693.0605.1436.1045.2207.043.0781.0859.1523.1299.2217.043.0869.0908.1689.1426.2471ZM283.6065,6.1969c-.0176-.0264-.0303-.0264-.0391,0l-1.04,2.7168c-.0166.0352-.0088.0518.0264.0518h2.1582c.0254,0,.0342-.0127.0254-.0391l-1.1309-2.7295Z" fill="#fff"/><path d="M293.7853,9.5641l.0127,1.6504c0,.0527-.0156.0918-.0459.1172-.0303.0264-.0645.043-.1035.0518s-.0762.0068-.1104-.0059c-.0352-.0137-.0615-.0283-.0781-.0459l-4.0303-4.7578c-.0176-.0176-.0322-.0234-.0459-.0195-.0127.0049-.0195.0107-.0195.0195l.1436,4.4717c0,.0439-.0107.0869-.0322.1299-.0225.0439-.0674.0654-.1367.0654h-.585c-.0693,0-.1133-.0215-.1299-.0654-.0176-.043-.0264-.0859-.0264-.1299l.1299-4.3682-.0254-1.5205c0-.1045.0645-.1562.1943-.1562h.2861c.043,0,.0869.0088.1299.0264.0439.0176.0781.043.1045.0781l3.5615,4.2119c.0352.043.0674.0537.0977.0322s.0459-.041.0459-.0586l-.1172-4.0947c0-.043.0088-.0869.0254-.1299.0176-.0439.0605-.0654.1309-.0654h.5459c.0693,0,.1123.0215.1299.0654.0166.043.0254.0869.0254.1299l-.0771,4.3682Z" fill="#fff"/><path d="M301.4688,8.0689c0,.4414-.0674.8555-.2012,1.2412-.1348.3857-.3301.7266-.585,1.0205-.2559.2949-.5654.5264-.9297.6953s-.7754.2539-1.2354.2539c-.3037,0-.5459-.0049-.7275-.0127-.1826-.0088-.3301-.0176-.4424-.0264s-.2012-.0176-.2666-.0264c-.0645-.0078-.123-.0127-.1748-.0127-.0703,0-.124.002-.1631.0068-.0391.0039-.0762.0107-.1104.0195-.0352.0088-.0713.0146-.1104.0195-.0391.0039-.0938.0059-.1631.0059-.043,0-.084-.0088-.123-.0254-.0391-.0176-.0586-.0566-.0586-.1172l.0127-2.9902-.0127-2.9639c0-.1045.0605-.1562.1816-.1562h2.2363c.4502,0,.8535.0781,1.209.2344s.6562.3701.9033.6436c.2471.2725.4355.5977.5654.9746.1309.377.1953.7822.1953,1.2158ZM300.3253,8.0035c0-.3115-.0283-.6172-.085-.916s-.1543-.5654-.292-.7998c-.1396-.2334-.3281-.4248-.5664-.5723-.2383-.1465-.5391-.2207-.9033-.2207h-.9746c-.0693,0-.1348.0195-.1953.0586s-.0908.085-.0908.1367l-.0127,2.4434.0127,2.1455c0,.1035.0371.1934.1104.2666s.165.1318.2734.1758c.1084.043.2227.0732.3447.0908.1211.0176.2295.0254.3242.0254.3984,0,.7305-.084.9951-.2529.2637-.1689.4746-.3906.6299-.6631.1562-.2734.2666-.5791.332-.917.0645-.3379.0977-.6709.0977-1.001Z" fill="#fff"/><path d="M310.6466,9.5768c0,.3291-.0674.6064-.2012.832-.1348.2256-.3125.4092-.5332.5527-.2207.1426-.4795.2471-.7734.3115-.2949.0654-.6025.0977-.9229.0977-.5381,0-.9814-.0449-1.333-.1367-.3506-.0908-.665-.1885-.9424-.292-.0518-.0176-.084-.0498-.0977-.0977-.0127-.0479-.0107-.0889.0068-.123l.1953-.6377c.0166-.0693.0557-.1016.1162-.0977.0605.0049.1084.0244.1436.0586.2246.2256.5049.4082.8379.5459.334.1387.7178.208,1.1514.208.1904,0,.3721-.0254.5459-.0771.1729-.0527.3242-.1221.4551-.208.1299-.0869.2334-.1914.3115-.3125s.1172-.2559.1172-.4033c0-.2158-.0674-.4004-.2012-.5518-.1348-.1523-.2998-.2822-.4941-.3906-.1953-.1084-.4033-.2012-.624-.2793-.2217-.0781-.4141-.1475-.5791-.208-.2334-.0869-.4678-.1816-.7021-.2861-.2334-.1035-.4434-.2275-.6299-.3701-.1865-.1436-.3359-.3096-.4482-.501-.1133-.1904-.1689-.416-.1689-.6758,0-.5371.1885-.9492.5654-1.2354.377-.2852.8555-.4287,1.4365-.4287.5195,0,.959.0264,1.3193.0781.3594.0518.6689.0869.9297.1035.0605.0088.0986.0312.1162.0654.0176.0352.0215.0742.0137.1172l-.1436.624c-.0176.0605-.0498.0957-.0977.1035-.0469.0088-.0928,0-.1357-.0254-.2344-.1211-.5117-.2383-.832-.3516-.3213-.1123-.7158-.1689-1.1836-.1689-.3203,0-.5801.0693-.7793.208-.2002.1387-.2998.3213-.2998.5459,0,.165.0371.3076.1113.4297.0732.1211.1689.2275.2852.3184.1172.0908.2471.1689.3906.2334.1426.0654.2793.124.4092.1758.2686.1045.5586.21.8711.3184.3115.1084.5996.2451.8643.4102.2646.1641.4854.3662.6631.6045s.2666.5439.2666.916Z" fill="#fff"/><path d="M316.8136,11.2408h-4.0537c-.123,0-.1846-.0518-.1846-.1562l.0127-2.9639-.0127-2.9639c0-.1045.0615-.1562.1846-.1562h3.9238c.0605,0,.1123.0107.1553.0332.0439.0215.0654.0576.0654.1104v.4805c0,.0518-.0215.0889-.0654.1104-.043.0225-.0947.0283-.1553.0195-.2344-.0254-.4639-.0518-.6895-.0781-.1904-.0166-.3877-.0342-.5918-.0518-.2031-.0166-.3789-.0254-.5264-.0254h-1.0264c-.0693,0-.126.0195-.1689.0576-.0439.0391-.0654.085-.0654.1367l-.0127,1.8721c0,.0264.0127.0391.0391.0391l2.1709-.0518c.0342,0,.0693.0068.1035.0195.0352.0127.0527.041.0527.084v.4814c0,.043-.0176.0732-.0527.0908-.0342.0176-.0693.0264-.1035.0264l-2.1709-.0527c-.0264,0-.0391.0137-.0391.0391l.0127,2.0938c0,.0605.0215.1104.0654.1494.043.0391.0996.0586.1689.0586h1.0264c.1475,0,.3291-.0088.5459-.0264s.4297-.0391.6377-.0654c.2422-.0342.4941-.0684.7539-.1035.043-.0088.0889-.0068.1367.0068.0469.0127.0713.0537.0713.123v.5205c0,.0947-.0693.1426-.208.1426Z" fill="#fff"/><path d="M323.5079,10.5904c-.251.2402-.5605.4307-.9287.5703-.3691.1396-.7656.21-1.1895.21-.373,0-.7373-.0566-1.0928-.1689s-.6738-.2949-.9551-.5459c-.2822-.251-.5088-.585-.6826-1.001s-.2598-.9229-.2598-1.5215c0-.4844.0801-.9229.2402-1.3125s.377-.7197.6504-.9883c.2725-.2686.5889-.4746.9482-.6172.3604-.1436.7354-.2148,1.125-.2148h1.8594c.043,0,.084.0068.123.0205.0391.0127.0537.0547.0459.126l-.0781.5947c-.0088.0605-.0352.1045-.0781.1299-.0439.0264-.0908.0303-.1436.0127-.3027-.0947-.5781-.166-.8252-.2139s-.5527-.0713-.916-.0713c-.5723,0-1.0098.2139-1.3135.6436-.3037.4287-.4551,1.0635-.4551,1.9043,0,.5029.0566.9209.1689,1.2539.1133.334.2666.6025.4619.8066.1953.2031.4229.3486.6826.4355.2598.0859.541.1299.8447.1299.2256,0,.4678-.0605.7275-.1826.2607-.1211.4814-.2549.6631-.4023.0176-.0176.0439-.0303.0781-.0391.0352-.0088.0654.0039.0908.0391l.208.2598c.0439.0518.0439.0996,0,.1426Z" fill="#fff"/><path d="M330.3644,5.2086c0,.0781-.0039.1611-.0127.2471-.0088.0693-.0156.1475-.0195.2344s-.0068.1689-.0068.2471l-.0908,3.4316c-.0176.6758-.2295,1.1855-.6367,1.5273-.4072.3428-.9746.5137-1.7031.5137-.8145,0-1.4561-.1689-1.9238-.5068s-.7061-.8496-.7148-1.5342l-.0391-3.5225-.0127-.6895c0-.1045.0635-.1562.1924-.1562h.6934c.1289,0,.1924.0518.1924.1562l-.0254.6895-.0137,3.4443c0,.2344.0439.4443.1309.6309s.209.3428.3652.4678c.1572.126.3379.2236.542.293s.4238.1035.6592.1035c.209,0,.4043-.0264.5879-.0781.1826-.0518.3438-.1338.4824-.2471.1396-.1123.248-.2549.3262-.4287.0781-.1729.1182-.3857.1182-.6367l-.0391-3.4453c0-.0781-.0029-.1602-.0068-.2471-.0049-.0869-.0107-.1641-.0195-.2344-.0088-.0859-.0176-.1729-.0264-.2598-.0088-.043-.002-.0889.0195-.1367.0215-.0469.0674-.0713.1367-.0713h.6895c.0693,0,.1123.0244.1299.0713.0166.0479.0254.0938.0254.1367Z" fill="#fff"/><path d="M337.962,11.0582c.043.0439.0469.085.0127.124-.0352.0391-.0869.0586-.1562.0586h-.8711c-.0693,0-.1299-.0303-.1816-.0908l-.0264-.0518-1.6113-2.3535c-.1826-.2598-.3643-.3896-.5459-.3896h-.7676c-.043,0-.084.0127-.123.0391-.0391.0254-.0586.0557-.0586.0908l.0127,2.5996c0,.1045-.0654.1562-.1953.1562h-.6631c-.1211,0-.1816-.0518-.1816-.1562l.0127-2.9639-.0127-2.9639c0-.043.0068-.0801.0195-.1104s.0537-.0459.124-.0459h2.7559c.251,0,.4893.0371.7148.1104.2246.0742.4219.1777.5918.3115.1689.1348.3027.293.4023.4746s.1494.3809.1494.5977c0,.4414-.1533.8154-.4609,1.123s-.7041.5088-1.1895.6035c-.0088,0-.0156.0029-.0195.0068-.0049.0049-.0029.0068.0059.0068.0869.0605.2344.2256.4424.4941l1.4951,1.9395.3252.3896ZM336.2589,6.568c0-.3105-.1064-.5664-.3184-.7695-.2129-.2021-.4922-.3037-.8389-.3037h-1.1963c-.0693,0-.1299.0195-.1816.0586s-.0781.084-.0781.1357l-.0127,2.0293c0,.0352.0195.0674.0586.0967.0391.0303.0801.0459.123.0459h.8193c.502,0,.8984-.0947,1.1895-.2842.29-.1904.4355-.5264.4355-1.0088Z" fill="#fff"/><path d="M340.6056,11.2408h-.6631c-.1211,0-.1816-.0518-.1816-.1562l.0127-2.9639-.0127-2.9639c0-.1045.0605-.1562.1816-.1562h.6631c.1299,0,.1953.0518.1953.1562l-.0127,2.9639.0127,2.9639c0,.1045-.0654.1562-.1953.1562Z" fill="#fff"/><path d="M347.7999,5.5992c-.0088.1035-.0703.1475-.1826.1299-.2334-.0176-.4639-.0391-.6885-.0654-.1914-.0176-.3857-.0322-.585-.0449-.2002-.0137-.373-.0195-.5205-.0195-.0254,0-.0537.0146-.084.0449-.0312.0303-.0459.0674-.0459.1104v5.3301c0,.1045-.0605.1562-.1816.1562h-.6631c-.1221,0-.1826-.0518-.1826-.1562v-5.3428c0-.043-.0146-.0781-.0449-.1035-.0303-.0264-.0586-.0391-.085-.0391-.1475,0-.3223.0059-.5264.0195-.2031.0127-.4004.0273-.5918.0449-.2246.0264-.4502.0479-.6758.0654-.1123.0176-.1729-.0264-.1816-.1299l-.0391-.4551c-.0088-.0527.0107-.0889.0586-.1104.0469-.0225.1016-.0332.1621-.0332h4.875c.0605,0,.1152.0107.1631.0332.0469.0215.0664.0576.0586.1104l-.0391.4551Z" fill="#fff"/><path d="M352.8624,8.4195c-.0518.0693-.0781.1348-.0781.1953l.0137,2.4697c0,.1045-.0605.1562-.1826.1562h-.6621c-.1309,0-.1953-.0518-.1953-.1562l.0127-2.2744c0-.0693-.0215-.1348-.0645-.1953l-2.5098-3.4316c-.043-.0527-.0557-.0957-.0391-.1309.0176-.0342.0605-.0518.1309-.0518h.8701c.1133,0,.2041.0479.2734.1436l1.9365,2.834c.0088.0176.0225.0254.0391.0254.0176,0,.0303-.0078.0391-.0254l1.7686-2.873c.0342-.0439.0693-.0713.1035-.085.0352-.0127.0781-.0195.1299-.0195h.5723c.0693,0,.1104.0215.124.0654.0127.043.002.0869-.0332.1299l-2.249,3.2236Z" fill="#fff"/><path d="M238.2716,20.9566c0,.4414-.0674.8555-.2012,1.2412-.1348.3857-.3301.7266-.585,1.0205-.2559.2949-.5654.5264-.9297.6953s-.7754.2539-1.2354.2539c-.3037,0-.5459-.0049-.7275-.0127-.1826-.0088-.3301-.0176-.4424-.0264s-.2012-.0176-.2666-.0264c-.0645-.0078-.123-.0127-.1748-.0127-.0703,0-.124.002-.1631.0068-.0391.0039-.0762.0107-.1104.0195-.0352.0088-.0713.0146-.1104.0195-.0391.0039-.0938.0059-.1631.0059-.043,0-.084-.0088-.123-.0254-.0391-.0176-.0586-.0566-.0586-.1172l.0127-2.9902-.0127-2.9639c0-.1045.0605-.1562.1816-.1562h2.2363c.4502,0,.8535.0781,1.209.2344s.6562.3701.9033.6436c.2471.2725.4355.5977.5654.9746.1309.377.1953.7822.1953,1.2158ZM237.128,20.8912c0-.3115-.0283-.6172-.085-.916s-.1543-.5654-.292-.7998c-.1396-.2334-.3281-.4248-.5664-.5723-.2383-.1465-.5391-.2207-.9033-.2207h-.9746c-.0693,0-.1348.0195-.1953.0586s-.0908.085-.0908.1367l-.0127,2.4434.0127,2.1455c0,.1035.0371.1934.1104.2666s.165.1318.2734.1758c.1084.043.2227.0732.3447.0908.1211.0176.2295.0254.3242.0254.3984,0,.7305-.084.9951-.2529.2637-.1689.4746-.3906.6299-.6631.1562-.2734.2666-.5791.332-.917.0645-.3379.0977-.6709.0977-1.001Z" fill="#fff"/><path d="M244.545,24.1285h-4.0537c-.123,0-.1846-.0518-.1846-.1562l.0127-2.9639-.0127-2.9639c0-.1045.0615-.1562.1846-.1562h3.9238c.0605,0,.1123.0107.1553.0332.0439.0215.0654.0576.0654.1104v.4805c0,.0518-.0215.0889-.0654.1104-.043.0225-.0947.0283-.1553.0195-.2344-.0254-.4639-.0518-.6895-.0781-.1904-.0166-.3877-.0342-.5918-.0518-.2031-.0166-.3789-.0254-.5264-.0254h-1.0264c-.0693,0-.126.0195-.1689.0576-.0439.0391-.0654.085-.0654.1367l-.0127,1.8721c0,.0264.0127.0391.0391.0391l2.1709-.0518c.0342,0,.0693.0068.1035.0195.0352.0127.0527.041.0527.084v.4814c0,.043-.0176.0732-.0527.0908-.0342.0176-.0693.0264-.1035.0264l-2.1709-.0527c-.0264,0-.0391.0137-.0391.0391l.0127,2.0938c0,.0605.0215.1104.0654.1494.043.0391.0996.0586.1689.0586h1.0264c.1475,0,.3291-.0088.5459-.0264s.4297-.0391.6377-.0654c.2422-.0342.4941-.0684.7539-.1035.043-.0088.0889-.0068.1367.0068.0469.0127.0713.0537.0713.123v.5205c0,.0947-.0693.1426-.208.1426Z" fill="#fff"/><path d="M251.3438,19.6432c0,.2607-.0586.5049-.1758.7344-.1172.2305-.2949.4277-.5332.5918-.2383.165-.5352.2949-.8896.3906-.3555.0947-.7715.1426-1.248.1426h-.7285c-.043,0-.084.0127-.123.0391s-.0586.0566-.0586.0908l.0127,2.3398c0,.1045-.0654.1562-.1953.1562h-.6631c-.1211,0-.1816-.0518-.1816-.1562l.0127-2.9639-.0127-2.9639c0-.1045.0605-.1562.1816-.1562h2.249c.2861,0,.5703.0303.8516.0908.2822.0615.5332.1611.7539.2998.2217.1387.4014.3203.54.5459s.208.498.208.8184ZM250.2384,19.6178c0-.4248-.1338-.7363-.4023-.9365-.2686-.1992-.7285-.2988-1.3779-.2988h-.624c-.0693,0-.1279.0195-.1758.0586s-.0713.085-.0713.1367v2.3135c0,.0352.0195.0674.0586.0977s.0801.0459.123.0459h.585c.2686,0,.5176-.0195.748-.0586.2295-.0391.4287-.1123.5977-.2207s.3008-.2539.3965-.4355c.0947-.1826.1426-.416.1426-.7021Z" fill="#fff"/><path d="M258.128,23.9469c.0352.0605.0371.1055.0068.1357-.0303.0312-.0762.0459-.1367.0459h-.8838c-.1123,0-.1904-.0479-.2344-.1426l-.2861-.7021-.3506-.8711c-.0264-.043-.0605-.0654-.1035-.0654h-2.4834c-.0439,0-.0742.0225-.0908.0654l-.5723,1.5732c-.0342.0947-.1035.1426-.208.1426h-.5723c-.0693,0-.1123-.0215-.1299-.0654-.0176-.043-.0176-.0908,0-.1426l2.5615-5.9668c.0166-.0439.0605-.0732.1299-.0908s.1426-.0264.2207-.0264.1543.0107.2275.0322c.0732.0225.1191.0498.1367.085l2.3916,5.3037c.0264.0693.0605.1436.1045.2207.043.0781.0859.1523.1299.2217.043.0869.0908.1689.1426.2471ZM254.878,19.0846c-.0176-.0264-.0303-.0264-.0391,0l-1.04,2.7168c-.0166.0352-.0088.0518.0264.0518h2.1582c.0254,0,.0342-.0127.0254-.0391l-1.1309-2.7295Z" fill="#fff"/><path d="M265.2257,23.9459c.043.0439.0469.085.0127.124-.0352.0391-.0869.0586-.1562.0586h-.8711c-.0693,0-.1299-.0303-.1816-.0908l-.0264-.0518-1.6113-2.3535c-.1826-.2598-.3643-.3896-.5459-.3896h-.7676c-.043,0-.084.0127-.123.0391-.0391.0254-.0586.0557-.0586.0908l.0127,2.5996c0,.1045-.0654.1562-.1953.1562h-.6631c-.1211,0-.1816-.0518-.1816-.1562l.0127-2.9639-.0127-2.9639c0-.043.0068-.0801.0195-.1104s.0537-.0459.124-.0459h2.7559c.251,0,.4893.0371.7148.1104.2246.0742.4219.1777.5918.3115.1689.1348.3027.293.4023.4746s.1494.3809.1494.5977c0,.4414-.1533.8154-.4609,1.123s-.7041.5088-1.1895.6035c-.0088,0-.0156.0029-.0195.0068-.0049.0049-.0029.0068.0059.0068.0869.0605.2344.2256.4424.4941l1.4951,1.9395.3252.3896ZM263.5226,19.4557c0-.3105-.1064-.5664-.3184-.7695-.2129-.2021-.4922-.3037-.8389-.3037h-1.1963c-.0693,0-.1299.0195-.1816.0586s-.0781.084-.0781.1357l-.0127,2.0293c0,.0352.0195.0674.0586.0967.0391.0303.0801.0459.123.0459h.8193c.502,0,.8984-.0947,1.1895-.2842.29-.1904.4355-.5264.4355-1.0088Z" fill="#fff"/><path d="M271.544,18.4869c-.0088.1035-.0703.1475-.1826.1299-.2334-.0176-.4639-.0391-.6885-.0654-.1914-.0176-.3857-.0322-.585-.0449-.2002-.0137-.373-.0195-.5205-.0195-.0254,0-.0537.0146-.084.0449-.0312.0303-.0459.0674-.0459.1104v5.3301c0,.1045-.0605.1562-.1816.1562h-.6631c-.1221,0-.1826-.0518-.1826-.1562v-5.3428c0-.043-.0146-.0781-.0449-.1035-.0303-.0264-.0586-.0391-.085-.0391-.1475,0-.3223.0059-.5264.0195-.2031.0127-.4004.0273-.5918.0449-.2246.0264-.4502.0479-.6758.0654-.1123.0176-.1729-.0264-.1816-.1299l-.0391-.4551c-.0088-.0527.0107-.0889.0586-.1104.0469-.0225.1016-.0332.1621-.0332h4.875c.0605,0,.1152.0107.1631.0332.0469.0215.0664.0576.0586.1104l-.0391.4551Z" fill="#fff"/><path d="M280.2062,20.9957v2.9766c0,.1045-.0615.1562-.1846.1562h-.6445c-.1318,0-.1982-.0518-.1982-.1562l.0137-2.9766v-1.3779c0-.0176-.0137-.0352-.0391-.0527-.0264-.0166-.0527-.0039-.0781.0391l-2.4307,4.251c-.0352.0527-.0781.0762-.1309.0723-.0518-.0049-.0947-.0332-.1299-.085l-2.2881-4.2637c-.0088-.0176-.0215-.0215-.0391-.0137-.0166.0088-.0254.0225-.0254.0391l.1172,4.3682c0,.1045-.0615.1562-.1826.1562h-.5332c-.1211,0-.1816-.0518-.1816-.1562l.1299-4.3154-.0254-1.6123c0-.1045.0605-.1562.1816-.1562h.6631c.043,0,.084.0068.123.0195.0391.0137.0674.041.085.085l2.2227,4.3545c.0176.0264.041.0391.0713.0391s.0547-.0127.0723-.0391l2.3525-4.2764c.0264-.0439.0596-.085.0986-.124s.0938-.0586.1641-.0586h.6318c.0791,0,.1318.0195.1582.0586s.0391.085.0391.1367l-.0127,2.9121Z" fill="#fff"/><path d="M286.7843,24.1285h-4.0537c-.123,0-.1846-.0518-.1846-.1562l.0127-2.9639-.0127-2.9639c0-.1045.0615-.1562.1846-.1562h3.9238c.0605,0,.1123.0107.1553.0332.0439.0215.0654.0576.0654.1104v.4805c0,.0518-.0215.0889-.0654.1104-.043.0225-.0947.0283-.1553.0195-.2344-.0254-.4639-.0518-.6895-.0781-.1904-.0166-.3877-.0342-.5918-.0518-.2031-.0166-.3789-.0254-.5264-.0254h-1.0264c-.0693,0-.126.0195-.1689.0576-.0439.0391-.0654.085-.0654.1367l-.0127,1.8721c0,.0264.0127.0391.0391.0391l2.1709-.0518c.0342,0,.0693.0068.1035.0195.0352.0127.0527.041.0527.084v.4814c0,.043-.0176.0732-.0527.0908-.0342.0176-.0693.0264-.1035.0264l-2.1709-.0527c-.0264,0-.0391.0137-.0391.0391l.0127,2.0938c0,.0605.0215.1104.0654.1494.043.0391.0996.0586.1689.0586h1.0264c.1475,0,.3291-.0088.5459-.0264s.4297-.0391.6377-.0654c.2422-.0342.4941-.0684.7539-.1035.043-.0088.0889-.0068.1367.0068.0469.0127.0713.0537.0713.123v.5205c0,.0947-.0693.1426-.208.1426Z" fill="#fff"/><path d="M293.9864,22.4518l.0127,1.6504c0,.0527-.0156.0918-.0459.1172-.0303.0264-.0645.043-.1035.0518s-.0762.0068-.1104-.0059c-.0352-.0137-.0615-.0283-.0781-.0459l-4.0303-4.7578c-.0176-.0176-.0322-.0234-.0459-.0195-.0127.0049-.0195.0107-.0195.0195l.1436,4.4717c0,.0439-.0107.0869-.0322.1299-.0225.0439-.0674.0654-.1367.0654h-.585c-.0693,0-.1133-.0215-.1299-.0654-.0176-.043-.0264-.0859-.0264-.1299l.1299-4.3682-.0254-1.5205c0-.1045.0645-.1562.1943-.1562h.2861c.043,0,.0869.0088.1299.0264.0439.0176.0781.043.1045.0781l3.5615,4.2119c.0352.043.0674.0537.0977.0322s.0459-.041.0459-.0586l-.1172-4.0947c0-.043.0088-.0869.0254-.1299.0176-.0439.0605-.0654.1309-.0654h.5459c.0693,0,.1123.0215.1299.0654.0166.043.0254.0869.0254.1299l-.0771,4.3682Z" fill="#fff"/><path d="M301.0704,18.4869c-.0088.1035-.0703.1475-.1826.1299-.2334-.0176-.4639-.0391-.6885-.0654-.1914-.0176-.3857-.0322-.585-.0449-.2002-.0137-.373-.0195-.5205-.0195-.0254,0-.0537.0146-.084.0449-.0312.0303-.0459.0674-.0459.1104v5.3301c0,.1045-.0605.1562-.1816.1562h-.6631c-.1221,0-.1826-.0518-.1826-.1562v-5.3428c0-.043-.0146-.0781-.0449-.1035-.0303-.0264-.0586-.0391-.085-.0391-.1475,0-.3223.0059-.5264.0195-.2031.0127-.4004.0273-.5918.0449-.2246.0264-.4502.0479-.6758.0654-.1123.0176-.1729-.0264-.1816-.1299l-.0391-.4551c-.0088-.0527.0107-.0889.0586-.1104.0469-.0225.1016-.0332.1621-.0332h4.875c.0605,0,.1152.0107.1631.0332.0469.0215.0664.0576.0586.1104l-.0391.4551Z" fill="#fff"/><path d="M15.9269,4.1645c.8297.1274,1.947.5428,2.426.6065.1595,0,.4786.2233.4786.9577,0,.6702.1595,2.0744.2233,2.7766.0321.6703-.2233,1.053-.4787,1.053-.1595,0-.3511-.3507-.5107-.8297-.2875-1.1172-.8939-2.0744-1.3088-2.3939-1.7553-1.3083-3.3832-1.6595-5.1068-1.6595-5.1384,0-8.4263,4.245-8.4263,9.0644,0,2.1385.4154,3.8622,1.1172,5.2668,1.7874,3.6701,5.4901,5.1068,8.0751,5.1068.6065,0,2.1706-.0963,3.4794-.8618,1.4041-.7344,2.2022-1.7558,2.9683-3.0962.4149-.6703.5423-.8297.6703-.8297.319,0,.3511.7022.2869,1.0534-.0958.7977-.8297,2.4892-1.2767,3.2237-.1274.287-.6702.6702-.9892.8297-.5107.2237-3.0962.8939-5.8092.8939-4.5003,0-7.7876-2.2343-9.0643-3.7343-1.213-1.4046-2.6813-3.7032-2.6813-7.3416s2.1706-6.5431,3.511-7.6602c2.745-2.2339,5.7133-2.9362,8.6495-2.9362,1.1172,0,2.5534.2232,3.7664.5107Z" fill="#fff"/><path d="M33.5097,4.2282c.1911.0637.3827.5428.3827.6066.0638.6065.3191,2.4575.3191,2.5855,0,.5423,0,.8618-.2232.8618-.2554,0-.6382-.2238-.766-.6707-.3828-1.1488-1.2446-2.1064-1.5642-2.298-.5744-.4465-1.3404-.734-2.2659-.734-2.1385,0-3.6706,1.5958-3.6706,3.7343,0,2.2659,1.6279,3.2557,4.4367,5.1389,2.4575,1.6595,4.4045,3.3195,4.4045,6.1918,0,1.5963-.8934,3.3832-2.6171,4.5009-1.0214.6703-2.9046,1.1488-4.3408,1.1488-1.0214,0-3.1921-.3512-4.1813-.8297-.3191-.1917-.734-.8939-.734-1.0214-.1595-1.0855-.4791-2.4901-.4791-3.0009,0-.1274.3196-.606.447-.606.2554,0,.734.8297,1.1809,1.819.8302,1.7558,2.9367,2.5534,4.1492,2.5534,2.2027,0,3.8622-1.5641,3.8622-3.8617,0-1.3404-.6382-2.7771-3.9897-4.9151-2.7129-1.7559-4.6283-3.6069-4.6283-6.3198,0-1.5005.6703-2.9367,1.7558-3.8939.9893-.8939,2.4892-1.5641,4.7237-1.5641,1.5641,0,3.2236.4786,3.7985.5744Z" fill="#fff"/><path d="M40.3364,7.356c-.0959-1.4679-.0959-1.947-1.8833-2.266-.7023-.1279-.8934-.3512-.8934-.5744,0-.2554.3512-.3833.7977-.3833.8302,0,2.426.0958,3.4789.0958,1.5642,0,2.2985-.0958,3.4152-.0958.5107,0,.7981.1279.7981.3833s-.3191.4465-.8297.5423c-1.8516.3833-1.8195,1.1814-1.947,2.0427-.1595,1.0534-.1916,3.1283-.1916,9.3844,0,1.7548.0321,3.7343.0958,4.7557.0958,1.7227.2554,2.3297,2.3297,2.7441.5748.0963.8302.3199.8302.5428,0,.2559-.4791.4154-.8618.4154-1.6279,0-3.8939-.1916-4.7557-.1916-.9576,0-1.245.0642-2.4259.0642-.6066,0-.8297-.2238-.8297-.4474,0-.2228.3191-.4144.9576-.5429,1.5958-.3502,1.7232-.8297,1.8511-2.3296.0959-1.1167.1596-4.4367.1596-7.1496,0-1.9786-.0321-5.9366-.0958-6.99Z" fill="#fff"/><path d="M59.9948,4.2282c.1911.0637.3828.5428.3828.6066.0637.6065.319,2.4575.319,2.5855,0,.5423,0,.8618-.2232.8618-.2554,0-.6386-.2238-.766-.6707-.3833-1.1488-1.2446-2.1064-1.5642-2.298-.5744-.4465-1.3404-.734-2.2659-.734-2.1385,0-3.6706,1.5958-3.6706,3.7343,0,2.2659,1.6279,3.2557,4.4367,5.1389,2.4575,1.6595,4.4045,3.3195,4.4045,6.1918,0,1.5963-.8934,3.3832-2.6171,4.5009-1.0214.6703-2.9046,1.1488-4.3408,1.1488-1.0214,0-3.1916-.3512-4.1813-.8297-.3191-.1917-.734-.8939-.734-1.0214-.1595-1.0855-.4791-2.4901-.4791-3.0009,0-.1274.3196-.606.447-.606.2554,0,.7344.8297,1.1809,1.819.8297,1.7558,2.9367,2.5534,4.1497,2.5534,2.2022,0,3.8617-1.5641,3.8617-3.8617,0-1.3404-.6382-2.7771-3.9897-4.9151-2.7129-1.7559-4.6283-3.6069-4.6283-6.3198,0-1.5005.6707-2.9367,1.7558-3.8939.9893-.8939,2.4897-1.5641,4.7237-1.5641,1.5641,0,3.2236.4786,3.7985.5744Z" fill="#fff"/><path d="M72.6566,28.4957V.4838c0-.2672.2147-.4838.4833-.4838h0c.2667,0,.4819.2166.4819.4838h0v28.0139c0,.2652-.2171.4823-.4838.4823h0c-.2667,0-.4838-.2171-.4814-.4843h0Z" fill="#fff"/><path d="M88.1588,11.5816c-1.5061,0-2.8512-.8646-2.8512-3.3209,0-1.9969,1.2384-3.2142,2.8295-3.2142h1.837c.0854,0,.1279.0213.1279.1067l-.0745.6301c-.0109.0854-.0746.1284-.16.1066-.5447-.1812-.801-.2988-1.7407-.2988-.9506,0-1.474.9185-1.474,2.6804,0,2.0927.833,2.7337,1.826,2.7337.4489,0,.9827-.3096,1.3456-.641.0321-.0213.0746-.0424.1067-.0103l.2671.2987c.0321.0322.0321.0643,0,.0964-.4701.5338-1.2281.8325-2.0394.8325Z" fill="#fff"/><path d="M95.8459,11.4538h-3.9835c-.0958,0-.1387-.043-.1387-.128l.0108-3.0754-.0108-3.0754c0-.0859.0429-.1285.1387-.1285h3.866c.0854,0,.1601.0213.1601.1067v.5022c0,.0854-.0746.1067-.1601.0958,0,0-1.1426-.16-1.6873-.16h-.8543c-.1387,0-.2562.1067-.2562.2454l-.0108,1.9437c0,.0424.0321.0745.075.0745l1.9219-.0534c.0534,0,.1066.0213.1066.0751v.5017c0,.0534-.0533.0746-.1066.0746l-1.9219-.0534c-.0429,0-.075.0321-.075.075l.0108,2.1782c0,.1388.1175.2563.2562.2563h.8543c.5447,0,1.8049-.203,1.8049-.203.085-.0103.16.0109.16.0963v.5447c0,.0854-.075.1067-.16.1067Z" fill="#fff"/><path d="M102.5353,9.7452v1.7194c0,.1709-.5447.16-.5871.0958l-3.4172-4.6769c-.0533-.0642-.1284-.0321-.1284.0317l.1284,4.3677c.0104.0963-.0108.1709-.1071.1709h-.758c-.0963,0-.1175-.0746-.1175-.1709l.1175-4.5277-.0213-1.5801c0-.0859.0425-.1285.1388-.1285h.598c.0745,0,.1495.0321.1816.0854l3.0113,4.1114c.0745.0959.1921.0534.1921-.0429l-.0854-3.983c0-.0963.0213-.1709.1067-.1709h.7051c.0855,0,.1066.0746.1066.1709l-.0642,4.5277Z" fill="#fff"/><path d="M109.1331,5.6233c-.0103.0854-.0538.1067-.1388.0958,0,0-1.0893-.1279-1.6235-.1279-.0746,0-.1492.0854-.1492.1922l-.0104,2.467.0104,3.0754c0,.085-.0425.128-.1388.128h-.9401c-.0964,0-.1378-.043-.1378-.128l.0094-3.0754-.0094-2.467c0-.1067-.0755-.1922-.1501-.1922-.5334,0-1.6231.1279-1.6231.1279-.0854.0109-.1284-.0103-.1388-.0958l-.0321-.4701c-.0108-.0854.0855-.1067.1709-.1067h4.7627c.085,0,.1812.0213.1709.1067l-.0321.4701Z" fill="#fff"/><path d="M114.7535,11.4538h-3.9835c-.0963,0-.1388-.043-.1388-.128l.0104-3.0754-.0104-3.0754c0-.0859.0425-.1285.1388-.1285h3.8655c.0859,0,.1605.0213.1605.1067v.5022c0,.0854-.0745.1067-.1605.0958,0,0-1.1422-.16-1.6868-.16h-.8543c-.1388,0-.2567.1067-.2567.2454l-.0104,1.9437c0,.0424.0321.0745.0746.0745l1.9228-.0534c.0529,0,.1067.0213.1067.0751v.5017c0,.0534-.0538.0746-.1067.0746l-1.9228-.0534c-.0425,0-.0746.0321-.0746.075l.0104,2.1782c0,.1388.1179.2563.2567.2563h.8543c.5446,0,1.8049-.203,1.8049-.203.0849-.0103.1595.0109.1595.0963v.5447c0,.0854-.0746.1067-.1595.1067Z" fill="#fff"/><path d="M121.5066,11.4538h-1.1857c-.0963,0-.1284-.0642-.1812-.128l-1.3347-2.4457c-.1491-.288-.3418-.4271-.5447-.4271h-.3955c-.0953,0-.203.075-.203.1708l.0114,2.7021c0,.085-.0425.128-.1388.128h-.9401c-.0964,0-.1388-.043-.1388-.128l.0103-3.0754-.0103-3.0754c0-.0859.0103-.1285.0963-.1285h2.7875c.9393,0,1.6973.641,1.6973,1.5165,0,.8864-.6297,1.559-1.516,1.7618-.0642.0104-.0642.0534-.0217.0854.0859.0642.1926.203.3955.5018l1.4093,2.0078.2993.4059c.0529.0746-.0113.128-.0963.128ZM118.6444,5.4737h-.6937c-.1388,0-.2775.1067-.2775.2454l-.0114,2.1254c0,.0958.1077.1921.203.1921h.3634c.9506,0,1.5273-.3738,1.5273-1.399,0-.6726-.4484-1.1639-1.1111-1.1639Z" fill="#fff"/><path d="M130.1437,5.7512s-1.3026-.16-1.6868-.16h-.7476c-.1388,0-.2567.1067-.2567.2454l-.0104,1.9327c0,.043.0321.0751.0746.0751l1.8265-.0534c.0529,0,.1067.0213.1067.0745v.5018c0,.0538-.0538.075-.1067.075l-1.8265-.0533c-.0425,0-.0746.0321-.0746.0745l.0217,2.8621c0,.085-.0425.128-.1388.128h-.9401c-.0963,0-.1388-.043-.1388-.128l.0103-3.0754-.0103-3.0754c0-.0859.0425-.1285.1388-.1285h3.7588c.0859,0,.1605.0213.1605.1067v.5022c0,.0854-.0745.1067-.1605.0958Z" fill="#fff"/><path d="M134.0914,11.6458c-2.1569,0-2.7762-1.6019-2.7762-3.353,0-1.6977.6835-3.4171,2.8083-3.4171,2.1673,0,2.7875,1.6019,2.7875,3.3529,0,1.6982-.6834,3.4172-2.8196,3.4172ZM134.0706,5.335c-1.2923,0-1.4631,1.5485-1.4631,2.787,0,1.196.0745,3.0646,1.548,3.0646,1.2819,0,1.4632-1.559,1.4632-2.787,0-1.196-.0746-3.0646-1.5481-3.0646Z" fill="#fff"/><path d="M143.733,11.4538h-1.1856c-.0963,0-.1284-.0642-.1812-.128l-1.3348-2.4457c-.1491-.288-.3417-.4271-.5447-.4271h-.3955c-.0953,0-.2029.075-.2029.1708l.0113,2.7021c0,.085-.0424.128-.1387.128h-.9402c-.0963,0-.1388-.043-.1388-.128l.0104-3.0754-.0104-3.0754c0-.0859.0104-.1285.0963-.1285h2.7875c.9393,0,1.6973.641,1.6973,1.5165,0,.8864-.6297,1.559-1.516,1.7618-.0642.0104-.0642.0534-.0216.0854.0858.0642.1925.203.3955.5018l1.4093,2.0078.2992.4059c.0529.0746-.0113.128-.0963.128ZM140.8709,5.4737h-.6938c-.1387,0-.2775.1067-.2775.2454l-.0113,2.1254c0,.0958.1076.1921.2029.1921h.3634c.9506,0,1.5273-.3738,1.5273-1.399,0-.6726-.4484-1.1639-1.111-1.1639Z" fill="#fff"/><path d="M150.4805,11.5816c-.993,0-1.6661-.2242-2.1891-.4375-.0745-.0322-.0858-.1175-.0642-.1817l.1926-.7156c.0207-.0854.1171-.0854.1812-.0103.438.4592,1.1535.8222,1.9644.8222.5881,0,1.2498-.4484,1.2498-1.0785,0-1.6764-3.5776-.9827-3.5776-3.3958,0-1.0573.7372-1.6978,1.9332-1.6978.9609,0,1.7189.16,2.2107.1921.0745,0,.0953.0746.0745.1388l-.15.7155c-.0104.0746-.0963.0963-.1709.0534-.437-.2562-1.0034-.5979-1.9757-.5979-.4692,0-.9393.3096-.9393.8221,0,1.7086,3.588.9077,3.588,3.5455,0,1.3027-.993,1.8256-2.3278,1.8256Z" fill="#fff"/><path d="M159.0488,5.6233c-.0104.0854-.0529.1067-.1388.0958,0,0-1.0894-.1279-1.6227-.1279-.0746,0-.1501.0854-.1501.1922l-.0103,2.467.0103,3.0754c0,.085-.0424.128-.1387.128h-.9393c-.0963,0-.1388-.043-.1388-.128l.0104-3.0754-.0104-2.467c0-.1067-.0745-.1922-.15-.1922-.5334,0-1.6228.1279-1.6228.1279-.0858.0109-.1284-.0103-.1387-.0958l-.0321-.4701c-.0104-.0854.085-.1067.1708-.1067h4.7623c.0859,0,.1822.0213.1709.1067l-.0321.4701Z" fill="#fff"/><path d="M165.5989,11.4538h-1.1856c-.0964,0-.1285-.0642-.1812-.128l-1.3348-2.4457c-.1491-.288-.3417-.4271-.5447-.4271h-.3955c-.0953,0-.2029.075-.2029.1708l.0113,2.7021c0,.085-.0424.128-.1388.128h-.9401c-.0963,0-.1388-.043-.1388-.128l.0104-3.0754-.0104-3.0754c0-.0859.0104-.1285.0963-.1285h2.7875c.9393,0,1.6973.641,1.6973,1.5165,0,.8864-.6297,1.559-1.516,1.7618-.0642.0104-.0642.0534-.0217.0854.0858.0642.1925.203.3955.5018l1.4093,2.0078.2992.4059c.0529.0746-.0113.128-.0963.128ZM162.7369,5.4737h-.6938c-.1387,0-.2775.1067-.2775.2454l-.0113,2.1254c0,.0958.1076.1921.2029.1921h.3634c.9506,0,1.5273-.3738,1.5273-1.399,0-.6726-.4484-1.1639-1.111-1.1639Z" fill="#fff"/><path d="M172.6352,11.4538h-1.1422c-.0963,0-.1605-.043-.1925-.128,0,0-.1606-.4592-.2559-.7263l-.3417-.9077c-.0113-.0534-.0755-.0854-.1284-.0854h-1.9861c-.0642,0-.1067.0321-.1284.0854l-.5229,1.6444c-.0321.0854-.0756.1175-.1709.1175h-.7476c-.0963,0-.118-.0746-.0859-.1601l2.392-6.2046c.0425-.1388.758-.1388.8119,0l2.2314,5.5212c.1067.2667.3531.7155.3531.7155.0424.085.0103.128-.0859.128ZM169.6022,6.6806c-.0208-.0538-.085-.0538-.1066,0l-.8222,2.3702c-.0104.0538.0217.1072.0745.1072h1.6878c.0529,0,.085-.0534.0642-.1072l-.8977-2.3702Z" fill="#fff"/><path d="M178.0148,5.6233c-.0103.0854-.0528.1067-.1387.0958,0,0-1.0894-.1279-1.6227-.1279-.0746,0-.1501.0854-.1501.1922l-.0103,2.467.0103,3.0754c0,.085-.0424.128-.1387.128h-.9393c-.0963,0-.1388-.043-.1388-.128l.0104-3.0754-.0104-2.467c0-.1067-.0745-.1922-.1501-.1922-.5333,0-1.6227.1279-1.6227.1279-.0858.0109-.1284-.0103-.1387-.0958l-.0321-.4701c-.0104-.0854.085-.1067.1708-.1067h4.7623c.0859,0,.1822.0213.1708.1067l-.0321.4701Z" fill="#fff"/><path d="M183.6371,11.4538h-3.9835c-.0964,0-.1388-.043-.1388-.128l.0103-3.0754-.0103-3.0754c0-.0859.0424-.1285.1388-.1285h3.8655c.0858,0,.1605.0213.1605.1067v.5022c0,.0854-.0746.1067-.1605.0958,0,0-1.1422-.16-1.6868-.16h-.8543c-.1388,0-.2567.1067-.2567.2454l-.0104,1.9437c0,.0424.0321.0745.0746.0745l1.9228-.0534c.0529,0,.1067.0213.1067.0751v.5017c0,.0534-.0538.0746-.1067.0746l-1.9228-.0534c-.0425,0-.0746.0321-.0746.075l.0104,2.1782c0,.1388.1179.2563.2567.2563h.8543c.5446,0,1.8049-.203,1.8049-.203.0849-.0103.1595.0109.1595.0963v.5447c0,.0854-.0746.1067-.1595.1067Z" fill="#fff"/><path d="M190.0087,11.4859c-.1179,0-.4059-.2884-.4059-.2884-.0642-.0424-.1387-.0212-.1925.0109-.4049.2133-.993.3841-1.6444.3841-1.5056,0-2.8507-.8651-2.8507-3.3208,0-1.9969,1.2385-3.2251,2.8301-3.2251h1.836c.0858,0,.1284.0213.1284.1067l-.0746.6301c-.0103.0854-.0745.1284-.1605.1066-.5447-.1812-.8005-.2988-1.7407-.2988-.9496,0-1.4943.9185-1.4943,2.6804,0,2.0927.8543,2.755,1.8474,2.755.352,0,.9817-.3205.9817-.6835,0-.0854-.1067-1.7618-.1067-1.7618,0,0-.0207-.2243-.0207-.2563,0-.0854.0642-.1495.1387-.1495h1.0138c.0435,0,.0859.0321.0859.075v3.0858c0,.0854-.0963.1496-.1709.1496Z" fill="#fff"/><path d="M193.104,11.4538h-.9402c-.0963,0-.1387-.043-.1387-.128l.0103-3.0754-.0103-3.0754c0-.0859.0424-.1285.1387-.1285h.9402c.0963,0,.1388.0425.1388.1285l-.0114,3.0754.0114,3.0754c0,.085-.0425.128-.1388.128Z" fill="#fff"/><path d="M197.8484,11.5816c-1.5056,0-2.8507-.8646-2.8507-3.3209,0-1.9969,1.2384-3.2142,2.83-3.2142h1.836c.0859,0,.1284.0213.1284.1067l-.0745.6301c-.0103.0854-.0746.1284-.1605.1066-.5447-.1812-.8004-.2988-1.7407-.2988-.9496,0-1.4735.9185-1.4735,2.6804,0,2.0927.8335,2.7337,1.8265,2.7337.4484,0,.9818-.3096,1.3451-.641.0321-.0213.0746-.0424.1067-.0103l.2672.2987c.0321.0322.0321.0643,0,.0964-.4702.5338-1.2282.8325-2.0399.8325Z" fill="#fff"/><path d="M208.2593,8.8909l-.7788-.0108v2.4562c0,.0642-.0642.1175-.1284.1175h-2.4023c-1.1752,0-1.6982-.7477-1.6982-1.4844,0-.6405.523-1.2923,1.2282-1.4522-.5126-.2243-.7693-.6835-.7693-1.1748,0-.918.6409-1.3347,1.6122-1.3347h.9185c.0963,0,.1605.0321.1501.1175l-.0434.4059c-.0104.0958-.0529.1279-.1388.0958,0,0-.3417-.2346-.6079-.2346-.5239,0-.8222.2667-.8335.9718,0,.598.3417,1.0573.9506,1.0573h.7476v-.6835c0-.0858.0538-.1284.1388-.1175l.7476.0854c.0642,0,.1284.0425.1284.1067v.6089h.7477c.0953,0,.1171.0424.1171.1066v.2562c0,.0638,0,.1067-.0859.1067ZM206.4658,8.8801l-1.0148-.0104c-.6296,0-1.0138.5229-1.0138,1.0355-.0113.598.3625,1.1639.9175,1.1639.5126,0,.7911-.0316,1.111-.1171v-2.0719Z" fill="#fff"/><path d="M86.5994,23.9116h-.9397c-.0958,0-.1387-.0424-.1387-.1284l.0108-3.0754-.0108-3.0754c0-.085.0429-.1285.1387-.1285h.9397c.0963,0,.1392.0435.1392.1285l-.0108,3.0754.0108,3.0754c0,.0859-.0429.1284-.1392.1284Z" fill="#fff"/><path d="M93.7055,22.2031v1.7189c0,.1708-.5447.1605-.5872.0963l-3.4171-4.6774c-.0534-.0642-.1284-.0321-.1284.0321l.1284,4.3677c.0103.0963-.0109.1708-.1072.1708h-.7579c-.0964,0-.1175-.0745-.1175-.1708l.1175-4.5282-.0213-1.5801c0-.085.0424-.1285.1387-.1285h.598c.0745,0,.1496.0321.1817.0859l3.0112,4.1109c.0746.0963.1921.0538.1921-.0424l-.0853-3.9826c0-.0963.0212-.1719.1066-.1719h.7051c.0854,0,.1067.0756.1067.1719l-.0642,4.5272Z" fill="#fff"/><path d="M100.3037,18.0808c-.0108.0859-.0533.1067-.1387.0963,0,0-1.0894-.1284-1.6231-.1284-.0751,0-.1496.0859-.1496.1925l-.0108,2.4666.0108,3.0754c0,.0859-.0429.1284-.1388.1284h-.9396c-.0963,0-.1388-.0424-.1388-.1284l.0104-3.0754-.0104-2.4666c0-.1066-.075-.1925-.1496-.1925-.5338,0-1.6231.1284-1.6231.1284-.0854.0104-.1284-.0103-.1387-.0963l-.0321-.4691c-.0109-.0859.0854-.1077.1708-.1077h4.7628c.0854,0,.1812.0217.1708.1077l-.0321.4691Z" fill="#fff"/><path d="M105.9236,23.9116h-3.983c-.0958,0-.1388-.0424-.1388-.1284l.0109-3.0754-.0109-3.0754c0-.085.043-.1285.1388-.1285h3.866c.085,0,.1605.0217.1605.1077v.5012c0,.0859-.0755.1067-.1605.0963,0,0-1.1426-.1605-1.6873-.1605h-.8543c-.1388,0-.2562.1076-.2562.2464l-.0109,1.9427c0,.0434.0321.0755.0751.0755l1.9219-.0538c.0528,0,.1066.0217.1066.0746v.5022c0,.0538-.0538.0746-.1066.0746l-1.9219-.0529c-.043,0-.0751.0321-.0751.0745l.0109,2.1787c0,.1388.1174.2559.2562.2559h.8543c.5447,0,1.8044-.203,1.8044-.203.0859-.0103.1605.0104.1605.0963v.5447c0,.085-.0745.1066-.1605.1066Z" fill="#fff"/><path d="M112.6777,23.9116h-1.1857c-.0963,0-.1274-.0642-.1812-.1284l-1.3347-2.4449c-.1501-.2888-.3417-.4275-.5447-.4275h-.3955c-.0953,0-.2029.0745-.2029.1708l.0113,2.7016c0,.0859-.0434.1284-.1388.1284h-.9401c-.0963,0-.1388-.0424-.1388-.1284l.0104-3.0754-.0104-3.0754c0-.085.0104-.1285.0963-.1285h2.7866c.9402,0,1.6982.641,1.6982,1.517,0,.8864-.6297,1.5585-1.516,1.7614-.0642.0114-.0642.0538-.0217.0859.0859.0642.1926.203.3955.5022l1.4093,2.0069.2993.4059c.0529.0746-.0113.1284-.0963.1284ZM109.8156,17.9316h-.6938c-.1388,0-.2775.1067-.2775.2454l-.0113,2.1249c0,.0963.1076.1925.2029.1925h.3634c.9506,0,1.5273-.3738,1.5273-1.399,0-.6731-.4484-1.1639-1.111-1.1639Z" fill="#fff"/><path d="M119.2854,22.2031v1.7189c0,.1708-.5446.1605-.5871.0963l-3.4171-4.6774c-.0538-.0642-.1285-.0321-.1285.0321l.1285,4.3677c.0103.0963-.0104.1708-.1067.1708h-.758c-.0963,0-.1179-.0745-.1179-.1708l.1179-4.5282-.0217-1.5801c0-.085.0424-.1285.1387-.1285h.5976c.0755,0,.1501.0321.1822.0859l3.0112,4.1109c.0745.0963.1925.0538.1925-.0424l-.0859-3.9826c0-.0963.0217-.1719.1067-.1719h.7051c.085,0,.1066.0756.1066.1719l-.0642,4.5272Z" fill="#fff"/><path d="M126.4935,23.9116h-1.1422c-.0963,0-.1605-.0424-.1925-.1284,0,0-.1605-.4588-.2558-.7258l-.3418-.9081c-.0113-.0529-.0755-.085-.1284-.085h-1.9861c-.0642,0-.1066.0321-.1284.085l-.5229,1.6454c-.0321.0849-.0755.117-.1708.117h-.7477c-.0963,0-.118-.0745-.0858-.1605l2.392-6.2036c.0434-.1388.7579-.1388.8118,0l2.2315,5.5202c.1066.2672.353.7155.353.7155.0425.0859.0104.1284-.0858.1284ZM123.4606,19.1381c-.0208-.0529-.085-.0529-.1067,0l-.8222,2.3712c-.0103.0529.0218.1066.0746.1066h1.6878c.0529,0,.085-.0537.0642-.1066l-.8977-2.3712Z" fill="#fff"/><path d="M131.8731,18.0808c-.0103.0859-.0529.1067-.1388.0963,0,0-1.0893-.1284-1.6227-.1284-.0745,0-.15.0859-.15.1925l-.0104,2.4666.0104,3.0754c0,.0859-.0425.1284-.1388.1284h-.9393c-.0963,0-.1387-.0424-.1387-.1284l.0103-3.0754-.0103-2.4666c0-.1066-.0746-.1925-.1501-.1925-.5334,0-1.6227.1284-1.6227.1284-.0859.0104-.1284-.0103-.1388-.0963l-.0321-.4691c-.0103-.0859.085-.1077.1709-.1077h4.7622c.0859,0,.1822.0217.1709.1077l-.0321.4691Z" fill="#fff"/><path d="M134.452,23.9116h-.9402c-.0963,0-.1387-.0424-.1387-.1284l.0103-3.0754-.0103-3.0754c0-.085.0424-.1285.1387-.1285h.9402c.0963,0,.1387.0435.1387.1285l-.0113,3.0754.0113,3.0754c0,.0859-.0424.1284-.1387.1284Z" fill="#fff"/><path d="M139.1378,24.1042c-2.1569,0-2.7762-1.602-2.7762-3.353,0-1.6981.6835-3.4171,2.8083-3.4171,2.1673,0,2.7875,1.6009,2.7875,3.3529,0,1.6973-.6834,3.4172-2.8196,3.4172ZM139.117,17.7929c-1.2923,0-1.4631,1.548-1.4631,2.7866,0,1.197.0745,3.065,1.548,3.065,1.2819,0,1.4632-1.5585,1.4632-2.7866,0-1.196-.0746-3.065-1.5481-3.065Z" fill="#fff"/><path d="M148.6803,22.2031v1.7189c0,.1708-.5447.1605-.5871.0963l-3.4172-4.6774c-.0538-.0642-.1284-.0321-.1284.0321l.1284,4.3677c.0104.0963-.0103.1708-.1066.1708h-.758c-.0963,0-.118-.0745-.118-.1708l.118-4.5282-.0217-1.5801c0-.085.0425-.1285.1388-.1285h.5975c.0756,0,.1501.0321.1822.0859l3.0112,4.1109c.0746.0963.1926.0538.1926-.0424l-.0859-3.9826c0-.0963.0218-.1719.1067-.1719h.705c.085,0,.1067.0756.1067.1719l-.0642,4.5272Z" fill="#fff"/><path d="M155.8884,23.9116h-1.1422c-.0963,0-.1605-.0424-.1925-.1284,0,0-.1606-.4588-.2559-.7258l-.3417-.9081c-.0113-.0529-.0755-.085-.1284-.085h-1.9861c-.0642,0-.1067.0321-.1284.085l-.5229,1.6454c-.0321.0849-.0756.117-.1709.117h-.7476c-.0963,0-.118-.0745-.0859-.1605l2.392-6.2036c.0434-.1388.758-.1388.8119,0l2.2315,5.5202c.1066.2672.353.7155.353.7155.0424.0859.0103.1284-.0859.1284ZM152.8554,19.1381c-.0208-.0529-.085-.0529-.1066,0l-.8222,2.3712c-.0104.0529.0217.1066.0745.1066h1.6878c.0529,0,.085-.0537.0642-.1066l-.8977-2.3712Z" fill="#fff"/><path d="M161.2841,23.9116h-3.6947c-.0963,0-.1388-.0424-.1388-.1284l.0104-3.0754-.0104-3.0754c0-.085.0425-.1285.1388-.1285h.9401c.0954,0,.1388.0435.1388.1285l-.0113,3.0754.0113,2.4033c0,.1388.1171.2559.2558.2559h.7477c.5342,0,1.6123-.203,1.6123-.203.0858-.0103.1605.0104.1605.0963v.5447c0,.085-.0746.1066-.1605.1066Z" fill="#fff"/><path d="M168.0966,24.0401c-.993,0-1.6661-.2247-2.189-.4381-.0746-.0321-.0859-.1171-.0643-.1812l.1926-.7155c.0208-.0859.1171-.0859.1812-.0113.438.4597,1.1535.8222,1.9644.8222.5881,0,1.2498-.4484,1.2498-1.0781,0-1.6764-3.5776-.9827-3.5776-3.3954,0-1.0572.7372-1.6981,1.9332-1.6981.9609,0,1.7189.1595,2.2108.1916.0745,0,.0953.0756.0745.1398l-.15.7145c-.0104.0756-.0963.0963-.1709.0538-.437-.2567-1.0034-.5984-1.9757-.5984-.4692,0-.9393.3105-.9393.8231,0,1.7086,3.588.9072,3.588,3.5446,0,1.3027-.993,1.8266-2.3278,1.8266Z" fill="#fff"/><path d="M176.665,18.0808c-.0104.0859-.0529.1067-.1388.0963,0,0-1.0893-.1284-1.6227-.1284-.0746,0-.1501.0859-.1501.1925l-.0103,2.4666.0103,3.0754c0,.0859-.0424.1284-.1387.1284h-.9393c-.0963,0-.1388-.0424-.1388-.1284l.0104-3.0754-.0104-2.4666c0-.1066-.0745-.1925-.15-.1925-.5334,0-1.6228.1284-1.6228.1284-.0858.0104-.1284-.0103-.1387-.0963l-.0321-.4691c-.0104-.0859.085-.1077.1708-.1077h4.7623c.0859,0,.1822.0217.1709.1077l-.0321.4691Z" fill="#fff"/><path d="M183.0481,18.4339l-.085,3.5662c-.0321,1.3565-.7798,2.0824-2.2533,2.0824-1.634,0-2.4986-.7155-2.5204-2.0824l-.0424-3.6522-.0104-.7155c0-.085.0425-.1285.1388-.1285h.9714c.0963,0,.1387.0435.1387.1285l-.0217.7155v3.5776c0,1.0148.6409,1.5698,1.3885,1.5698.6305,0,1.3564-.4059,1.3451-1.4632l-.0425-3.5662c0-.3314-.0424-.7901-.0424-.7901-.0104-.0963.0103-.1719.1066-.1719h.8439c.0963,0,.1171.0756.1171.1719,0,0-.0321.4267-.0321.758Z" fill="#fff"/><path d="M187.1505,23.9541c-1.1214,0-1.2923-.085-1.5056-.085-.2775,0-.2567.0529-.5022.0529-.0642,0-.1388-.0104-.1388-.1067l.0104-3.1075-.0104-3.0754c0-.085.0425-.1285.1388-.1285h2.2749c1.3772,0,2.6478,1.0252,2.6478,3.0868,0,1.7407-1.0354,3.3633-2.9149,3.3633ZM187.108,17.9534h-.7051c-.1284,0-.1925.0953-.1925.2341l-.0104,2.5317.0104,2.2212c.0113.4049.2888.5333.7693.5333,1.5159,0,1.7727-1.8256,1.7727-2.9574,0-1.9654-.8542-2.5629-1.6443-2.5629Z" fill="#fff"/><path d="M192.8804,23.9116h-.9402c-.0963,0-.1388-.0424-.1388-.1284l.0104-3.0754-.0104-3.0754c0-.085.0425-.1285.1388-.1285h.9402c.0953,0,.1387.0435.1387.1285l-.0113,3.0754.0113,3.0754c0,.0859-.0434.1284-.1387.1284Z" fill="#fff"/><path d="M199.1501,23.9116h-3.9835c-.0963,0-.1388-.0424-.1388-.1284l.0104-3.0754-.0104-3.0754c0-.085.0425-.1285.1388-.1285h3.8655c.0859,0,.1605.0217.1605.1077v.5012c0,.0859-.0745.1067-.1605.0963,0,0-1.1422-.1605-1.6868-.1605h-.8543c-.1388,0-.2567.1076-.2567.2464l-.0104,1.9427c0,.0434.0321.0755.0746.0755l1.9228-.0538c.0529,0,.1067.0217.1067.0746v.5022c0,.0538-.0538.0746-.1067.0746l-1.9228-.0529c-.0425,0-.0746.0321-.0746.0745l.0104,2.1787c0,.1388.1179.2559.2567.2559h.8543c.5447,0,1.8049-.203,1.8049-.203.085-.0103.1595.0104.1595.0963v.5447c0,.085-.0745.1066-.1595.1066Z" fill="#fff"/><path d="M202.9807,24.0401c-.9931,0-1.6662-.2247-2.1891-.4381-.0745-.0321-.0858-.1171-.0642-.1812l.1925-.7155c.0208-.0859.1171-.0859.1812-.0113.4381.4597,1.1536.8222,1.9645.8222.5881,0,1.2497-.4484,1.2497-1.0781,0-1.6764-3.5775-.9827-3.5775-3.3954,0-1.0572.7372-1.6981,1.9332-1.6981.9609,0,1.7189.1595,2.2098.1916.0755,0,.0963.0756.0755.1398l-.1501.7145c-.0103.0756-.0953.0963-.1708.0538-.438-.2567-1.0034-.5984-1.9748-.5984-.4701,0-.9401.3105-.9401.8231,0,1.7086,3.588.9072,3.588,3.5446,0,1.3027-.9931,1.8266-2.3278,1.8266Z" fill="#fff"/><path d="M219.8911,28.4957V.4838c0-.2672.2147-.4838.4833-.4838h0c.2667,0,.4819.2166.4819.4838h0v28.0139c0,.2652-.2171.4823-.4838.4823h0c-.2667,0-.4838-.2171-.4814-.4843h0Z" fill="#fff"/></svg>