<svg xmlns="http://www.w3.org/2000/svg" viewBox="0 0 339.44 30"><defs><style>.cls-1{fill:none;stroke:#006b96;stroke-linecap:round;}.cls-2{isolation:isolate;}.cls-3{fill:#006b96;}.cls-4{fill:#3095b4;}.cls-5{fill:#005581;}</style></defs><title>ISP</title><g id="Layer_2" data-name="Layer 2"><g id="Layer_1-2" data-name="Layer 1"><path class="cls-1" d="M75.4.5v29M226.1.5v29"/><g class="cls-2"><path class="cls-3" d="M93 12.1a1.46 1.46 0 0 1-.9.6 5 5 0 0 1-1.2.2 3.59 3.59 0 0 1-1.1-.2 1.46 1.46 0 0 1-.9-.6 5.25 5.25 0 0 1-.7-1.1 3.9 3.9 0 0 1-.2-1.6 5.9 5.9 0 0 1 .2-1.4 4.37 4.37 0 0 1 .6-1 5.5 5.5 0 0 1 .9-.7 2.34 2.34 0 0 1 1.2-.2h1.9c.1 0 .1 0 .1.1l-.1.7a.1.1 0 0 1-.1.1h-.1c-.1 0-.3-.1-.4-.1s-.2-.1-.4-.1a.6.6 0 0 1-.4-.1h-.6a1.08 1.08 0 0 0-1.1.7 4.14 4.14 0 0 0-.4 2.1 6.15 6.15 0 0 0 .1 1.4 1.88 1.88 0 0 0 .4.9 2.65 2.65 0 0 0 .6.5 1.7 1.7 0 0 0 .7.1 1.85 1.85 0 0 0 .7-.2 1.79 1.79 0 0 0 .7-.5h.1l.4.4zM98.8 12.8h-4.2c-.1 0-.1 0-.1-.1V6.3c0-.1 0-.1.1-.1h4.1v.7h-.1a2 2 0 0 1-.7-.1 1.27 1.27 0 0 1-.6-.1h-1.4c-.1 0-.1 0-.2.1s-.1.1-.1.2v2c0 .1 0 .1.1.1l2-.1c.1 0 .1 0 .1.1v.5c0 .1 0 .1-.1.1l-2-.1c-.1 0-.1 0-.1.1V12c0 .1 0 .1.1.2s.1.1.2.1h1.4a1.27 1.27 0 0 0 .6-.1c.2 0 .5-.1.7-.1h.1v.1l.1.6zM105.5 11v1.8a.1.1 0 0 1-.1.1h-.5l-3.5-4.8h-.1c-.1 0 0 0 0 .1l.1 4.5v.1h-.9c-.1 0-.1-.1-.1-.2l.1-4.7V6.3c0-.1 0-.1.1-.1h.6c.1 0 .1 0 .2.1l3.1 4.3a.1.1 0 0 0 .2 0l-.1-4.1v-.1h.9V11zM112.2 6.8a.1.1 0 0 1-.1.1 1.27 1.27 0 0 1-.6-.1h-1.1a.1.1 0 0 0-.1.1v5.9c0 .1 0 .1-.1.1h-1c-.1 0-.1 0-.1-.1V6.9l-.1-.1h-1.1a1.27 1.27 0 0 0-.6.1c-.1 0-.1 0-.1-.1v-.6h5.1s.1 0 0 .1zM117.8 12.8h-4.2c-.1 0-.1 0-.1-.1V6.3c0-.1 0-.1.1-.1h4.1v.7h-.1a2 2 0 0 1-.7-.1 1.27 1.27 0 0 1-.6-.1h-1.4c-.1 0-.1 0-.2.1s-.1.1-.1.2v2c0 .1 0 .1.1.1l2-.1c.1 0 .1 0 .1.1v.5c0 .1 0 .1-.1.1l-2-.1c-.1 0-.1 0-.1.1V12c0 .1 0 .1.1.2s.1.1.2.1h1.4a1.27 1.27 0 0 0 .6-.1c.2 0 .5-.1.7-.1h.1v.1l.1.6c.1-.1.1 0 0 0zM124.7 12.7c0 .1 0 .1-.1.1h-1.3a.1.1 0 0 0-.1-.1l-1.4-2.5a.72.72 0 0 0-.6-.4h-.5l-.1.1v2.8c0 .1 0 .1-.1.1h-1c-.1 0-.1 0-.1-.1V6.2h3a1.7 1.7 0 0 1 .7.1l.6.3a1 1 0 0 1 .4.5 1.27 1.27 0 0 1 .1.6 1.59 1.59 0 0 1-.4 1.2 2.38 2.38 0 0 1-1.1.6c-.1 0-.1 0 0 .1l.2.2c.1.1.1.2.3.3l1.5 2.1zm-1.9-4.9a1.4 1.4 0 0 0-.3-.9.83.83 0 0 0-.8-.3h-.7c-.1 0-.1 0-.2.1s-.1.1-.1.2v2.2c0 .1 0 .1.1.1l.1.1h.4a2.13 2.13 0 0 0 1.2-.3 3 3 0 0 0 .3-1.2z"/></g><g class="cls-2"><path class="cls-3" d="M134.1 6.9h-.1a1.48 1.48 0 0 1-.7-.1 1.27 1.27 0 0 1-.6-.1c-.2-.1-.3 0-.4 0h-.8c-.1 0-.1 0-.2.1s-.1.1-.1.2v2c0 .1 0 .1.1.1l1.9-.1c.1 0 .1 0 .1.1v.5c0 .1 0 .1-.1.1l-1.9-.1c-.1 0-.1 0-.1.1v3c0 .1 0 .1-.1.1h-1c-.1 0-.1 0-.1-.1V6.3c0-.1 0-.1.1-.1h4v.7zM140.6 9.5a6.15 6.15 0 0 1-.1 1.3 2.81 2.81 0 0 1-.5 1.1 2.36 2.36 0 0 1-.9.8 3.42 3.42 0 0 1-2.8 0 1.76 1.76 0 0 1-.9-.8 3.7 3.7 0 0 1-.5-1.1 5.28 5.28 0 0 1-.1-1.3 6.15 6.15 0 0 1 .1-1.3 2.81 2.81 0 0 1 .5-1.1 2.36 2.36 0 0 1 .9-.8 3.42 3.42 0 0 1 2.8 0 1.76 1.76 0 0 1 .9.8 3.7 3.7 0 0 1 .5 1.1c0 .4.1.8.1 1.3zm-1.4.1v-1a3 3 0 0 0-.2-1 2.18 2.18 0 0 0-.5-.8 1.22 1.22 0 0 0-.9-.3 1.14 1.14 0 0 0-.8.3 1.79 1.79 0 0 0-.5.7 2.92 2.92 0 0 0-.2.9v2a3 3 0 0 0 .2 1 2.18 2.18 0 0 0 .5.8 1.22 1.22 0 0 0 .9.3 1.14 1.14 0 0 0 .8-.3 1.79 1.79 0 0 0 .5-.7 2.92 2.92 0 0 0 .2-.9zM147.5 12.7c0 .1 0 .1-.1.1h-1.3a.1.1 0 0 0-.1-.1l-1.4-2.5a.72.72 0 0 0-.6-.4h-.5l-.1.1v2.8c0 .1 0 .1-.1.1h-1c-.1 0-.1 0-.1-.1V6.2h3a1.7 1.7 0 0 1 .7.1l.6.3a1 1 0 0 1 .4.5 1.27 1.27 0 0 1 .1.6 1.59 1.59 0 0 1-.4 1.2 2.38 2.38 0 0 1-1.1.6c-.1 0-.1 0 0 .1l.2.2c.1.1.1.2.3.3l1.5 2.1zm-1.9-4.9a1.4 1.4 0 0 0-.3-.9.83.83 0 0 0-.8-.3h-.7c-.1 0-.1 0-.2.1s-.1.1-.1.2v2.2c0 .1 0 .1.1.1l.1.1h.4a2.13 2.13 0 0 0 1.2-.3 3 3 0 0 0 .3-1.2z"/></g><g class="cls-2"><path class="cls-3" d="M157.4 11.1a2.92 2.92 0 0 1-.2.9 2.65 2.65 0 0 1-.5.6 1.14 1.14 0 0 1-.8.3 3.08 3.08 0 0 1-1 .1 4.89 4.89 0 0 1-1.3-.1 4.65 4.65 0 0 1-.9-.3.1.1 0 0 1-.1-.1v-.1l.2-.7a.1.1 0 0 1 .2 0 3.49 3.49 0 0 0 .9.6 2.34 2.34 0 0 0 1.2.2.9.9 0 0 0 .5-.1c.2-.1.3-.1.4-.2a1.38 1.38 0 0 0 .3-.4.6.6 0 0 0 .1-.4.91.91 0 0 0-.3-.7 1.61 1.61 0 0 0-.7-.4l-.9-.3a3.55 3.55 0 0 1-.9-.4 4.35 4.35 0 0 1-.7-.6 1.69 1.69 0 0 1-.3-1 1.73 1.73 0 0 1 .5-1.3 2.07 2.07 0 0 1 1.5-.5 5.28 5.28 0 0 1 1.3.1 3.75 3.75 0 0 0 1 .1h.1v.1l-.2.7c0 .1-.1.1-.2.1s-.2-.1-.4-.2-.3-.1-.4-.2a1.08 1.08 0 0 0-.6-.1c-.2 0-.4-.1-.7-.1a1.85 1.85 0 0 0-.7.2.71.71 0 0 0-.3.6.91.91 0 0 0 .3.7 1.61 1.61 0 0 0 .7.4l.9.3a3.55 3.55 0 0 1 .9.4 2.34 2.34 0 0 1 .7.7 1.25 1.25 0 0 1 .4 1.1zM163.6 6.8a.1.1 0 0 1-.1.1 1.27 1.27 0 0 1-.6-.1h-1.1a.1.1 0 0 0-.1.1v5.9c0 .1 0 .1-.1.1h-1c-.1 0-.1 0-.1-.1V6.9l-.1-.1h-1.1a1.27 1.27 0 0 0-.6.1c-.1 0-.1 0-.1-.1v-.6h5.1s.1 0 0 .1zM170.3 12.7c0 .1 0 .1-.1.1h-1.3a.1.1 0 0 0-.1-.1l-1.4-2.5a.72.72 0 0 0-.6-.4h-.5l-.1.1v2.8c0 .1 0 .1-.1.1h-1c-.1 0-.1 0-.1-.1V6.2h3a1.7 1.7 0 0 1 .7.1l.6.3a1 1 0 0 1 .4.5 1.27 1.27 0 0 1 .1.6 1.59 1.59 0 0 1-.4 1.2 2.38 2.38 0 0 1-1.1.6c-.1 0-.1 0 0 .1l.2.2c.1.1.1.2.3.3l1.5 2.1zm-1.9-4.9a1.4 1.4 0 0 0-.3-.9.83.83 0 0 0-.8-.3h-.7c-.1 0-.1 0-.2.1s-.1.1-.1.2v2.2c0 .1 0 .1.1.1l.1.1h.4a2.13 2.13 0 0 0 1.2-.3 1.92 1.92 0 0 0 .3-1.2zM177 12.7c.1.1 0 .1-.1.1h-1.2c-.1 0-.2 0-.2-.1s-.1-.2-.1-.3a.35.35 0 0 0-.1-.2.35.35 0 0 0-.1-.2l-.4-.9a.1.1 0 0 0-.1-.1h-2.1c-.1 0-.1 0-.1.1l-.5 1.7c0 .1-.1.1-.2.1h-.9v-.1l2.5-6.4.1-.1h.6c.1 0 .1 0 .1.1l2.3 5.7a.35.35 0 0 0 .1.2.35.35 0 0 0 .1.2c.2 0 .2.1.3.2zm-3.3-4.8h-.1l-.9 2.5v.1h1.8c.1 0 .1 0 .1-.1zM181.9 6.8a.1.1 0 0 1-.1.1 1.27 1.27 0 0 1-.6-.1h-1.1a.1.1 0 0 0-.1.1v5.9c0 .1 0 .1-.1.1h-1c-.1 0-.1 0-.1-.1V6.9l-.1-.1h-1.1a1.27 1.27 0 0 0-.6.1c-.1 0-.1 0-.1-.1v-.6h5.1s.1 0 0 .1zM187.5 12.8h-4.2c-.1 0-.1 0-.1-.1V6.3c0-.1 0-.1.1-.1h4.1v.7h-.1a2 2 0 0 1-.7-.1 1.27 1.27 0 0 1-.6-.1c-.2-.1-.4 0-.5 0h-.9c-.1 0-.1 0-.2.1s-.1.1-.1.2v2c0 .1 0 .1.1.1l2-.1c.1 0 .1 0 .1.1v.5c0 .1 0 .1-.1.1l-2-.1c-.1 0-.1 0-.1.1V12c0 .1 0 .1.1.2s.1.1.2.1h1.4a1.27 1.27 0 0 0 .6-.1c.2 0 .5-.1.7-.1h.1v.1l.1.6c.1-.1.1 0 0 0zM193.9 12.8h-.2l-.1-.1c-.1 0-.1-.1-.2-.2h-.2a6.88 6.88 0 0 1-.8.3 3.08 3.08 0 0 1-1 .1 3.59 3.59 0 0 1-1.1-.2 1.46 1.46 0 0 1-.9-.6 5.25 5.25 0 0 1-.7-1.1 4.14 4.14 0 0 1-.2-1.6 5.9 5.9 0 0 1 .2-1.4 4.37 4.37 0 0 1 .6-1 7.05 7.05 0 0 1 .9-.7 2.34 2.34 0 0 1 1.2-.2h1.9c.1 0 .1 0 .1.1l-.1.7a.1.1 0 0 1-.1.1h-.1c-.1 0-.3-.1-.4-.1s-.2-.1-.4-.1a.6.6 0 0 1-.4-.1h-.6a1.08 1.08 0 0 0-1.1.7 4.14 4.14 0 0 0-.4 2.1 5.9 5.9 0 0 0 .2 1.4 1.88 1.88 0 0 0 .4.9 2.65 2.65 0 0 0 .6.5 1.7 1.7 0 0 0 .7.1.37.37 0 0 0 .3-.1c.1 0 .2-.1.3-.2s.2-.1.3-.2a.37.37 0 0 0 .1-.3v-.9a3.08 3.08 0 0 0-.1-.9v-.3c0-.1 0-.2.1-.2h1c.1 0 .1 0 .1.1v3.2c.2.1.2.2.1.2zM197 12.8h-1c-.1 0-.1 0-.1-.1V6.3c0-.1 0-.1.1-.1h1c.1 0 .1 0 .1.1v6.4c0 .1 0 .1-.1.1zM204 12.1a1.46 1.46 0 0 1-.9.6 5 5 0 0 1-1.2.2 3.59 3.59 0 0 1-1.1-.2 1.46 1.46 0 0 1-.9-.6 5.25 5.25 0 0 1-.7-1.1 3.9 3.9 0 0 1-.2-1.6 5.9 5.9 0 0 1 .2-1.4 4.37 4.37 0 0 1 .6-1 5.5 5.5 0 0 1 .9-.7 2.34 2.34 0 0 1 1.2-.2h1.9c.1 0 .1 0 .1.1l-.1.7a.1.1 0 0 1-.1.1h-.1c-.1 0-.3-.1-.4-.1s-.2-.1-.4-.1a.6.6 0 0 1-.4-.1h-.6a1.08 1.08 0 0 0-1.1.7 4.14 4.14 0 0 0-.4 2.1 6.15 6.15 0 0 0 .1 1.4 1.88 1.88 0 0 0 .4.9 2.65 2.65 0 0 0 .6.5 1.7 1.7 0 0 0 .7.1 1.85 1.85 0 0 0 .7-.2 1.79 1.79 0 0 0 .7-.5h.1l.4.4zM212.7 10c0 .1 0 .1-.1.1h-.8v2.6h-2.6a2 2 0 0 1-.8-.1 2.19 2.19 0 0 1-.5-.3 2.19 2.19 0 0 1-.3-.5 1.27 1.27 0 0 1-.1-.6.9.9 0 0 1 .1-.5 1.38 1.38 0 0 1 .3-.4l.4-.4a.76.76 0 0 1 .5-.2 1 1 0 0 1-.6-.5 1.85 1.85 0 0 1-.2-.7 1.1 1.1 0 0 1 .5-1 2.13 2.13 0 0 1 1.2-.3h1c.1 0 .2 0 .2.1v.4a.1.1 0 0 1-.1.1c-.1 0-.1-.1-.2-.1s-.1-.1-.2-.1h-.2a.85.85 0 0 0-.6.2 1.55 1.55 0 0 0-.2.8 1.14 1.14 0 0 0 .3.8.91.91 0 0 0 .7.3h.8V9c0-.1 0-.1.1-.1l.8.1h.1v.7h.8c.1 0 .1 0 .1.1v.2zm-1.9.1h-1c-.2 0-.3 0-.4.1s-.2.1-.3.2-.2.2-.2.3-.1.3-.1.4 0 .3.1.4.1.3.2.4l.3.3a.6.6 0 0 0 .4.1h.6a.9.9 0 0 0 .5-.1v-2.1z"/></g><g class="cls-2"><path class="cls-3" d="M89.3 25.7h-1c-.1 0-.1 0-.1-.1v-6.4c0-.1 0-.1.1-.1h1c.1 0 .1 0 .1.1v6.4c.1.1 0 .1-.1.1zM96.6 23.9v1.8a.1.1 0 0 1-.1.1H96L92.5 21h-.1c-.1 0 0 0 0 .1l.1 4.5v.1h-.9c-.1 0-.1-.1-.1-.2l.1-4.7v-1.6c0-.1 0-.1.1-.1h.6c.1 0 .1 0 .2.1l3.1 4.3a.1.1 0 1 0 .2 0l-.1-4.1v-.1h.9v4.6zM103.3 19.7a.1.1 0 0 1-.1.1 1.27 1.27 0 0 1-.6-.1h-1.1a.1.1 0 0 0-.1.1v5.9c0 .1 0 .1-.1.1h-1c-.1 0-.1 0-.1-.1v-5.9l-.1-.1H99a1.27 1.27 0 0 0-.6.1c-.1 0-.1 0-.1-.1v-.6h5.1s.1 0 0 .1zM108.9 25.7h-4.2c-.1 0-.1 0-.1-.1v-6.4c0-.1 0-.1.1-.1h4.1v.7h-.1a2 2 0 0 1-.7-.1 1.27 1.27 0 0 1-.6-.1H106c-.1 0-.1 0-.2.1s-.1.1-.1.2v2c0 .1 0 .1.1.1l2-.1c.1 0 .1 0 .1.1v.5c0 .1 0 .1-.1.1l-2-.1c-.1 0-.1 0-.1.1v2.3c0 .1 0 .1.1.2s.1.1.2.1h1.4a1.27 1.27 0 0 0 .6-.1c.2 0 .5-.1.7-.1h.1v.1l.1.6c.1-.1.1 0 0 0zM115.8 25.6c0 .1 0 .1-.1.1h-1.3a.1.1 0 0 0-.1-.1l-1.4-2.5a.72.72 0 0 0-.6-.4h-.5l-.1.1v2.8c0 .1 0 .1-.1.1h-1c-.1 0-.1 0-.1-.1v-6.5h3a1.7 1.7 0 0 1 .7.1l.6.3a1 1 0 0 1 .4.5 1.27 1.27 0 0 1 .1.6 1.59 1.59 0 0 1-.4 1.2 2.38 2.38 0 0 1-1.1.6c-.1 0-.1 0 0 .1l.2.2c.1.1.1.2.3.3l1.5 2.1zm-1.9-4.9a1.4 1.4 0 0 0-.3-.9.83.83 0 0 0-.8-.3h-.7c-.1 0-.1 0-.2.1s-.1.1-.1.2V22c0 .1 0 .1.1.1l.1.1h.4a2.13 2.13 0 0 0 1.2-.3 3 3 0 0 0 .3-1.2zM122.2 23.9v1.8a.1.1 0 0 1-.1.1h-.5l-3.5-4.8h-.1c-.1 0 0 0 0 .1l.1 4.5v.1h-.9c-.1 0-.1-.1-.1-.2l.1-4.7v-1.6c0-.1 0-.1.1-.1h.6c.1 0 .1 0 .2.1l3.1 4.3a.1.1 0 0 0 .2 0l-.1-4.1v-.1h.9v4.6zM129.3 25.6c.1.1 0 .1-.1.1H128c-.1 0-.2 0-.2-.1s-.1-.2-.1-.3a11181712.3 11181712.3 0 0 0-.2-.4l-.4-.9a.1.1 0 0 0-.1-.1h-2.1c-.1 0-.1 0-.1.1l-.5 1.7c0 .1-.1.1-.2.1h-.9v-.1l2.5-6.4.1-.1h.6c.1 0 .1 0 .1.1l2.3 5.7a11181699.58 11181699.58 0 0 1 .2.4c.2 0 .2.1.3.2zm-3.3-4.8h-.1l-.9 2.5v.1h1.8c.1 0 .1 0 .1-.1zM134.2 19.7a.1.1 0 0 1-.1.1 1.27 1.27 0 0 1-.6-.1h-1.1a.1.1 0 0 0-.1.1v5.9c0 .1 0 .1-.1.1h-1c-.1 0-.1 0-.1-.1v-5.9l-.1-.1h-1.1a1.27 1.27 0 0 0-.6.1c-.1 0-.1 0-.1-.1v-.6h5.1s.1 0 0 .1zM136.6 25.7h-1c-.1 0-.1 0-.1-.1v-6.4c0-.1 0-.1.1-.1h1c.1 0 .1 0 .1.1v6.4c0 .1 0 .1-.1.1zM144.3 22.4a6.15 6.15 0 0 1-.1 1.3 2.81 2.81 0 0 1-.5 1.1 2.36 2.36 0 0 1-.9.8 3.42 3.42 0 0 1-2.8 0 1.76 1.76 0 0 1-.9-.8 3.7 3.7 0 0 1-.5-1.1 5.28 5.28 0 0 1-.1-1.3 6.15 6.15 0 0 1 .1-1.3 2.81 2.81 0 0 1 .5-1.1 2.36 2.36 0 0 1 .9-.8 3.42 3.42 0 0 1 2.8 0 1.76 1.76 0 0 1 .9.8 3.7 3.7 0 0 1 .5 1.1c0 .4.1.8.1 1.3zm-1.4.1v-1a3 3 0 0 0-.2-1 2.18 2.18 0 0 0-.5-.8 1.22 1.22 0 0 0-.9-.3 1.14 1.14 0 0 0-.8.3 1.79 1.79 0 0 0-.5.7 2.92 2.92 0 0 0-.2.9v2a3 3 0 0 0 .2 1 2.18 2.18 0 0 0 .5.8 1.22 1.22 0 0 0 .9.3 1.14 1.14 0 0 0 .8-.3 1.79 1.79 0 0 0 .5-.7 2.92 2.92 0 0 0 .2-.9zM151 23.9v1.8a.1.1 0 0 1-.1.1h-.5l-3.5-4.8h-.1c-.1 0 0 0 0 .1l.1 4.5v.1h-.9c-.1 0-.1-.1-.1-.2l.1-4.7v-1.6c0-.1 0-.1.1-.1h.6c.1 0 .1 0 .2.1l3.1 4.3a.1.1 0 0 0 .2 0l-.1-4.1v-.1h.9v4.6zM158.1 25.6c.1.1 0 .1-.1.1h-1.2c-.1 0-.2 0-.2-.1s-.1-.2-.1-.3a11181712.3 11181712.3 0 0 0-.2-.4l-.4-.9a.1.1 0 0 0-.1-.1h-2.1c-.1 0-.1 0-.1.1l-.5 1.7c0 .1-.1.1-.2.1h-.9v-.1l2.5-6.4.1-.1h.6c.1 0 .1 0 .1.1l2.3 5.7a11181699.58 11181699.58 0 0 1 .2.4c.2 0 .2.1.3.2zm-3.3-4.8h-.1l-.9 2.5v.1h1.8c.1 0 .1 0 .1-.1zM163.2 25.7h-3.9c-.1 0-.1 0-.1-.1v-6.4c0-.1 0-.1.1-.1h1c.1 0 .1 0 .1.1v5.7c0 .1 0 .1.1.2s.1.1.2.1h1.3a.75.75 0 0 0 .5-.1c.2 0 .4-.1.6-.1h.1v.7c.1-.1.1 0 0 0z"/></g><g class="cls-2"><path class="cls-3" d="M175.6 24a2.92 2.92 0 0 1-.2.9 2.65 2.65 0 0 1-.5.6 1.14 1.14 0 0 1-.8.3 3.08 3.08 0 0 1-1 .1 4.89 4.89 0 0 1-1.3-.1 9.45 9.45 0 0 1-.9-.3.1.1 0 0 1-.1-.1v-.1l.2-.7a.1.1 0 1 1 .2 0 3.49 3.49 0 0 0 .9.6 2.34 2.34 0 0 0 1.2.2.9.9 0 0 0 .5-.1c.2-.1.3-.1.4-.2a1.38 1.38 0 0 0 .3-.4.6.6 0 0 0 .1-.4.91.91 0 0 0-.3-.7 1.61 1.61 0 0 0-.7-.4l-.9-.3a3.55 3.55 0 0 1-.9-.4 4.35 4.35 0 0 1-.7-.6 1.49 1.49 0 0 1-.3-1 1.73 1.73 0 0 1 .5-1.3 2.07 2.07 0 0 1 1.5-.5 5.28 5.28 0 0 1 1.3.1 3.75 3.75 0 0 0 1 .1h.1v.1l-.2.7c0 .1-.1.1-.2.1s-.2-.1-.4-.2-.3-.1-.4-.2-.3-.1-.6-.1-.4-.1-.7-.1a1.85 1.85 0 0 0-.7.2.71.71 0 0 0-.3.6.91.91 0 0 0 .3.7 1.61 1.61 0 0 0 .7.4l.9.3a3.55 3.55 0 0 1 .9.4 2.34 2.34 0 0 1 .7.7 1.25 1.25 0 0 1 .4 1.1zM181.8 19.7a.1.1 0 0 1-.1.1 1.27 1.27 0 0 1-.6-.1H180a.1.1 0 0 0-.1.1v5.9c0 .1 0 .1-.1.1h-1c-.1 0-.1 0-.1-.1v-5.9l-.1-.1h-1.1a1.27 1.27 0 0 0-.6.1c-.1 0-.1 0-.1-.1v-.6h5.1s.1 0 0 .1zM188.2 19.3v.9l-.1 3.6a2 2 0 0 1-.6 1.6 2.31 2.31 0 0 1-1.7.5 3.31 3.31 0 0 1-1.9-.5 2.18 2.18 0 0 1-.7-1.6v-4.5c0-.1 0-.1.1-.1h1c.1 0 .1 0 .1.1v4.4a1.48 1.48 0 0 0 .1.7 2.19 2.19 0 0 0 .3.5 2.19 2.19 0 0 0 .5.3 1.09 1.09 0 0 0 .5.1.9.9 0 0 0 .5-.1 1.33 1.33 0 0 0 .5-.3 2.19 2.19 0 0 0 .3-.5 1.48 1.48 0 0 0 .1-.7v-4.6h1zM195.4 22.3a5.85 5.85 0 0 1-.2 1.3 2.38 2.38 0 0 1-.6 1.1 6.47 6.47 0 0 1-.9.8 2.77 2.77 0 0 1-1.3.3h-2.2v-6.5c0-.1 0-.1.1-.1h2.4a3 3 0 0 1 1 .2 2.36 2.36 0 0 1 .9.6 2.07 2.07 0 0 1 .6 1 3.92 3.92 0 0 1 .2 1.3zm-1.4-.1a5.28 5.28 0 0 0-.1-1.3 2 2 0 0 0-.4-.8c-.2-.2-.3-.4-.5-.4a1.27 1.27 0 0 0-.6-.1h-.8c-.1 0-.1 0-.1.1v5.1c0 .2.1.4.2.4s.3.1.6.1a1.22 1.22 0 0 0 .9-.3 5.55 5.55 0 0 0 .6-.8c.1-.3.2-.6.3-1a3.75 3.75 0 0 1-.1-1zM198.1 25.7h-1c-.1 0-.1 0-.1-.1v-6.4c0-.1 0-.1.1-.1h1c.1 0 .1 0 .1.1v6.4c0 .1 0 .1-.1.1zM204.6 25.7h-4.2c-.1 0-.1 0-.1-.1v-6.4c0-.1 0-.1.1-.1h4.1v.7h-.1a1.7 1.7 0 0 1-.7-.1 1.27 1.27 0 0 1-.6-.1h-1.4c-.1 0-.1 0-.2.1s-.1.1-.1.2v2c0 .1 0 .1.1.1l2-.1c.1 0 .1 0 .1.1v.5c0 .1 0 .1-.1.1l-2-.1c-.1 0-.1 0-.1.1v2.3c0 .1 0 .1.1.2s.1.1.2.1h1.4a1.27 1.27 0 0 0 .6-.1c.2 0 .5-.1.7-.1h.1v.1l.1.6zM210.5 24a2.92 2.92 0 0 1-.2.9 2.65 2.65 0 0 1-.5.6 1.14 1.14 0 0 1-.8.3 3.08 3.08 0 0 1-1 .1 4.89 4.89 0 0 1-1.3-.1c-.4-.1-.7-.2-1-.3a.1.1 0 0 1-.1-.1v-.1l.2-.7a.1.1 0 0 1 .1-.1c.1 0 .1 0 .1.1a3.49 3.49 0 0 0 .9.6 2.34 2.34 0 0 0 1.2.2.9.9 0 0 0 .5-.1c.2-.1.3-.1.4-.2a1.38 1.38 0 0 0 .3-.4.6.6 0 0 0 .1-.4.91.91 0 0 0-.3-.7 1.61 1.61 0 0 0-.7-.4l-.9-.3a3.55 3.55 0 0 1-.9-.4 4.35 4.35 0 0 1-.7-.6 1.69 1.69 0 0 1-.3-1 1.73 1.73 0 0 1 .5-1.3 2.07 2.07 0 0 1 1.5-.5 5.28 5.28 0 0 1 1.3.1 3.75 3.75 0 0 0 1 .1h.1v.1l-.2.7c0 .1-.1.1-.2.1s-.2-.1-.4-.2-.3-.1-.4-.2a1.08 1.08 0 0 0-.6-.1c-.2 0-.4-.1-.7-.1a1.85 1.85 0 0 0-.7.2.71.71 0 0 0-.3.6.91.91 0 0 0 .3.7 1.61 1.61 0 0 0 .7.4l.9.3a3.55 3.55 0 0 1 .9.4 2.34 2.34 0 0 1 .7.7c.4.2.5.6.5 1.1z"/></g><g class="cls-2"><path class="cls-4" d="M239.5 12.8h-.7a.22.22 0 0 1-.2-.2v-6a.22.22 0 0 1 .2-.2h.7a.22.22 0 0 1 .2.2v6c0 .2-.1.2-.2.2zM247.2 11.1v1.8a.1.1 0 0 0-.1.1h-.2l-4-4.8.1 4.5v.1l-.1.1h-.6c-.1 0-.1 0-.1-.1v-.1l.1-4.4V6.8a.22.22 0 0 1 .2-.2h.4a.1.1 0 0 1 .1.1l3.6 4.2s.1.1.1 0v-.1l-.1-4.1v-.1l.1-.1h.5c.1 0 .1 0 .1.1v.1zM254 7.2c0 .1-.1.1-.2.1a1.7 1.7 0 0 1-.7-.1h-1.2v5.5a.22.22 0 0 1-.2.2h-.7a.22.22 0 0 1-.2-.2V7.2h-1.2a1.7 1.7 0 0 0-.7.1c-.1 0-.2 0-.2-.1v-.5c0-.1 0-.1.1-.1h5.3l.1.1zM259.7 12.8h-4.1a.22.22 0 0 1-.2-.2v-6a.22.22 0 0 1 .2-.2h4.1l.1.1V7c0 .1 0 .1-.1.1h-.2c-.2 0-.5-.1-.7-.1a1.27 1.27 0 0 1-.6-.1h-1.5c-.1 0-.1 0-.2.1l-.1.1V9l2.2-.1h.1a.1.1 0 0 1 .1.1v.5a.1.1 0 0 1-.1.1h-.1l-2.2-.1v2.1c0 .1 0 .1.1.1a.35.35 0 0 0 .2.1h1.5a1.27 1.27 0 0 0 .6-.1c.2 0 .5-.1.8-.1h.1l.1.1v.5c.1.6 0 .6-.1.6zM267 12.6v.1a.35.35 0 0 1-.2.1h-.9c-.1 0-.1 0-.2-.1v-.1l-1.6-2.4c-.2-.3-.4-.4-.5-.4h-.9l-.1.1v2.6a.22.22 0 0 1-.2.2h-.7a.22.22 0 0 1-.2-.2V6.4h2.9a1.48 1.48 0 0 1 .7.1l.6.3a1 1 0 0 1 .4.5 1.42 1.42 0 0 1 .2.6 1.61 1.61 0 0 1-.5 1.1 2.28 2.28 0 0 1-1.2.6 2.74 2.74 0 0 1 .4.5l1.5 1.9zm-1.7-4.5a1 1 0 0 0-1.1-1.1H263c-.1 0-.1 0-.2.1l-.1.1v2a.1.1 0 0 0 .1.1h.9a2.13 2.13 0 0 0 1.2-.3c.2 0 .4-.4.4-.9zM273.7 11.1v1.8a.1.1 0 0 0-.1.1h-.2l-4-4.8.1 4.5v.1l-.1.1h-.8c-.1 0-.1 0-.1-.1v-.1l.1-4.4V6.8a.22.22 0 0 1 .2-.2h.4a.1.1 0 0 1 .1.1l3.6 4.2s.1.1.1 0v-.1l-.1-4.1v-.1l.1-.1h.5c.1 0 .1 0 .1.1v.1zM281 12.6v.1h-1c-.1 0-.2 0-.2-.1l-.3-.7-.4-.9-.1-.1h-2.5a.1.1 0 0 0-.1.1l-.6 1.6c0 .1-.1.1-.2.1h-.6c-.1 0-.1 0-.1-.1v-.1l2.6-6 .1-.1h.4c.1 0 .1 0 .1.1l2.4 5.3c0 .1.1.1.1.2a.35.35 0 0 0 .1.2c.2.3.2.4.3.4zm-3.3-4.8l-1.1 2.7v.1h2.2zM285.9 7.2c0 .1-.1.1-.2.1a1.7 1.7 0 0 1-.7-.1h-1.2v5.5a.22.22 0 0 1-.2.2h-.7a.22.22 0 0 1-.2-.2V7.2h-1.2a1.7 1.7 0 0 0-.7.1c-.1 0-.2 0-.2-.1v-.5c0-.1 0-.1.1-.1h5.3l.1.1zM288.2 12.8h-.7a.22.22 0 0 1-.2-.2v-6a.22.22 0 0 1 .2-.2h.7a.22.22 0 0 1 .2.2v6c0 .2-.1.2-.2.2zM296.3 9.7a5 5 0 0 1-.2 1.2 3.13 3.13 0 0 1-.5 1 1.6 1.6 0 0 1-.9.7 4.88 4.88 0 0 1-1.4.3 2.9 2.9 0 0 1-1.4-.3 2.18 2.18 0 0 1-.9-.7 3.13 3.13 0 0 1-.5-1 4.87 4.87 0 0 1-.1-1.2 5 5 0 0 1 .2-1.2 3.13 3.13 0 0 1 .5-1 1.6 1.6 0 0 1 .9-.7 3.42 3.42 0 0 1 2.8 0 2.18 2.18 0 0 1 .9.7 3.13 3.13 0 0 1 .5 1 4.12 4.12 0 0 1 .1 1.2zm-1.1.1a2.77 2.77 0 0 0-.1-.9 2.39 2.39 0 0 0-.2-.9 1.87 1.87 0 0 0-.6-.7 1.49 1.49 0 0 0-1-.3 2 2 0 0 0-.9.2 1.47 1.47 0 0 0-.5.6 9.43 9.43 0 0 0-.3.9c0 .3-.1.6-.1.9a2.77 2.77 0 0 0 .1.9 2.92 2.92 0 0 0 .2.9 1.34 1.34 0 0 0 .6.7 1.69 1.69 0 0 0 1 .3 2 2 0 0 0 .9-.2 2.65 2.65 0 0 0 .5-.6c.1-.3.2-.5.3-.8a3.75 3.75 0 0 0 .1-1zM303.4 11.1v1.8a.1.1 0 0 0-.1.1h-.2l-4-4.8.1 4.5v.1l-.1.1h-.6c-.1 0-.1 0-.1-.1v-.1l.1-4.4V6.8a.22.22 0 0 1 .2-.2h.4a.1.1 0 0 1 .1.1l3.6 4.2s.1.1.1 0v-.1l-.1-4.1v-.1l.1-.1h.5c.1 0 .1 0 .1.1v.1zM310.7 12.6v.1h-1c-.1 0-.2 0-.2-.1l-.3-.7-.4-.9-.1-.1h-2.5a.1.1 0 0 0-.1.1l-.5 1.7c0 .1-.1.1-.2.1h-.6c-.1 0-.1 0-.1-.1v-.1l2.6-6 .1-.1h.4c.1 0 .1 0 .1.1l2.4 5.3c0 .1.1.1.1.2a.35.35 0 0 0 .1.2c.1.2.1.3.2.3zm-3.3-4.8l-1.1 2.7v.1h2.2zM316 12.8h-3.9a.22.22 0 0 1-.2-.2v-6a.22.22 0 0 1 .2-.2h.7a.22.22 0 0 1 .2.2v5.3c0 .1 0 .1.1.1a.35.35 0 0 0 .2.1h1.4a1.27 1.27 0 0 0 .6-.1c.2 0 .4-.1.6-.1h.1a.1.1 0 0 1 .1.1v.5a.44.44 0 0 1-.1.3z"/></g><g class="cls-2"><path class="cls-4" d="M243.1 24a1.88 1.88 0 0 1-.2.8 2.65 2.65 0 0 1-.5.6 6.89 6.89 0 0 1-.8.3 2.77 2.77 0 0 1-.9.1 4.89 4.89 0 0 1-1.3-.1 4.65 4.65 0 0 1-.9-.3c-.1 0-.1 0-.1-.1v-.1l.2-.6a.1.1 0 0 1 .1-.1c.1 0 .1 0 .1.1a2.18 2.18 0 0 0 .8.5 3.73 3.73 0 0 0 1.2.2.75.75 0 0 0 .5-.1c.2-.1.3-.1.5-.2l.3-.3a.6.6 0 0 0 .1-.4 1.42 1.42 0 0 0-.2-.6 1 1 0 0 0-.5-.4l-.6-.3c-.2-.1-.4-.1-.6-.2s-.5-.2-.7-.3a2.09 2.09 0 0 1-.6-.4 1 1 0 0 1-.4-.5 1.45 1.45 0 0 1-.2-.7 1.43 1.43 0 0 1 .6-1.2 2.3 2.3 0 0 1 1.4-.4 4.89 4.89 0 0 1 1.3.1 3.44 3.44 0 0 0 .9.1c.1 0 .1 0 .1.1v.1l-.1.6c0 .1 0 .1-.1.1h-.1a5.9 5.9 0 0 1-.8-.4 3.73 3.73 0 0 0-1.2-.2 1.88 1.88 0 0 0-.8.2.55.55 0 0 0-.3.5c0 .2 0 .3.1.4l.3.3a.52.52 0 0 0 .4.2c.1.1.3.1.4.2l.9.3a3.55 3.55 0 0 1 .9.4 4.35 4.35 0 0 1 .7.6c.2.2.1.8.1 1.1zM249.4 25.7h-4.1a.22.22 0 0 1-.2-.2v-6a.22.22 0 0 1 .2-.2h4.1l.1.1v.5c0 .1 0 .1-.1.1h-.2c-.2 0-.5-.1-.7-.1a1.27 1.27 0 0 1-.6-.1h-1.5c-.1 0-.1 0-.2.1l-.1.1v1.9l2.2-.1h.1a.1.1 0 0 1 .1.1v.5a.1.1 0 0 1-.1.1h-.1l-2.2-.1v2.1c0 .1 0 .1.1.1a.35.35 0 0 0 .2.1h1.5a1.27 1.27 0 0 0 .6-.1c.2 0 .5-.1.8-.1h.1l.1.1v.5c.1.6 0 .6-.1.6zM255.9 25.1l-.9.6a5 5 0 0 1-1.2.2 4.25 4.25 0 0 1-1.1-.2 3.13 3.13 0 0 1-1-.5 3.59 3.59 0 0 1-.7-1 3.34 3.34 0 0 1-.3-1.5 5.07 5.07 0 0 1 .2-1.3 3.33 3.33 0 0 1 .6-1 2.36 2.36 0 0 1 .9-.6 4.25 4.25 0 0 1 1.1-.2h2s.1.1 0 .1l-.1.6c0 .1 0 .1-.1.1h-.1a3.09 3.09 0 0 0-.8-.2c-.2 0-.6-.1-.9-.1a1.49 1.49 0 0 0-1.3.6 3.31 3.31 0 0 0-.5 1.9 5.07 5.07 0 0 0 .2 1.3 2.18 2.18 0 0 0 .5.8 1.61 1.61 0 0 0 .7.4 2.2 2.2 0 0 0 .8.1 1.85 1.85 0 0 0 .7-.2 4.35 4.35 0 0 0 .7-.4h.2l.2.3c.3.1.3.1.2.2zM262.8 19.7v.6l-.1 3.4a1.75 1.75 0 0 1-.6 1.5 2.86 2.86 0 0 1-1.7.5 3.31 3.31 0 0 1-1.9-.5 1.81 1.81 0 0 1-.7-1.5v-4.2a.22.22 0 0 1 .2-.2h.7a.22.22 0 0 1 .2.2v4.1a1.27 1.27 0 0 0 .1.6 1.76 1.76 0 0 0 .4.5c.2.1.3.2.5.3a1.48 1.48 0 0 0 .7.1 1.27 1.27 0 0 0 .6-.1c.2-.1.3-.1.5-.2s.2-.3.3-.4a1.27 1.27 0 0 0 .1-.6v-4.2l.1-.1h.7c.1 0 .1 0 .1.1-.2 0-.2 0-.2.1zM270.4 25.5v.1a.35.35 0 0 1-.2.1h-.9c-.1 0-.1 0-.2-.1v-.1l-1.6-2.4c-.2-.3-.4-.4-.5-.4h-.9l-.1.1v2.6a.22.22 0 0 1-.2.2h-.7a.22.22 0 0 1-.2-.2v-6.1h2.9a1.48 1.48 0 0 1 .7.1l.6.3a1 1 0 0 1 .4.5 1.27 1.27 0 0 1 .1.6 1.61 1.61 0 0 1-.5 1.1 2.28 2.28 0 0 1-1.2.6 2.74 2.74 0 0 1 .4.5l1.5 1.9zm-1.7-4.5a1 1 0 0 0-1.1-1.1h-1.2c-.1 0-.1 0-.2.1a.1.1 0 0 0-.1.1v2a.1.1 0 0 0 .1.1h.9a2.13 2.13 0 0 0 1.2-.3c.3 0 .4-.4.4-.9zM272.8 25.7h-.7a.22.22 0 0 1-.2-.2v-6a.22.22 0 0 1 .2-.2h.7a.22.22 0 0 1 .2.2v6c0 .2-.1.2-.2.2zM279.7 20.1c0 .1-.1.1-.2.1a1.7 1.7 0 0 1-.7-.1h-1.2v5.5a.22.22 0 0 1-.2.2h-.7a.22.22 0 0 1-.2-.2v-5.5h-1.2a1.7 1.7 0 0 0-.7.1c-.1 0-.2 0-.2-.1v-.5c0-.1 0-.1.1-.1h5.3l.1.1zM284 22.9c-.1.1-.1.1-.1.2v2.5a.22.22 0 0 1-.2.2h-.7a.22.22 0 0 1-.2-.2v-2.3c0-.1 0-.1-.1-.2l-2.5-3.4c0-.1-.1-.1 0-.1l.1-.1h.9a.37.37 0 0 1 .3.1l1.9 2.8 1.8-2.9.1-.1h.7c.1 0 .1 0 .1.1v.1zM295.2 21.2a1.45 1.45 0 0 1-.2.7 2.65 2.65 0 0 1-.5.6 1.88 1.88 0 0 1-.9.4 4.87 4.87 0 0 1-1.2.1h-.9l-.1.1v2.3a.22.22 0 0 1-.2.2h-.6a.22.22 0 0 1-.2-.2v-6a.22.22 0 0 1 .2-.2h2.2a2.77 2.77 0 0 1 .9.1c.3.1.5.2.8.3a1.2 1.2 0 0 1 .5.5 3.59 3.59 0 0 1 .2 1.1zm-1.1 0a1 1 0 0 0-.4-.9 2.42 2.42 0 0 0-1.4-.3h-.6c-.1 0-.1 0-.2.1l-.1.1v2.3a.1.1 0 0 0 .1.1h.7a1.48 1.48 0 0 0 .7-.1c.2-.1.4-.1.6-.2s.3-.3.4-.4a.84.84 0 0 0 .2-.7zM302.3 25.5v.1a.35.35 0 0 1-.2.1h-.9c-.1 0-.1 0-.2-.1v-.1l-1.6-2.4c-.2-.3-.4-.4-.5-.4h-.9l-.1.1v2.6a.22.22 0 0 1-.2.2h-.7a.22.22 0 0 1-.2-.2v-6.1h2.9a1.48 1.48 0 0 1 .7.1l.6.3a1 1 0 0 1 .4.5 1.42 1.42 0 0 1 .2.6 1.61 1.61 0 0 1-.5 1.1 2.28 2.28 0 0 1-1.2.6 2.74 2.74 0 0 1 .4.5l1.5 1.9zm-1.7-4.5a1 1 0 0 0-1.1-1.1h-1.2c-.1 0-.1 0-.2.1l-.1.1v2a.1.1 0 0 0 .1.1h.9a2.13 2.13 0 0 0 1.2-.3c.3 0 .4-.4.4-.9zM309.3 22.6a5 5 0 0 1-.2 1.2 3.13 3.13 0 0 1-.5 1 1.6 1.6 0 0 1-.9.7 3.42 3.42 0 0 1-2.8 0 2.18 2.18 0 0 1-.9-.7 3.13 3.13 0 0 1-.5-1 4.87 4.87 0 0 1-.1-1.2 5 5 0 0 1 .2-1.2 3.13 3.13 0 0 1 .5-1 1.6 1.6 0 0 1 .9-.7 2.9 2.9 0 0 1 1.4-.3 3.19 3.19 0 0 1 1.4.3 2.18 2.18 0 0 1 .9.7 3.13 3.13 0 0 1 .5 1 4.12 4.12 0 0 1 .1 1.2zm-1.1.1a2.77 2.77 0 0 0-.1-.9 2.39 2.39 0 0 0-.2-.9 1.34 1.34 0 0 0-.6-.7 1.49 1.49 0 0 0-1-.3 2 2 0 0 0-.9.2 2.65 2.65 0 0 0-.5.6 9.43 9.43 0 0 0-.3.9c0 .3-.1.6-.1.9a2.77 2.77 0 0 0 .1.9 2.92 2.92 0 0 0 .2.9 1.34 1.34 0 0 0 .6.7 1.69 1.69 0 0 0 1 .3 2 2 0 0 0 .9-.2 2.65 2.65 0 0 0 .5-.6c.1-.3.2-.5.3-.8s.1-.7.1-1zM316.5 25.7h-.2l-.1-.1-.1-.1a.1.1 0 0 1-.1-.1h-.2a6.89 6.89 0 0 1-.8.3 2.77 2.77 0 0 1-.9.1 4.25 4.25 0 0 1-1.1-.2 3.13 3.13 0 0 1-1-.5 3.59 3.59 0 0 1-.7-1 3.34 3.34 0 0 1-.3-1.5 5.07 5.07 0 0 1 .2-1.3 3.33 3.33 0 0 1 .6-1 2.36 2.36 0 0 1 .9-.6 4.25 4.25 0 0 1 1.1-.2h1.9l.1.1-.1.6c0 .1 0 .1-.1.1h-.1c-.1 0-.3-.1-.4-.1s-.2-.1-.4-.1a.6.6 0 0 1-.4-.1h-.6a1.49 1.49 0 0 0-1.3.6 3.31 3.31 0 0 0-.5 1.9 5.07 5.07 0 0 0 .2 1.3 2.18 2.18 0 0 0 .5.8 1.61 1.61 0 0 0 .7.4 2.48 2.48 0 0 0 .9.1.6.6 0 0 0 .4-.1.6.6 0 0 1 .4-.1c.1-.1.2-.1.3-.2a.31.31 0 0 0 .1-.2v-.9a2.48 2.48 0 0 0-.1-.8v-.2c0-.1 0-.1.1-.1l.1-.1h.8c.1 0 .1 0 .1.1v3c.2.1.2.2.1.2zM324 25.5v.1a.35.35 0 0 1-.2.1h-.9c-.1 0-.1 0-.2-.1v-.1l-1.6-2.4c-.2-.3-.4-.4-.5-.4h-.9l-.1.1v2.6a.22.22 0 0 1-.2.2h-.7a.22.22 0 0 1-.2-.2v-6.1h2.9a1.48 1.48 0 0 1 .7.1l.6.3a1 1 0 0 1 .4.5 1.42 1.42 0 0 1 .2.6 1.61 1.61 0 0 1-.5 1.1 2.28 2.28 0 0 1-1.2.6 2.74 2.74 0 0 1 .4.5l1.5 1.9zm-1.7-4.5a1 1 0 0 0-1.1-1.1H320c-.1 0-.1 0-.2.1l-.1.1v2a.1.1 0 0 0 .1.1h.9a2.13 2.13 0 0 0 1.2-.3c.2 0 .4-.4.4-.9zM330.8 25.5v.1h-1c-.1 0-.2 0-.2-.1l-.3-.7-.4-.9-.1-.1h-2.5a.1.1 0 0 0-.1.1l-.6 1.6c0 .1-.1.1-.2.1h-.6c-.1 0-.1 0-.1-.1v-.1l2.6-6 .1-.1h.4c.1 0 .1 0 .1.1l2.4 5.3c0 .1.1.1.1.2a.35.35 0 0 0 .1.2c.2.3.2.4.3.4zm-3.2-4.8l-1.1 2.7v.1h2.2zM339.1 22.6v3a.22.22 0 0 1-.2.2h-.6a.22.22 0 0 1-.2-.2v-4.5h-.1l-2.4 4.3a.1.1 0 0 1-.1.1c-.1 0-.1 0-.1-.1l-2.3-4.3.1 4.4a.22.22 0 0 1-.2.2h-.5a.22.22 0 0 1-.2-.2l.1-4.3v-1.6a.22.22 0 0 1 .2-.2h.8a.1.1 0 0 1 .1.1l2.2 4.4h.2l2.4-4.3.1-.1a.35.35 0 0 1 .2-.1h.6c.1 0 .1 0 .2.1s0 .1 0 .1z"/></g><path class="cls-5" d="M16.4 4.8c.9.1 2 .6 2.5.6.2 0 .5.2.5 1s.2 2.1.2 2.9-.2 1.1-.5 1.1-.4-.4-.5-.9A4.83 4.83 0 0 0 17.2 7a8 8 0 0 0-5.3-1.7c-5.3 0-8.7 4.4-8.7 9.4a10.8 10.8 0 0 0 1.2 5.4 9.52 9.52 0 0 0 8.4 5.3 7.7 7.7 0 0 0 3.6-.9 7.36 7.36 0 0 0 3.1-3.2c.4-.7.6-.9.7-.9.3 0 .4.7.3 1.1a13.34 13.34 0 0 1-1.3 3.3c-.1.3-.7.7-1 .9a21.13 21.13 0 0 1-6 .9 12.54 12.54 0 0 1-9.4-3.9A11 11 0 0 1 0 15.1a10.69 10.69 0 0 1 3.6-7.9 13.5 13.5 0 0 1 8.9-3 17.56 17.56 0 0 1 3.9.6zM34.6 4.8c.2.1.4.6.4.6.1.6.3 2.5.3 2.7 0 .6 0 .9-.2.9a.83.83 0 0 1-.8-.7 5.67 5.67 0 0 0-1.6-2.4 3.57 3.57 0 0 0-2.3-.8A3.76 3.76 0 0 0 26.6 9c0 2.3 1.7 3.4 4.6 5.3 2.5 1.7 4.6 3.4 4.6 6.4a5.73 5.73 0 0 1-2.7 4.7 9.41 9.41 0 0 1-4.5 1.2 12.71 12.71 0 0 1-4.3-.9 2.56 2.56 0 0 1-.8-1.1c-.2-1.1-.5-2.6-.5-3.1 0-.1.3-.6.5-.6s.8.9 1.2 1.9a5.11 5.11 0 0 0 4.3 2.6 3.83 3.83 0 0 0 4-4c0-1.4-.7-2.9-4.1-5.1-2.8-1.8-4.8-3.7-4.8-6.5a5.37 5.37 0 0 1 1.8-4 7.14 7.14 0 0 1 4.9-1.6 20.08 20.08 0 0 1 3.8.6zM41.7 8.1c-.1-1.5-.1-2-1.9-2.3-.7-.1-.9-.4-.9-.6s.4-.4.8-.4c.9 0 2.5.1 3.6.1 1.6 0 2.4-.1 3.5-.1.5 0 .8.1.8.4s-.3.5-.9.6c-1.9.4-1.9 1.2-2 2.1-.2 1.1-.2 3.2-.2 9.7 0 1.8 0 3.9.1 4.9.1 1.8.3 2.4 2.4 2.8q.9.15.9.6c0 .3-.5.4-.9.4-1.7 0-4-.2-4.9-.2s-1.3.1-2.5.1c-.6 0-.9-.2-.9-.5s.3-.4 1-.6c1.7-.4 1.8-.9 1.9-2.4.1-1.2.2-4.6.2-7.4 0-2.1-.1-6.2-.1-7.2zM62 4.8c.2.1.4.6.4.6.1.6.3 2.5.3 2.7 0 .6 0 .9-.2.9a.83.83 0 0 1-.8-.7 5.67 5.67 0 0 0-1.6-2.4 3.57 3.57 0 0 0-2.3-.8A3.76 3.76 0 0 0 54 9c0 2.3 1.7 3.4 4.6 5.3 2.5 1.7 4.6 3.4 4.6 6.4a5.73 5.73 0 0 1-2.7 4.7 9.41 9.41 0 0 1-4.5 1.2 12.71 12.71 0 0 1-4.3-.9 2.56 2.56 0 0 1-.8-1.1c-.2-1.1-.5-2.6-.5-3.1 0-.1.3-.6.5-.6s.8.9 1.2 1.9a5.11 5.11 0 0 0 4.3 2.6 3.83 3.83 0 0 0 4-4c0-1.4-.7-2.9-4.1-5.1-2.8-1.8-4.8-3.7-4.8-6.5a5.37 5.37 0 0 1 1.8-4 7.14 7.14 0 0 1 4.9-1.6 20.08 20.08 0 0 1 3.8.6z"/></g></g></svg>